Exo-Medium.ufo
<glyph name=".notdef" format="1">
  <advance width="655"/>
  <unicode hex="0000"/>
  <outline>
    <contour>
      <point x="56" y="-5" type="line"/>
      <point x="599" y="-5" type="line"/>
      <point x="599" y="539" type="line"/>
      <point x="56" y="539" type="line"/>
    </contour>
    <contour>
      <point x="495" y="144" type="line"/>
      <point x="372" y="267" type="line"/>
      <point x="495" y="390" type="line"/>
      <point x="451" y="434" type="line"/>
      <point x="328" y="311" type="line"/>
      <point x="205" y="434" type="line"/>
      <point x="161" y="390" type="line"/>
      <point x="284" y="267" type="line"/>
      <point x="161" y="144" type="line"/>
      <point x="205" y="100" type="line"/>
      <point x="328" y="223" type="line"/>
      <point x="451" y="100" type="line"/>
    </contour>
    <contour>
      <point x="107" y="47" type="line"/>
      <point x="107" y="488" type="line"/>
      <point x="548" y="488" type="line"/>
      <point x="548" y="47" type="line"/>
    </contour>
  </outline>
</glyph>
<glyph name="numbersign" format="1">
  <advance width="697"/>
  <unicode hex="0023"/>
  <note>
    GF Latin Plus glyph
  </note>
  <outline>
    <contour>
      <point x="260" y="289" type="line"/>
      <point x="285" y="441" type="line"/>
      <point x="429" y="441" type="line"/>
      <point x="405" y="289" type="line"/>
    </contour>
    <contour>
      <point x="20" y="223" type="line"/>
      <point x="182" y="223" type="line"/>
      <point x="144" y="0" type="line"/>
      <point x="210" y="0" type="line"/>
      <point x="248" y="223" type="line"/>
      <point x="390" y="223" type="line"/>
      <point x="352" y="0" type="line"/>
      <point x="418" y="0" type="line"/>
      <point x="456" y="223" type="line"/>
      <point x="635" y="223" type="line"/>
      <point x="644" y="289" type="line"/>
      <point x="471" y="289" type="line"/>
      <point x="495" y="441" type="line"/>
      <point x="669" y="441" type="line"/>
      <point x="679" y="507" type="line"/>
      <point x="506" y="507" type="line"/>
      <point x="544" y="732" type="line"/>
      <point x="478" y="732" type="line"/>
      <point x="440" y="507" type="line"/>
      <point x="298" y="507" type="line"/>
      <point x="337" y="732" type="line"/>
      <point x="271" y="732" type="line"/>
      <point x="232" y="507" type="line"/>
      <point x="65" y="507" type="line"/>
      <point x="54" y="441" type="line"/>
      <point x="219" y="441" type="line"/>
      <point x="194" y="289" type="line"/>
      <point x="30" y="289" type="line"/>
    </contour>
  </outline>
</glyph>
<glyph name="percent" format="1">
  <advance width="960"/>
  <unicode hex="0025"/>
  <note>
    GF Latin Plus glyph
  </note>
  <outline>
    <contour>
      <point x="618" y="146" type="curve" smooth="yes"/>
      <point x="618" y="243" type="line" smooth="yes"/>
      <point x="618" y="307"/>
      <point x="645" y="321"/>
      <point x="698" y="321" type="curve" smooth="yes"/>
      <point x="776" y="321" type="line" smooth="yes"/>
      <point x="835" y="321"/>
      <point x="854" y="301"/>
      <point x="854" y="243" type="curve" smooth="yes"/>
      <point x="854" y="146" type="line" smooth="yes"/>
      <point x="854" y="87"/>
      <point x="832" y="68"/>
      <point x="774" y="68" type="curve" smooth="yes"/>
      <point x="696" y="68" type="line" smooth="yes"/>
      <point x="638" y="68"/>
      <point x="618" y="89"/>
    </contour>
    <contour>
      <point x="553" y="133" type="line" smooth="yes"/>
      <point x="553" y="48"/>
      <point x="586" y="3"/>
      <point x="684" y="3" type="curve" smooth="yes"/>
      <point x="786" y="3" type="line" smooth="yes"/>
      <point x="887" y="3"/>
      <point x="919" y="48"/>
      <point x="919" y="133" type="curve" smooth="yes"/>
      <point x="919" y="257" type="line" smooth="yes"/>
      <point x="919" y="342"/>
      <point x="886" y="386"/>
      <point x="788" y="386" type="curve" smooth="yes"/>
      <point x="686" y="386" type="line" smooth="yes"/>
      <point x="585" y="386"/>
      <point x="553" y="342"/>
      <point x="553" y="257" type="curve" smooth="yes"/>
    </contour>
    <contour>
      <point x="220" y="0" type="line"/>
      <point x="290" y="0" type="line"/>
      <point x="732" y="732" type="line"/>
      <point x="665" y="732" type="line"/>
    </contour>
    <contour>
      <point x="107" y="492" type="curve" smooth="yes"/>
      <point x="107" y="589" type="line" smooth="yes"/>
      <point x="107" y="653"/>
      <point x="134" y="667"/>
      <point x="187" y="667" type="curve" smooth="yes"/>
      <point x="265" y="667" type="line" smooth="yes"/>
      <point x="324" y="667"/>
      <point x="343" y="647"/>
      <point x="343" y="589" type="curve" smooth="yes"/>
      <point x="343" y="492" type="line" smooth="yes"/>
      <point x="343" y="433"/>
      <point x="321" y="414"/>
      <point x="263" y="414" type="curve" smooth="yes"/>
      <point x="185" y="414" type="line" smooth="yes"/>
      <point x="127" y="414"/>
      <point x="107" y="435"/>
    </contour>
    <contour>
      <point x="42" y="479" type="line" smooth="yes"/>
      <point x="42" y="394"/>
      <point x="76" y="349"/>
      <point x="174" y="349" type="curve" smooth="yes"/>
      <point x="275" y="349" type="line" smooth="yes"/>
      <point x="376" y="349"/>
      <point x="408" y="394"/>
      <point x="408" y="479" type="curve" smooth="yes"/>
      <point x="408" y="603" type="line" smooth="yes"/>
      <point x="408" y="688"/>
      <point x="375" y="732"/>
      <point x="277" y="732" type="curve" smooth="yes"/>
      <point x="176" y="732" type="line" smooth="yes"/>
      <point x="75" y="732"/>
      <point x="42" y="688"/>
      <point x="42" y="603" type="curve" smooth="yes"/>
    </contour>
  </outline>
</glyph>
<glyph name="ampersand" format="1">
  <advance width="681"/>
  <unicode hex="0026"/>
  <note>
    GF Latin Plus glyph
  </note>
  <outline>
    <contour>
      <point x="249" y="87" type="curve" smooth="yes"/>
      <point x="179" y="87"/>
      <point x="135" y="132"/>
      <point x="135" y="201" type="curve" smooth="yes"/>
      <point x="135" y="242"/>
      <point x="150" y="281"/>
      <point x="197" y="322" type="curve" smooth="yes"/>
      <point x="245" y="364" type="line"/>
      <point x="391" y="167" type="line"/>
      <point x="362" y="139" type="line" smooth="yes"/>
      <point x="320" y="98"/>
      <point x="287" y="87"/>
    </contour>
    <contour>
      <point x="233" y="-6" type="curve" smooth="yes"/>
      <point x="299" y="-6"/>
      <point x="350" y="14"/>
      <point x="411" y="69" type="curve" smooth="yes"/>
      <point x="446" y="99" type="line"/>
      <point x="522" y="0" type="line"/>
      <point x="628" y="0" type="line"/>
      <point x="511" y="157" type="line"/>
      <point x="576" y="219" type="line"/>
      <point x="644" y="315" type="line"/>
      <point x="607" y="359" type="line"/>
      <point x="460" y="223" type="line"/>
      <point x="280" y="469" type="line" smooth="yes"/>
      <point x="245" y="517"/>
      <point x="231" y="547"/>
      <point x="231" y="577" type="curve" smooth="yes"/>
      <point x="231" y="626"/>
      <point x="268" y="646"/>
      <point x="324" y="646" type="curve" smooth="yes"/>
      <point x="484" y="646" type="line"/>
      <point x="484" y="719" type="line"/>
      <point x="443" y="727"/>
      <point x="384" y="735"/>
      <point x="306" y="735" type="curve" smooth="yes"/>
      <point x="210" y="735"/>
      <point x="130" y="699"/>
      <point x="130" y="598" type="curve" smooth="yes"/>
      <point x="130" y="561"/>
      <point x="138" y="518"/>
      <point x="179" y="458" type="curve" smooth="yes"/>
      <point x="196" y="433" type="line"/>
      <point x="132" y="379" type="line" smooth="yes"/>
      <point x="69" y="325"/>
      <point x="39" y="261"/>
      <point x="39" y="190" type="curve" smooth="yes"/>
      <point x="39" y="72"/>
      <point x="121" y="-6"/>
    </contour>
  </outline>
</glyph>
<glyph name="asterisk" format="1">
  <advance width="446"/>
  <unicode hex="002A"/>
  <note>
    GF Latin Plus glyph
  </note>
  <outline>
    <contour>
      <point x="50" y="580" type="line"/>
      <point x="193" y="575" type="line"/>
      <point x="191" y="630" type="line"/>
      <point x="50" y="620" type="line"/>
    </contour>
    <contour>
      <point x="184" y="723" type="line"/>
      <point x="233" y="589" type="line"/>
      <point x="286" y="610" type="line"/>
      <point x="221" y="735" type="line"/>
    </contour>
    <contour>
      <point x="259" y="561" type="line"/>
      <point x="296" y="517" type="line"/>
      <point x="397" y="610" type="line"/>
      <point x="374" y="643" type="line"/>
    </contour>
    <contour>
      <point x="211" y="479" type="line"/>
      <point x="333" y="410" type="line"/>
      <point x="356" y="441" type="line"/>
      <point x="240" y="527" type="line"/>
    </contour>
    <contour>
      <point x="116" y="413" type="line"/>
      <point x="153" y="401" type="line"/>
      <point x="200" y="536" type="line"/>
      <point x="145" y="549" type="line"/>
    </contour>
  </outline>
</glyph>
<glyph name="zero" format="1">
  <advance width="653"/>
  <unicode hex="0030"/>
  <note>
    GF Latin Plus glyph
  </note>
  <outline>
    <contour>
      <point x="170" y="191" type="curve" smooth="yes"/>
      <point x="170" y="549" type="line" smooth="yes"/>
      <point x="170" y="616"/>
      <point x="209" y="653"/>
      <point x="274" y="653" type="curve" smooth="yes"/>
      <point x="382" y="653" type="line" smooth="yes"/>
      <point x="446" y="653"/>
      <point x="482" y="620"/>
      <point x="482" y="549" type="curve" smooth="yes"/>
      <point x="482" y="191" type="line" smooth="yes"/>
      <point x="482" y="125"/>
      <point x="451" y="88"/>
      <point x="378" y="88" type="curve" smooth="yes"/>
      <point x="277" y="88" type="line" smooth="yes"/>
      <point x="210" y="88"/>
      <point x="170" y="121"/>
    </contour>
    <contour>
      <point x="70" y="177" type="line" smooth="yes"/>
      <point x="70" y="54"/>
      <point x="144" y="-3"/>
      <point x="256" y="-3" type="curve" smooth="yes"/>
      <point x="402" y="-3" type="line" smooth="yes"/>
      <point x="513" y="-3"/>
      <point x="583" y="56"/>
      <point x="583" y="177" type="curve" smooth="yes"/>
      <point x="583" y="558" type="line" smooth="yes"/>
      <point x="583" y="670"/>
      <point x="526" y="743"/>
      <point x="403" y="743" type="curve" smooth="yes"/>
      <point x="256" y="743" type="line" smooth="yes"/>
      <point x="145" y="743"/>
      <point x="70" y="680"/>
      <point x="70" y="558" type="curve" smooth="yes"/>
    </contour>
  </outline>
</glyph>
<glyph name="two" format="1">
  <advance width="591"/>
  <unicode hex="0032"/>
  <note>
    GF Latin Plus glyph
  </note>
  <outline>
    <contour>
      <point x="75" y="648" type="line"/>
      <point x="277" y="648" type="line" smooth="yes"/>
      <point x="390" y="648"/>
      <point x="421" y="602"/>
      <point x="421" y="536" type="curve" smooth="yes"/>
      <point x="421" y="462"/>
      <point x="392" y="409"/>
      <point x="316" y="338" type="curve" smooth="yes"/>
      <point x="52" y="81" type="line"/>
      <point x="52" y="0" type="line"/>
      <point x="547" y="0" type="line"/>
      <point x="547" y="92" type="line"/>
      <point x="187" y="92" type="line"/>
      <point x="394" y="292" type="line" smooth="yes"/>
      <point x="482" y="377"/>
      <point x="521" y="448"/>
      <point x="521" y="550" type="curve" smooth="yes"/>
      <point x="521" y="667"/>
      <point x="468" y="743"/>
      <point x="298" y="743" type="curve" smooth="yes"/>
      <point x="213" y="743"/>
      <point x="136" y="734"/>
      <point x="75" y="726" type="curve"/>
    </contour>
  </outline>
</glyph>
<glyph name="four" format="1">
  <advance width="602"/>
  <unicode hex="0034"/>
  <note>
    GF Latin Plus glyph
  </note>
  <outline>
    <contour>
      <point x="25" y="230" type="line"/>
      <point x="46" y="178" type="line"/>
      <point x="386" y="178" type="line"/>
      <point x="386" y="1" type="line"/>
      <point x="486" y="1" type="line"/>
      <point x="486" y="178" type="line"/>
      <point x="580" y="195" type="line"/>
      <point x="580" y="264" type="line"/>
      <point x="486" y="264" type="line"/>
      <point x="486" y="518" type="line"/>
      <point x="407" y="518" type="line"/>
      <point x="386" y="445" type="line"/>
      <point x="386" y="264" type="line"/>
      <point x="143" y="264" type="line"/>
      <point x="394" y="737" type="line"/>
      <point x="291" y="737" type="line"/>
    </contour>
  </outline>
</glyph>
<glyph name="eight" format="1">
  <advance width="638"/>
  <unicode hex="0038"/>
  <note>
    GF Latin Plus glyph
  </note>
  <outline>
    <contour>
      <point x="187" y="503" type="curve" smooth="yes"/>
      <point x="187" y="566" type="line" smooth="yes"/>
      <point x="187" y="632"/>
      <point x="213" y="656"/>
      <point x="274" y="656" type="curve" smooth="yes"/>
      <point x="372" y="656" type="line" smooth="yes"/>
      <point x="423" y="656"/>
      <point x="452" y="636"/>
      <point x="452" y="566" type="curve" smooth="yes"/>
      <point x="452" y="503" type="line" smooth="yes"/>
      <point x="452" y="462"/>
      <point x="432" y="419"/>
      <point x="368" y="419" type="curve" smooth="yes"/>
      <point x="274" y="419" type="line" smooth="yes"/>
      <point x="214" y="419"/>
      <point x="187" y="450"/>
    </contour>
    <contour>
      <point x="175" y="164" type="curve" smooth="yes"/>
      <point x="175" y="248" type="line" smooth="yes"/>
      <point x="175" y="310"/>
      <point x="234" y="333"/>
      <point x="274" y="333" type="curve" smooth="yes"/>
      <point x="369" y="333" type="line" smooth="yes"/>
      <point x="437" y="333"/>
      <point x="464" y="307"/>
      <point x="464" y="248" type="curve" smooth="yes"/>
      <point x="464" y="164" type="line" smooth="yes"/>
      <point x="464" y="111"/>
      <point x="438" y="83"/>
      <point x="372" y="83" type="curve" smooth="yes"/>
      <point x="274" y="83" type="line" smooth="yes"/>
      <point x="215" y="83"/>
      <point x="175" y="105"/>
    </contour>
    <contour>
      <point x="74" y="148" type="line" smooth="yes"/>
      <point x="74" y="34"/>
      <point x="154" y="-3"/>
      <point x="258" y="-3" type="curve" smooth="yes"/>
      <point x="393" y="-3" type="line" smooth="yes"/>
      <point x="493" y="-3"/>
      <point x="564" y="34"/>
      <point x="564" y="148" type="curve" smooth="yes"/>
      <point x="564" y="257" type="line" smooth="yes"/>
      <point x="564" y="309"/>
      <point x="542" y="372"/>
      <point x="478" y="385" type="curve"/>
      <point x="529" y="398"/>
      <point x="550" y="462"/>
      <point x="550" y="504" type="curve" smooth="yes"/>
      <point x="550" y="588" type="line" smooth="yes"/>
      <point x="550" y="700"/>
      <point x="486" y="742"/>
      <point x="393" y="742" type="curve" smooth="yes"/>
      <point x="254" y="742" type="line" smooth="yes"/>
      <point x="162" y="742"/>
      <point x="89" y="700"/>
      <point x="89" y="588" type="curve" smooth="yes"/>
      <point x="89" y="504" type="line" smooth="yes"/>
      <point x="89" y="451"/>
      <point x="103" y="402"/>
      <point x="165" y="374" type="curve"/>
      <point x="120" y="364"/>
      <point x="74" y="319"/>
      <point x="74" y="252" type="curve" smooth="yes"/>
    </contour>
  </outline>
</glyph>
<glyph name="at" format="1">
  <advance width="876"/>
  <unicode hex="0040"/>
  <note>
    GF Latin Plus glyph
  </note>
  <outline>
    <contour>
      <point x="316" y="137" type="curve" smooth="yes"/>
      <point x="316" y="167" type="line" smooth="yes"/>
      <point x="316" y="222"/>
      <point x="359" y="228"/>
      <point x="394" y="230" type="curve" smooth="yes"/>
      <point x="545" y="238" type="line"/>
      <point x="545" y="119" type="line"/>
      <point x="512" y="94"/>
      <point x="439" y="69"/>
      <point x="393" y="69" type="curve" smooth="yes"/>
      <point x="344" y="69"/>
      <point x="316" y="95"/>
    </contour>
    <contour>
      <point x="65" y="9" type="line" smooth="yes"/>
      <point x="65" y="-136"/>
      <point x="154" y="-196"/>
      <point x="265" y="-196" type="curve" smooth="yes"/>
      <point x="588" y="-196" type="line" smooth="yes"/>
      <point x="730" y="-196"/>
      <point x="792" y="-121"/>
      <point x="792" y="18" type="curve" smooth="yes"/>
      <point x="792" y="485" type="line" smooth="yes"/>
      <point x="792" y="646"/>
      <point x="694" y="707"/>
      <point x="584" y="707" type="curve" smooth="yes"/>
      <point x="489" y="707" type="line" smooth="yes"/>
      <point x="363" y="707"/>
      <point x="236" y="699"/>
      <point x="188" y="689" type="curve"/>
      <point x="188" y="629" type="line"/>
      <point x="584" y="629" type="line" smooth="yes"/>
      <point x="668" y="629"/>
      <point x="714" y="571"/>
      <point x="714" y="485" type="curve" smooth="yes"/>
      <point x="714" y="18" type="line" smooth="yes"/>
      <point x="714" y="-69"/>
      <point x="677" y="-117"/>
      <point x="584" y="-117" type="curve" smooth="yes"/>
      <point x="265" y="-117" type="line" smooth="yes"/>
      <point x="209" y="-117"/>
      <point x="143" y="-87"/>
      <point x="143" y="18" type="curve" smooth="yes"/>
      <point x="143" y="317" type="line" smooth="yes"/>
      <point x="143" y="409"/>
      <point x="196" y="434"/>
      <point x="265" y="434" type="curve" smooth="yes"/>
      <point x="453" y="434" type="line" smooth="yes"/>
      <point x="511" y="434"/>
      <point x="545" y="412"/>
      <point x="545" y="352" type="curve" smooth="yes"/>
      <point x="545" y="292" type="line"/>
      <point x="376" y="292" type="line" smooth="yes"/>
      <point x="286" y="292"/>
      <point x="234" y="247"/>
      <point x="234" y="166" type="curve" smooth="yes"/>
      <point x="234" y="122" type="line" smooth="yes"/>
      <point x="234" y="54"/>
      <point x="279" y="-9"/>
      <point x="362" y="-9" type="curve" smooth="yes"/>
      <point x="453" y="-9"/>
      <point x="545" y="60"/>
      <point x="547" y="60" type="curve"/>
      <point x="562" y="0" type="line"/>
      <point x="623" y="0" type="line"/>
      <point x="623" y="359" type="line" smooth="yes"/>
      <point x="623" y="490"/>
      <point x="535" y="512"/>
      <point x="452" y="512" type="curve" smooth="yes"/>
      <point x="265" y="512" type="line" smooth="yes"/>
      <point x="94" y="512"/>
      <point x="65" y="398"/>
      <point x="65" y="321" type="curve" smooth="yes"/>
    </contour>
  </outline>
</glyph>
<glyph name="B" format="1">
  <advance width="611"/>
  <unicode hex="0042"/>
  <note>
    GF Latin Plus glyph
  </note>
  <outline>
    <contour>
      <point x="174" y="417" type="line"/>
      <point x="174" y="647" type="line"/>
      <point x="346" y="647" type="line" smooth="yes"/>
      <point x="406" y="647"/>
      <point x="450" y="617"/>
      <point x="447" y="531" type="curve" smooth="yes"/>
      <point x="446" y="462"/>
      <point x="407" y="417"/>
      <point x="350" y="417" type="curve" smooth="yes"/>
    </contour>
    <contour>
      <point x="174" y="90" type="line"/>
      <point x="174" y="339" type="line"/>
      <point x="355" y="339" type="line" smooth="yes"/>
      <point x="421" y="339"/>
      <point x="473" y="296"/>
      <point x="473" y="221" type="curve" smooth="yes"/>
      <point x="473" y="119"/>
      <point x="425" y="90"/>
      <point x="355" y="90" type="curve" smooth="yes"/>
    </contour>
    <contour>
      <point x="73" y="0" type="line"/>
      <point x="358" y="0" type="line" smooth="yes"/>
      <point x="490" y="0"/>
      <point x="569" y="49"/>
      <point x="569" y="204" type="curve" smooth="yes"/>
      <point x="569" y="319"/>
      <point x="496" y="369"/>
      <point x="440" y="383" type="curve"/>
      <point x="499" y="398"/>
      <point x="543" y="456"/>
      <point x="543" y="547" type="curve" smooth="yes"/>
      <point x="543" y="672"/>
      <point x="479" y="737"/>
      <point x="347" y="737" type="curve" smooth="yes"/>
      <point x="73" y="737" type="line"/>
    </contour>
    <contour>
      <point x="293" y="810" type="move" name="top"/>
    </contour>
  </outline>
</glyph>
<glyph name="C" format="1">
  <advance width="582"/>
  <unicode hex="0043"/>
  <note>
    GF Latin Plus glyph
  </note>
  <outline>
    <contour>
      <point x="55" y="371" type="curve" smooth="yes"/>
      <point x="55" y="54"/>
      <point x="141" y="-6"/>
      <point x="317" y="-6" type="curve" smooth="yes"/>
      <point x="400" y="-6"/>
      <point x="479" y="4"/>
      <point x="539" y="19" type="curve"/>
      <point x="539" y="96" type="line"/>
      <point x="499" y="90"/>
      <point x="438" y="84"/>
      <point x="338" y="84" type="curve" smooth="yes"/>
      <point x="200" y="84"/>
      <point x="155" y="131"/>
      <point x="155" y="370" type="curve" smooth="yes"/>
      <point x="155" y="605"/>
      <point x="205" y="653"/>
      <point x="339" y="653" type="curve" smooth="yes"/>
      <point x="421" y="653"/>
      <point x="504" y="644"/>
      <point x="539" y="638" type="curve"/>
      <point x="539" y="714" type="line"/>
      <point x="482" y="729"/>
      <point x="395" y="743"/>
      <point x="321" y="743" type="curve" smooth="yes"/>
      <point x="144" y="743"/>
      <point x="55" y="671"/>
    </contour>
    <contour>
      <point x="321" y="810" type="move" name="top"/>
    </contour>
    <contour>
      <point x="335" y="-150" type="move" name="bottom"/>
    </contour>
  </outline>
</glyph>
<glyph name="E" format="1">
  <advance width="590"/>
  <unicode hex="0045"/>
  <note>
    GF Latin Plus glyph
  </note>
  <outline>
    <contour>
      <point x="73" y="145" type="line" smooth="yes"/>
      <point x="73" y="8"/>
      <point x="171" y="-5"/>
      <point x="237" y="-4" type="curve" smooth="yes"/>
      <point x="282" y="-4"/>
      <point x="498" y="2"/>
      <point x="537" y="7" type="curve"/>
      <point x="537" y="90" type="line"/>
      <point x="255" y="90" type="line" smooth="yes"/>
      <point x="213" y="90"/>
      <point x="174" y="102"/>
      <point x="174" y="170" type="curve" smooth="yes"/>
      <point x="174" y="321" type="line"/>
      <point x="492" y="328" type="line"/>
      <point x="492" y="406" type="line"/>
      <point x="174" y="412" type="line"/>
      <point x="174" y="565" type="line" smooth="yes"/>
      <point x="174" y="620"/>
      <point x="204" y="644"/>
      <point x="253" y="644" type="curve" smooth="yes"/>
      <point x="537" y="644" type="line"/>
      <point x="537" y="727" type="line"/>
      <point x="506" y="730"/>
      <point x="301" y="737"/>
      <point x="226" y="737" type="curve" smooth="yes"/>
      <point x="153" y="738"/>
      <point x="73" y="702"/>
      <point x="73" y="583" type="curve" smooth="yes"/>
    </contour>
    <contour>
      <point x="312" y="810" type="move" name="top"/>
    </contour>
    <contour>
      <point x="527" y="7" type="move" name="ogonek"/>
    </contour>
    <contour>
      <point x="324" y="-150" type="move" name="bottom"/>
    </contour>
  </outline>
</glyph>
<glyph name="L" format="1">
  <advance width="533"/>
  <unicode hex="004C"/>
  <note>
    GF Latin Plus glyph
  </note>
  <outline>
    <contour>
      <point x="73" y="152" type="line" smooth="yes"/>
      <point x="73" y="37"/>
      <point x="133" y="0"/>
      <point x="225" y="0" type="curve" smooth="yes"/>
      <point x="508" y="0" type="line"/>
      <point x="508" y="92" type="line"/>
      <point x="253" y="92" type="line" smooth="yes"/>
      <point x="210" y="92"/>
      <point x="174" y="106"/>
      <point x="174" y="171" type="curve" smooth="yes"/>
      <point x="174" y="737" type="line"/>
      <point x="73" y="737" type="line"/>
    </contour>
    <contour>
      <point x="123" y="810" type="move" name="top"/>
    </contour>
    <contour>
      <point x="214" y="650" type="move" name="altcaron"/>
    </contour>
    <contour>
      <point x="278" y="-150" type="move" name="bottom"/>
    </contour>
  </outline>
</glyph>
<glyph name="M" format="1">
  <advance width="850"/>
  <unicode hex="004D"/>
  <note>
    GF Latin Plus glyph
  </note>
  <outline>
    <contour>
      <point x="53" y="0" type="line"/>
      <point x="137" y="737" type="line"/>
      <point x="237" y="737" type="line"/>
      <point x="425" y="122" type="line"/>
      <point x="610" y="737" type="line"/>
      <point x="711" y="737" type="line"/>
      <point x="797" y="0" type="line"/>
      <point x="700" y="0" type="line"/>
      <point x="628" y="614" type="line"/>
      <point x="645" y="612" type="line"/>
      <point x="471" y="0" type="line"/>
      <point x="378" y="0" type="line"/>
      <point x="201" y="612" type="line"/>
      <point x="219" y="613" type="line"/>
      <point x="150" y="0" type="line"/>
    </contour>
    <contour>
      <point x="420" y="810" type="move" name="top"/>
    </contour>
    <contour>
      <point x="420" y="-150" type="move" name="bottom"/>
    </contour>
  </outline>
</glyph>
<glyph name="O" format="1">
  <advance width="690"/>
  <unicode hex="004F"/>
  <note>
    GF Latin Plus glyph
  </note>
  <outline>
    <contour>
      <point x="155" y="366" type="curve" smooth="yes"/>
      <point x="155" y="618"/>
      <point x="213" y="653"/>
      <point x="345" y="653" type="curve" smooth="yes"/>
      <point x="484" y="653"/>
      <point x="535" y="618"/>
      <point x="535" y="366" type="curve" smooth="yes"/>
      <point x="535" y="125"/>
      <point x="484" y="84"/>
      <point x="345" y="84" type="curve" smooth="yes"/>
      <point x="202" y="84"/>
      <point x="155" y="125"/>
    </contour>
    <contour>
      <point x="55" y="366" type="curve" smooth="yes"/>
      <point x="55" y="46"/>
      <point x="152" y="-6"/>
      <point x="345" y="-6" type="curve" smooth="yes"/>
      <point x="539" y="-6"/>
      <point x="636" y="46"/>
      <point x="636" y="366" type="curve" smooth="yes"/>
      <point x="636" y="686"/>
      <point x="540" y="743"/>
      <point x="345" y="743" type="curve" smooth="yes"/>
      <point x="154" y="743"/>
      <point x="55" y="686"/>
    </contour>
    <contour>
      <point x="345" y="810" type="move" name="top"/>
    </contour>
    <contour>
      <point x="408" y="0" type="move" name="ogonek"/>
    </contour>
    <contour>
      <point x="345" y="-150" type="move" name="bottom"/>
    </contour>
  </outline>
</glyph>
<glyph name="P" format="1">
  <advance width="609"/>
  <unicode hex="0050"/>
  <note>
    GF Latin Plus glyph
  </note>
  <outline>
    <contour>
      <point x="174" y="339" type="line"/>
      <point x="174" y="647" type="line"/>
      <point x="363" y="647" type="line" smooth="yes"/>
      <point x="421" y="647"/>
      <point x="469" y="613"/>
      <point x="469" y="495" type="curve" smooth="yes"/>
      <point x="469" y="376"/>
      <point x="421" y="339"/>
      <point x="357" y="339" type="curve" smooth="yes"/>
    </contour>
    <contour>
      <point x="73" y="0" type="line"/>
      <point x="174" y="0" type="line"/>
      <point x="174" y="261" type="line"/>
      <point x="212" y="257"/>
      <point x="327" y="249"/>
      <point x="371" y="249" type="curve" smooth="yes"/>
      <point x="457" y="249"/>
      <point x="570" y="284"/>
      <point x="570" y="496" type="curve" smooth="yes"/>
      <point x="570" y="706"/>
      <point x="461" y="737"/>
      <point x="372" y="737" type="curve" smooth="yes"/>
      <point x="73" y="737" type="line"/>
    </contour>
    <contour>
      <point x="294" y="810" type="move" name="top"/>
    </contour>
  </outline>
</glyph>
<glyph name="bracketleft" format="1">
  <advance width="335"/>
  <unicode hex="005B"/>
  <note>
    GF Latin Plus glyph
  </note>
  <outline>
    <contour>
      <point x="85" y="-16" type="line" smooth="yes"/>
      <point x="85" y="-93"/>
      <point x="105" y="-210"/>
      <point x="248" y="-210" type="curve" smooth="yes"/>
      <point x="316" y="-210" type="line"/>
      <point x="316" y="-128" type="line"/>
      <point x="275" y="-128" type="line" smooth="yes"/>
      <point x="212" y="-128"/>
      <point x="185" y="-82"/>
      <point x="185" y="-11" type="curve" smooth="yes"/>
      <point x="185" y="643" type="line" smooth="yes"/>
      <point x="185" y="728"/>
      <point x="221" y="760"/>
      <point x="275" y="760" type="curve" smooth="yes"/>
      <point x="316" y="760" type="line"/>
      <point x="316" y="842" type="line"/>
      <point x="248" y="842" type="line" smooth="yes"/>
      <point x="119" y="842"/>
      <point x="85" y="749"/>
      <point x="85" y="657" type="curve" smooth="yes"/>
    </contour>
  </outline>
</glyph>
<glyph name="a" format="1">
  <advance width="546"/>
  <unicode hex="0061"/>
  <note>
    GF Latin Plus glyph
  </note>
  <outline>
    <contour>
      <point x="142" y="145" type="curve" smooth="yes"/>
      <point x="142" y="169" type="line" smooth="yes"/>
      <point x="142" y="218"/>
      <point x="170" y="251"/>
      <point x="238" y="255" type="curve" smooth="yes"/>
      <point x="379" y="261" type="line"/>
      <point x="379" y="107" type="line"/>
      <point x="375" y="104"/>
      <point x="275" y="66"/>
      <point x="223" y="67" type="curve" smooth="yes"/>
      <point x="183" y="67"/>
      <point x="142" y="86"/>
    </contour>
    <contour>
      <point x="41" y="128" type="line" smooth="yes"/>
      <point x="41" y="44"/>
      <point x="98" y="-6"/>
      <point x="177" y="-6" type="curve" smooth="yes"/>
      <point x="269" y="-6"/>
      <point x="371" y="48"/>
      <point x="384" y="60" type="curve"/>
      <point x="401" y="0" type="line"/>
      <point x="480" y="0" type="line"/>
      <point x="480" y="374" type="line" smooth="yes"/>
      <point x="480" y="497"/>
      <point x="413" y="543"/>
      <point x="281" y="543" type="curve" smooth="yes"/>
      <point x="194" y="542"/>
      <point x="132" y="533"/>
      <point x="83" y="522" type="curve"/>
      <point x="83" y="463" type="line"/>
      <point x="247" y="463" type="line" smooth="yes"/>
      <point x="356" y="463"/>
      <point x="379" y="429"/>
      <point x="379" y="367" type="curve" smooth="yes"/>
      <point x="379" y="311" type="line"/>
      <point x="212" y="311" type="line" smooth="yes"/>
      <point x="97" y="311"/>
      <point x="41" y="253"/>
      <point x="41" y="170" type="curve" smooth="yes"/>
    </contour>
    <contour>
      <point x="270" y="650" type="move" name="top"/>
    </contour>
    <contour>
      <point x="470" y="0" type="move" name="ogonek"/>
    </contour>
    <contour>
      <point x="270" y="-150" type="move" name="bottom"/>
    </contour>
  </outline>
</glyph>
<glyph name="b" format="1">
  <advance width="580"/>
  <unicode hex="0062"/>
  <note>
    GF Latin Plus glyph
  </note>
  <outline>
    <contour>
      <point x="170" y="115" type="curve"/>
      <point x="170" y="420" type="line"/>
      <point x="212" y="443"/>
      <point x="254" y="460"/>
      <point x="307" y="460" type="curve" smooth="yes"/>
      <point x="375" y="460"/>
      <point x="428" y="431"/>
      <point x="428" y="268" type="curve" smooth="yes"/>
      <point x="428" y="134"/>
      <point x="384" y="77"/>
      <point x="307" y="77" type="curve" smooth="yes"/>
      <point x="250" y="77"/>
      <point x="206" y="96"/>
    </contour>
    <contour>
      <point x="70" y="0" type="line"/>
      <point x="152" y="0" type="line"/>
      <point x="170" y="53" type="line"/>
      <point x="210" y="24"/>
      <point x="268" y="-6"/>
      <point x="342" y="-6" type="curve" smooth="yes"/>
      <point x="473" y="-6"/>
      <point x="528" y="92"/>
      <point x="528" y="263" type="curve" smooth="yes"/>
      <point x="528" y="466"/>
      <point x="468" y="542"/>
      <point x="337" y="542" type="curve" smooth="yes"/>
      <point x="285" y="542"/>
      <point x="219" y="518"/>
      <point x="170" y="490" type="curve"/>
      <point x="170" y="763" type="line"/>
      <point x="70" y="763" type="line"/>
    </contour>
  </outline>
</glyph>
<glyph name="e" format="1">
  <advance width="540"/>
  <unicode hex="0065"/>
  <note>
    GF Latin Plus glyph
  </note>
  <outline>
    <contour>
      <point x="151" y="292" type="line"/>
      <point x="151" y="431"/>
      <point x="181" y="468"/>
      <point x="280" y="468" type="curve" smooth="yes"/>
      <point x="366" y="468"/>
      <point x="398" y="443"/>
      <point x="398" y="362" type="curve" smooth="yes"/>
      <point x="398" y="309"/>
      <point x="373" y="292"/>
      <point x="320" y="292" type="curve" smooth="yes"/>
    </contour>
    <contour>
      <point x="52" y="268" type="curve" smooth="yes"/>
      <point x="52" y="58"/>
      <point x="110" y="-6"/>
      <point x="281" y="-6" type="curve" smooth="yes"/>
      <point x="360" y="-6"/>
      <point x="415" y="2"/>
      <point x="473" y="11" type="curve"/>
      <point x="473" y="71" type="line"/>
      <point x="306" y="71" type="line" smooth="yes"/>
      <point x="181" y="71"/>
      <point x="154" y="113"/>
      <point x="152" y="229" type="curve"/>
      <point x="329" y="229" type="line" smooth="yes"/>
      <point x="427" y="229"/>
      <point x="488" y="264"/>
      <point x="488" y="363" type="curve" smooth="yes"/>
      <point x="488" y="502"/>
      <point x="427" y="542"/>
      <point x="280" y="542" type="curve" smooth="yes"/>
      <point x="110" y="542"/>
      <point x="52" y="482"/>
    </contour>
    <contour>
      <point x="270" y="650" type="move" name="top"/>
    </contour>
    <contour>
      <point x="463" y="24" type="move" name="ogonek"/>
    </contour>
    <contour>
      <point x="270" y="-150" type="move" name="bottom"/>
    </contour>
  </outline>
</glyph>
<glyph name="g" format="1">
  <advance width="578"/>
  <unicode hex="0067"/>
  <note>
    GF Latin Plus glyph
  </note>
  <outline>
    <contour>
      <point x="149" y="357" type="curve" smooth="yes"/>
      <point x="149" y="432"/>
      <point x="188" y="459"/>
      <point x="257" y="459" type="curve" smooth="yes"/>
      <point x="313" y="459" type="line" smooth="yes"/>
      <point x="375" y="459"/>
      <point x="416" y="431"/>
      <point x="416" y="351" type="curve" smooth="yes"/>
      <point x="416" y="298"/>
      <point x="395" y="253"/>
      <point x="306" y="253" type="curve" smooth="yes"/>
      <point x="247" y="253" type="line" smooth="yes"/>
      <point x="185" y="253"/>
      <point x="149" y="283"/>
    </contour>
    <contour>
      <point x="58" y="363" type="curve" smooth="yes"/>
      <point x="58" y="303"/>
      <point x="79" y="240"/>
      <point x="151" y="208" type="curve"/>
      <point x="94" y="196"/>
      <point x="61" y="163"/>
      <point x="61" y="110" type="curve" smooth="yes"/>
      <point x="61" y="51"/>
      <point x="112" y="8"/>
      <point x="206" y="8" type="curve" smooth="yes"/>
      <point x="354" y="8" type="line" smooth="yes"/>
      <point x="434" y="8"/>
      <point x="461" y="-23"/>
      <point x="461" y="-71" type="curve" smooth="yes"/>
      <point x="461" y="-90" type="line" smooth="yes"/>
      <point x="461" y="-147"/>
      <point x="416" y="-174"/>
      <point x="346" y="-174" type="curve" smooth="yes"/>
      <point x="229" y="-174" type="line" smooth="yes"/>
      <point x="163" y="-174"/>
      <point x="122" y="-150"/>
      <point x="122" y="-94" type="curve" smooth="yes"/>
      <point x="122" y="-75" type="line" smooth="yes"/>
      <point x="122" y="-17"/>
      <point x="171" y="8"/>
      <point x="225" y="8" type="curve"/>
      <point x="198" y="45" type="line"/>
      <point x="115" y="45"/>
      <point x="27" y="-2"/>
      <point x="27" y="-93" type="curve" smooth="yes"/>
      <point x="27" y="-115" type="line" smooth="yes"/>
      <point x="27" y="-202"/>
      <point x="101" y="-246"/>
      <point x="203" y="-246" type="curve" smooth="yes"/>
      <point x="356" y="-246" type="line" smooth="yes"/>
      <point x="489" y="-246"/>
      <point x="555" y="-186"/>
      <point x="555" y="-85" type="curve" smooth="yes"/>
      <point x="555" y="-66" type="line" smooth="yes"/>
      <point x="555" y="39"/>
      <point x="492" y="85"/>
      <point x="369" y="85" type="curve" smooth="yes"/>
      <point x="200" y="85" type="line" smooth="yes"/>
      <point x="174" y="85"/>
      <point x="147" y="96"/>
      <point x="147" y="126" type="curve" smooth="yes"/>
      <point x="147" y="163"/>
      <point x="179" y="176"/>
      <point x="229" y="176" type="curve" smooth="yes"/>
      <point x="317" y="176" type="line" smooth="yes"/>
      <point x="459" y="176"/>
      <point x="508" y="253"/>
      <point x="508" y="339" type="curve" smooth="yes"/>
      <point x="508" y="422"/>
      <point x="472" y="450"/>
      <point x="448" y="468" type="curve"/>
      <point x="557" y="479" type="line"/>
      <point x="557" y="536" type="line"/>
      <point x="269" y="536" type="line" smooth="yes"/>
      <point x="136" y="536"/>
      <point x="58" y="485"/>
    </contour>
    <contour>
      <point x="289" y="650" type="move" name="top"/>
    </contour>
  </outline>
</glyph>
<glyph name="h" format="1">
  <advance width="590"/>
  <unicode hex="0068"/>
  <note>
    GF Latin Plus glyph
  </note>
  <outline>
    <contour>
      <point x="70" y="0" type="line"/>
      <point x="170" y="0" type="line"/>
      <point x="170" y="405" type="line"/>
      <point x="219" y="434"/>
      <point x="261" y="453"/>
      <point x="322" y="453" type="curve" smooth="yes"/>
      <point x="384" y="453"/>
      <point x="423" y="411"/>
      <point x="423" y="349" type="curve" smooth="yes"/>
      <point x="423" y="0" type="line"/>
      <point x="523" y="0" type="line"/>
      <point x="523" y="361" type="line" smooth="yes"/>
      <point x="523" y="464"/>
      <point x="474" y="544"/>
      <point x="358" y="544" type="curve" smooth="yes"/>
      <point x="287" y="544"/>
      <point x="216" y="511"/>
      <point x="170" y="477" type="curve"/>
      <point x="170" y="763" type="line"/>
      <point x="70" y="763" type="line"/>
    </contour>
    <contour>
      <point x="120" y="878" type="move" name="top"/>
    </contour>
  </outline>
</glyph>
<glyph name="i" format="1">
  <advance width="240"/>
  <unicode hex="0069"/>
  <note>
    GF Latin Plus glyph
  </note>
  <outline>
    <contour>
      <point x="66" y="642" type="line" smooth="yes"/>
      <point x="66" y="632"/>
      <point x="73" y="625"/>
      <point x="84" y="625" type="curve" smooth="yes"/>
      <point x="158" y="625" type="line" smooth="yes"/>
      <point x="168" y="625"/>
      <point x="174" y="631"/>
      <point x="174" y="642" type="curve" smooth="yes"/>
      <point x="174" y="726" type="line" smooth="yes"/>
      <point x="174" y="736"/>
      <point x="169" y="744"/>
      <point x="158" y="744" type="curve" smooth="yes"/>
      <point x="84" y="744" type="line" smooth="yes"/>
      <point x="72" y="744"/>
      <point x="66" y="737"/>
      <point x="66" y="726" type="curve" smooth="yes"/>
    </contour>
    <component base="dotlessi"/>
    <contour>
      <point x="160" y="0" type="move" name="ogonek"/>
    </contour>
    <contour>
      <point x="120" y="-150" type="move" name="bottom"/>
    </contour>
  </outline>
</glyph>
<glyph name="j" format="1">
  <advance width="240"/>
  <unicode hex="006A"/>
  <note>
    GF Latin Plus glyph
  </note>
  <outline>
    <contour>
      <point x="66" y="642" type="line" smooth="yes"/>
      <point x="66" y="632"/>
      <point x="73" y="625"/>
      <point x="83" y="625" type="curve" smooth="yes"/>
      <point x="158" y="625" type="line" smooth="yes"/>
      <point x="168" y="625"/>
      <point x="174" y="631"/>
      <point x="174" y="642" type="curve" smooth="yes"/>
      <point x="174" y="726" type="line" smooth="yes"/>
      <point x="174" y="736"/>
      <point x="169" y="744"/>
      <point x="158" y="744" type="curve" smooth="yes"/>
      <point x="83" y="744" type="line" smooth="yes"/>
      <point x="72" y="744"/>
      <point x="66" y="737"/>
      <point x="66" y="726" type="curve" smooth="yes"/>
    </contour>
    <component base="jdotless"/>
  </outline>
</glyph>
<glyph name="l" format="1">
  <advance width="300"/>
  <unicode hex="006C"/>
  <note>
    GF Latin Plus glyph
  </note>
  <outline>
    <contour>
      <point x="70" y="163" type="line" smooth="yes"/>
      <point x="70" y="42"/>
      <point x="121" y="-1"/>
      <point x="219" y="-1" type="curve" smooth="yes"/>
      <point x="289" y="-1" type="line"/>
      <point x="289" y="71" type="line"/>
      <point x="239" y="77" type="line" smooth="yes"/>
      <point x="195" y="83"/>
      <point x="170" y="102"/>
      <point x="170" y="185" type="curve" smooth="yes"/>
      <point x="170" y="763" type="line"/>
      <point x="70" y="763" type="line"/>
    </contour>
    <contour>
      <point x="190" y="650" type="move" name="altcaron"/>
    </contour>
    <contour>
      <point x="120" y="878" type="move" name="top"/>
    </contour>
    <contour>
      <point x="172" y="-150" type="move" name="bottom"/>
    </contour>
  </outline>
</glyph>
<glyph name="m" format="1">
  <advance width="943"/>
  <unicode hex="006D"/>
  <note>
    GF Latin Plus glyph
  </note>
  <outline>
    <contour>
      <point x="70" y="0" type="line"/>
      <point x="170" y="0" type="line"/>
      <point x="170" y="405" type="line"/>
      <point x="219" y="434"/>
      <point x="261" y="453"/>
      <point x="322" y="453" type="curve" smooth="yes"/>
      <point x="385" y="453"/>
      <point x="423" y="411"/>
      <point x="423" y="348" type="curve" smooth="yes"/>
      <point x="423" y="0" type="line"/>
      <point x="523" y="0" type="line"/>
      <point x="523" y="347" type="line" smooth="yes"/>
      <point x="523" y="366"/>
      <point x="520" y="383"/>
      <point x="515" y="400" type="curve"/>
      <point x="562" y="429"/>
      <point x="621" y="453"/>
      <point x="674" y="453" type="curve" smooth="yes"/>
      <point x="737" y="453"/>
      <point x="776" y="411"/>
      <point x="776" y="348" type="curve" smooth="yes"/>
      <point x="776" y="0" type="line"/>
      <point x="876" y="0" type="line"/>
      <point x="876" y="357" type="line" smooth="yes"/>
      <point x="876" y="464"/>
      <point x="829" y="544"/>
      <point x="708" y="544" type="curve" smooth="yes"/>
      <point x="635" y="544"/>
      <point x="549" y="502"/>
      <point x="502" y="466" type="curve"/>
      <point x="477" y="511"/>
      <point x="431" y="544"/>
      <point x="364" y="544" type="curve" smooth="yes"/>
      <point x="283" y="544"/>
      <point x="222" y="513"/>
      <point x="170" y="477" type="curve"/>
      <point x="150" y="535" type="line"/>
      <point x="70" y="535" type="line"/>
    </contour>
    <contour>
      <point x="480" y="650" type="move" name="top"/>
    </contour>
    <contour>
      <point x="471" y="-150" type="move" name="bottom"/>
    </contour>
  </outline>
</glyph>
<glyph name="n" format="1">
  <advance width="590"/>
  <unicode hex="006E"/>
  <note>
    GF Latin Plus glyph
  </note>
  <outline>
    <contour>
      <point x="70" y="0" type="line"/>
      <point x="170" y="0" type="line"/>
      <point x="170" y="405" type="line"/>
      <point x="219" y="434"/>
      <point x="261" y="453"/>
      <point x="322" y="453" type="curve" smooth="yes"/>
      <point x="385" y="453"/>
      <point x="423" y="411"/>
      <point x="423" y="348" type="curve" smooth="yes"/>
      <point x="423" y="0" type="line"/>
      <point x="523" y="0" type="line"/>
      <point x="523" y="360" type="line" smooth="yes"/>
      <point x="523" y="459"/>
      <point x="479" y="544"/>
      <point x="358" y="544" type="curve" smooth="yes"/>
      <point x="287" y="544"/>
      <point x="217" y="512"/>
      <point x="170" y="477" type="curve"/>
      <point x="150" y="535" type="line"/>
      <point x="70" y="535" type="line"/>
    </contour>
    <contour>
      <point x="295" y="650" type="move" name="top"/>
    </contour>
    <contour>
      <point x="295" y="-150" type="move" name="bottom"/>
    </contour>
  </outline>
</glyph>
<glyph name="o" format="1">
  <advance width="576"/>
  <unicode hex="006F"/>
  <note>
    GF Latin Plus glyph
  </note>
  <outline>
    <contour>
      <point x="153" y="269" type="curve" smooth="yes"/>
      <point x="153" y="444"/>
      <point x="197" y="465"/>
      <point x="288" y="465" type="curve" smooth="yes"/>
      <point x="378" y="465"/>
      <point x="424" y="444"/>
      <point x="424" y="269" type="curve" smooth="yes"/>
      <point x="424" y="93"/>
      <point x="378" y="71"/>
      <point x="288" y="71" type="curve" smooth="yes"/>
      <point x="197" y="71"/>
      <point x="153" y="93"/>
    </contour>
    <contour>
      <point x="52" y="268" type="curve" smooth="yes"/>
      <point x="52" y="52"/>
      <point x="125" y="-6"/>
      <point x="288" y="-6" type="curve" smooth="yes"/>
      <point x="452" y="-6"/>
      <point x="524" y="49"/>
      <point x="524" y="268" type="curve" smooth="yes"/>
      <point x="524" y="489"/>
      <point x="449" y="542"/>
      <point x="288" y="542" type="curve" smooth="yes"/>
      <point x="127" y="542"/>
      <point x="52" y="492"/>
    </contour>
    <contour>
      <point x="288" y="650" type="move" name="top"/>
    </contour>
    <contour>
      <point x="333" y="0" type="move" name="ogonek"/>
    </contour>
    <contour>
      <point x="288" y="-150" type="move" name="bottom"/>
    </contour>
  </outline>
</glyph>
<glyph name="p" format="1">
  <advance width="580"/>
  <unicode hex="0070"/>
  <note>
    GF Latin Plus glyph
  </note>
  <outline>
    <contour>
      <point x="170" y="115" type="curve"/>
      <point x="170" y="420" type="line"/>
      <point x="205" y="439"/>
      <point x="252" y="460"/>
      <point x="308" y="460" type="curve" smooth="yes"/>
      <point x="372" y="460"/>
      <point x="428" y="408"/>
      <point x="428" y="264" type="curve" smooth="yes"/>
      <point x="428" y="120"/>
      <point x="374" y="77"/>
      <point x="307" y="77" type="curve" smooth="yes"/>
      <point x="260" y="77"/>
      <point x="210" y="92"/>
    </contour>
    <contour>
      <point x="70" y="-237" type="line"/>
      <point x="170" y="-237" type="line"/>
      <point x="170" y="39" type="line"/>
      <point x="219" y="11"/>
      <point x="281" y="-7"/>
      <point x="337" y="-7" type="curve" smooth="yes"/>
      <point x="474" y="-7"/>
      <point x="528" y="90"/>
      <point x="528" y="268" type="curve" smooth="yes"/>
      <point x="528" y="421"/>
      <point x="475" y="542"/>
      <point x="337" y="542" type="curve" smooth="yes"/>
      <point x="273" y="542"/>
      <point x="207" y="508"/>
      <point x="170" y="481" type="curve"/>
      <point x="152" y="535" type="line"/>
      <point x="70" y="535" type="line"/>
    </contour>
  </outline>
</glyph>
<glyph name="r" format="1">
  <advance width="416"/>
  <unicode hex="0072"/>
  <note>
    GF Latin Plus glyph
  </note>
  <outline>
    <contour>
      <point x="70" y="0" type="line"/>
      <point x="170" y="0" type="line"/>
      <point x="170" y="365" type="line"/>
      <point x="220" y="414"/>
      <point x="264" y="438"/>
      <point x="332" y="438" type="curve" smooth="yes"/>
      <point x="352" y="438"/>
      <point x="373" y="436"/>
      <point x="392" y="433" type="curve"/>
      <point x="392" y="536" type="line"/>
      <point x="378" y="540"/>
      <point x="361" y="542"/>
      <point x="344" y="542" type="curve" smooth="yes"/>
      <point x="270" y="542"/>
      <point x="216" y="500"/>
      <point x="170" y="445" type="curve"/>
      <point x="147" y="535" type="line"/>
      <point x="70" y="535" type="line"/>
    </contour>
    <contour>
      <point x="214" y="650" type="move" name="top"/>
    </contour>
    <contour>
      <point x="120" y="-150" type="move" name="bottom"/>
    </contour>
  </outline>
</glyph>
<glyph name="t" format="1">
  <advance width="374"/>
  <unicode hex="0074"/>
  <note>
    GF Latin Plus glyph
  </note>
  <outline>
    <contour>
      <point x="17" y="453" type="line"/>
      <point x="102" y="453" type="line"/>
      <point x="98" y="178" type="line" smooth="yes"/>
      <point x="95" y="48"/>
      <point x="146" y="0"/>
      <point x="255" y="0" type="curve" smooth="yes"/>
      <point x="336" y="0" type="line"/>
      <point x="336" y="74" type="line"/>
      <point x="270" y="80" type="line" smooth="yes"/>
      <point x="237" y="83"/>
      <point x="198" y="98"/>
      <point x="198" y="179" type="curve" smooth="yes"/>
      <point x="198" y="453" type="line"/>
      <point x="343" y="453" type="line"/>
      <point x="343" y="535" type="line"/>
      <point x="198" y="535" type="line"/>
      <point x="198" y="684" type="line"/>
      <point x="119" y="684" type="line"/>
      <point x="104" y="535" type="line"/>
      <point x="17" y="518" type="line"/>
    </contour>
    <contour>
      <point x="218" y="650" type="move" name="altcaron"/>
    </contour>
    <contour>
      <point x="160" y="739" type="move" name="top"/>
    </contour>
    <contour>
      <point x="198" y="-150" type="move" name="bottom"/>
    </contour>
  </outline>
</glyph>
<glyph name="w" format="1">
  <advance width="806"/>
  <unicode hex="0077"/>
  <note>
    GF Latin Plus glyph
  </note>
  <outline>
    <contour>
      <point x="17" y="535" type="line"/>
      <point x="173" y="0" type="line"/>
      <point x="282" y="0" type="line"/>
      <point x="404" y="397" type="line"/>
      <point x="524" y="0" type="line"/>
      <point x="635" y="0" type="line"/>
      <point x="789" y="535" type="line"/>
      <point x="686" y="535" type="line"/>
      <point x="574" y="93" type="line"/>
      <point x="448" y="535" type="line"/>
      <point x="363" y="535" type="line"/>
      <point x="237" y="93" type="line"/>
      <point x="120" y="535" type="line"/>
    </contour>
    <contour>
      <point x="408" y="650" type="move" name="top"/>
    </contour>
    <contour>
      <point x="408" y="-150" type="move" name="bottom"/>
    </contour>
  </outline>
</glyph>
<glyph name="braceright" format="1">
  <advance width="312"/>
  <unicode hex="007D"/>
  <note>
    GF Latin Plus glyph
  </note>
  <outline>
    <contour>
      <point x="20" y="-132" type="curve"/>
      <point x="20" y="-210" type="line"/>
      <point x="181" y="-210"/>
      <point x="217" y="-137"/>
      <point x="217" y="-38" type="curve" smooth="yes"/>
      <point x="217" y="222" type="line" smooth="yes"/>
      <point x="217" y="264"/>
      <point x="252" y="289"/>
      <point x="292" y="286" type="curve"/>
      <point x="292" y="381" type="line"/>
      <point x="259" y="384"/>
      <point x="216" y="396"/>
      <point x="216" y="445" type="curve" smooth="yes"/>
      <point x="216" y="656" type="line" smooth="yes"/>
      <point x="216" y="763"/>
      <point x="167" y="842"/>
      <point x="20" y="842" type="curve"/>
      <point x="20" y="760" type="line"/>
      <point x="87" y="760"/>
      <point x="115" y="728"/>
      <point x="115" y="620" type="curve" smooth="yes"/>
      <point x="115" y="429" type="line" smooth="yes"/>
      <point x="115" y="369"/>
      <point x="154" y="340"/>
      <point x="207" y="334" type="curve"/>
      <point x="154" y="325"/>
      <point x="116" y="291"/>
      <point x="116" y="242" type="curve" smooth="yes"/>
      <point x="116" y="-7" type="line" smooth="yes"/>
      <point x="116" y="-98"/>
      <point x="91" y="-132"/>
    </contour>
  </outline>
</glyph>
<glyph name="cent" format="1">
  <advance width="487"/>
  <unicode hex="00A2"/>
  <note>
    GF Latin Plus glyph
  </note>
  <outline>
    <contour>
      <point x="40" y="266" type="curve" smooth="yes"/>
      <point x="40" y="44"/>
      <point x="126" y="-4"/>
      <point x="234" y="-5" type="curve"/>
      <point x="234" y="-88" type="line"/>
      <point x="293" y="-88" type="line"/>
      <point x="293" y="-5" type="line"/>
      <point x="348" y="-3"/>
      <point x="391" y="5"/>
      <point x="447" y="28" type="curve"/>
      <point x="447" y="88" type="line"/>
      <point x="409" y="80"/>
      <point x="357" y="72"/>
      <point x="273" y="72" type="curve" smooth="yes"/>
      <point x="185" y="72"/>
      <point x="140" y="104"/>
      <point x="140" y="263" type="curve" smooth="yes"/>
      <point x="140" y="431"/>
      <point x="183" y="459"/>
      <point x="270" y="459" type="curve" smooth="yes"/>
      <point x="352" y="459"/>
      <point x="409" y="453"/>
      <point x="440" y="447" type="curve"/>
      <point x="440" y="506" type="line"/>
      <point x="393" y="520"/>
      <point x="339" y="531"/>
      <point x="294" y="535" type="curve"/>
      <point x="294" y="625" type="line"/>
      <point x="236" y="625" type="line"/>
      <point x="236" y="536" type="line"/>
      <point x="121" y="536"/>
      <point x="40" y="489"/>
    </contour>
  </outline>
</glyph>
<glyph name="sterling" format="1">
  <advance width="609"/>
  <unicode hex="00A3"/>
  <note>
    GF Latin Plus glyph
  </note>
  <outline>
    <contour>
      <point x="62" y="0" type="line"/>
      <point x="549" y="0" type="line"/>
      <point x="549" y="90" type="line"/>
      <point x="266" y="90" type="line"/>
      <point x="266" y="328" type="line"/>
      <point x="471" y="336" type="line"/>
      <point x="471" y="392" type="line"/>
      <point x="266" y="401" type="line"/>
      <point x="266" y="521" type="line" smooth="yes"/>
      <point x="266" y="627"/>
      <point x="307" y="650"/>
      <point x="391" y="650" type="curve" smooth="yes"/>
      <point x="539" y="650" type="line"/>
      <point x="539" y="729" type="line"/>
      <point x="503" y="733"/>
      <point x="446" y="740"/>
      <point x="387" y="740" type="curve" smooth="yes"/>
      <point x="243" y="740"/>
      <point x="166" y="687"/>
      <point x="166" y="511" type="curve" smooth="yes"/>
      <point x="166" y="401" type="line"/>
      <point x="62" y="387" type="line"/>
      <point x="62" y="336" type="line"/>
      <point x="166" y="328" type="line"/>
      <point x="166" y="90" type="line"/>
      <point x="62" y="76" type="line"/>
    </contour>
  </outline>
</glyph>
<glyph name="currency" format="1">
  <advance width="609"/>
  <unicode hex="00A4"/>
  <note>
    GF Latin Plus glyph
  </note>
  <outline>
    <contour>
      <point x="304" y="525" type="curve" smooth="yes"/>
      <point x="212" y="525"/>
      <point x="137" y="448"/>
      <point x="137" y="356" type="curve" smooth="yes"/>
      <point x="137" y="264"/>
      <point x="212" y="188"/>
      <point x="304" y="188" type="curve" smooth="yes"/>
      <point x="396" y="188"/>
      <point x="473" y="264"/>
      <point x="473" y="356" type="curve" smooth="yes"/>
      <point x="473" y="448"/>
      <point x="396" y="525"/>
    </contour>
    <contour>
      <point x="222" y="483" type="line"/>
      <point x="118" y="587" type="line"/>
      <point x="74" y="543" type="line"/>
      <point x="178" y="439" type="line"/>
    </contour>
    <contour>
      <point x="429" y="437" type="line"/>
      <point x="535" y="543" type="line"/>
      <point x="491" y="587" type="line"/>
      <point x="385" y="481" type="line"/>
    </contour>
    <contour>
      <point x="535" y="170" type="line"/>
      <point x="429" y="276" type="line"/>
      <point x="385" y="232" type="line"/>
      <point x="491" y="126" type="line"/>
    </contour>
    <contour>
      <point x="118" y="126" type="line"/>
      <point x="226" y="234" type="line"/>
      <point x="182" y="278" type="line"/>
      <point x="74" y="170" type="line"/>
    </contour>
    <contour>
      <point x="304" y="469" type="curve" smooth="yes"/>
      <point x="366" y="469"/>
      <point x="417" y="418"/>
      <point x="417" y="356" type="curve" smooth="yes"/>
      <point x="417" y="295"/>
      <point x="366" y="243"/>
      <point x="304" y="243" type="curve" smooth="yes"/>
      <point x="243" y="243"/>
      <point x="193" y="295"/>
      <point x="193" y="356" type="curve" smooth="yes"/>
      <point x="193" y="418"/>
      <point x="243" y="469"/>
    </contour>
  </outline>
</glyph>
<glyph name="section" format="1">
  <advance width="547"/>
  <unicode hex="00A7"/>
  <note>
    GF Latin Plus glyph
  </note>
  <outline>
    <contour>
      <point x="151" y="362" type="curve" smooth="yes"/>
      <point x="151" y="408" type="line" smooth="yes"/>
      <point x="151" y="461"/>
      <point x="173" y="466"/>
      <point x="225" y="466" type="curve" smooth="yes"/>
      <point x="321" y="466" type="line" smooth="yes"/>
      <point x="382" y="466"/>
      <point x="397" y="454"/>
      <point x="397" y="410" type="curve" smooth="yes"/>
      <point x="397" y="363" type="line" smooth="yes"/>
      <point x="397" y="313"/>
      <point x="386" y="308"/>
      <point x="321" y="308" type="curve" smooth="yes"/>
      <point x="225" y="308" type="line" smooth="yes"/>
      <point x="172" y="308"/>
      <point x="151" y="312"/>
    </contour>
    <contour>
      <point x="55" y="340" type="line" smooth="yes"/>
      <point x="55" y="240"/>
      <point x="114" y="230"/>
      <point x="203" y="230" type="curve" smooth="yes"/>
      <point x="321" y="230" type="line" smooth="yes"/>
      <point x="384" y="230"/>
      <point x="393" y="219"/>
      <point x="393" y="181" type="curve" smooth="yes"/>
      <point x="393" y="136" type="line" smooth="yes"/>
      <point x="393" y="88"/>
      <point x="360" y="75"/>
      <point x="297" y="75" type="curve" smooth="yes"/>
      <point x="92" y="75" type="line"/>
      <point x="92" y="5" type="line"/>
      <point x="143" y="-3"/>
      <point x="256" y="-6"/>
      <point x="325" y="-6" type="curve" smooth="yes"/>
      <point x="403" y="-6"/>
      <point x="493" y="16"/>
      <point x="493" y="133" type="curve" smooth="yes"/>
      <point x="493" y="192" type="line" smooth="yes"/>
      <point x="493" y="225"/>
      <point x="487" y="279"/>
      <point x="433" y="289" type="curve"/>
      <point x="489" y="301"/>
      <point x="494" y="353"/>
      <point x="494" y="392" type="curve" smooth="yes"/>
      <point x="494" y="431" type="line" smooth="yes"/>
      <point x="494" y="513"/>
      <point x="456" y="544"/>
      <point x="343" y="544" type="curve" smooth="yes"/>
      <point x="226" y="544" type="line" smooth="yes"/>
      <point x="176" y="544"/>
      <point x="155" y="556"/>
      <point x="155" y="595" type="curve" smooth="yes"/>
      <point x="155" y="636" type="line" smooth="yes"/>
      <point x="155" y="674"/>
      <point x="174" y="703"/>
      <point x="241" y="703" type="curve" smooth="yes"/>
      <point x="456" y="703" type="line"/>
      <point x="456" y="772" type="line"/>
      <point x="410" y="781"/>
      <point x="283" y="784"/>
      <point x="218" y="784" type="curve" smooth="yes"/>
      <point x="121" y="784"/>
      <point x="55" y="740"/>
      <point x="55" y="642" type="curve" smooth="yes"/>
      <point x="55" y="590" type="line" smooth="yes"/>
      <point x="55" y="555"/>
      <point x="62" y="505"/>
      <point x="119" y="485" type="curve"/>
      <point x="59" y="469"/>
      <point x="55" y="425"/>
      <point x="55" y="388" type="curve" smooth="yes"/>
    </contour>
  </outline>
</glyph>
<glyph name="ordfeminine" format="1">
  <advance width="409"/>
  <unicode hex="00AA"/>
  <note>
    GF Latin Plus glyph
  </note>
  <outline>
    <contour>
      <point x="31" y="261" type="line"/>
      <point x="370" y="261" type="line"/>
      <point x="370" y="311" type="line"/>
      <point x="31" y="311" type="line"/>
    </contour>
    <component base="a.superior" yOffset="80"/>
  </outline>
</glyph>
<glyph name="macron" format="1">
  <advance width="369"/>
  <unicode hex="00AF"/>
  <note>
    GF Latin Plus glyph
  </note>
  <outline>
    <contour>
      <point x="50" y="664" type="line"/>
      <point x="320" y="664" type="line"/>
      <point x="320" y="724" type="line"/>
      <point x="50" y="724" type="line"/>
    </contour>
  </outline>
</glyph>
<glyph name="threesuperior" format="1">
  <advance width="454"/>
  <unicode hex="00B3"/>
  <note>
    GF Latin Plus glyph
  </note>
  <outline>
    <contour>
      <point x="55" y="743" type="line"/>
      <point x="206" y="743" type="line" smooth="yes"/>
      <point x="273" y="743"/>
      <point x="302" y="720"/>
      <point x="302" y="676" type="curve" smooth="yes"/>
      <point x="302" y="648" type="line" smooth="yes"/>
      <point x="302" y="608"/>
      <point x="271" y="594"/>
      <point x="223" y="591" type="curve" smooth="yes"/>
      <point x="93" y="584" type="line"/>
      <point x="93" y="519" type="line"/>
      <point x="227" y="514" type="line" smooth="yes"/>
      <point x="269" y="512"/>
      <point x="309" y="497"/>
      <point x="309" y="450" type="curve" smooth="yes"/>
      <point x="309" y="423" type="line" smooth="yes"/>
      <point x="309" y="371"/>
      <point x="271" y="356"/>
      <point x="210" y="356" type="curve" smooth="yes"/>
      <point x="40" y="356" type="line"/>
      <point x="40" y="289" type="line"/>
      <point x="94" y="280"/>
      <point x="161" y="276"/>
      <point x="238" y="276" type="curve" smooth="yes"/>
      <point x="338" y="276"/>
      <point x="398" y="324"/>
      <point x="398" y="410" type="curve" smooth="yes"/>
      <point x="398" y="443" type="line" smooth="yes"/>
      <point x="398" y="508"/>
      <point x="354" y="542"/>
      <point x="316" y="552" type="curve"/>
      <point x="351" y="561"/>
      <point x="389" y="590"/>
      <point x="389" y="651" type="curve" smooth="yes"/>
      <point x="389" y="694" type="line" smooth="yes"/>
      <point x="389" y="776"/>
      <point x="336" y="824"/>
      <point x="239" y="824" type="curve" smooth="yes"/>
      <point x="165" y="825"/>
      <point x="106" y="820"/>
      <point x="55" y="811" type="curve"/>
    </contour>
  </outline>
</glyph>
<glyph name="cedilla" format="1">
  <advance width="254"/>
  <unicode hex="00B8"/>
  <note>
    GF Latin Plus glyph
  </note>
  <outline>
    <contour>
      <point x="50" y="-151" type="line"/>
      <point x="50" y="-192" type="line"/>
      <point x="88" y="-192" type="line" smooth="yes"/>
      <point x="153" y="-192"/>
      <point x="187" y="-165"/>
      <point x="187" y="-118" type="curve" smooth="yes"/>
      <point x="187" y="-75"/>
      <point x="157" y="-53"/>
      <point x="104" y="-53" type="curve"/>
      <point x="62" y="-65" type="line"/>
      <point x="111" y="-68"/>
      <point x="122" y="-87"/>
      <point x="122" y="-107" type="curve" smooth="yes"/>
      <point x="122" y="-132"/>
      <point x="105" y="-145"/>
      <point x="71" y="-149" type="curve" smooth="yes"/>
    </contour>
    <contour>
      <point x="160" y="15" type="line"/>
      <point x="114" y="15" type="line"/>
      <point x="62" y="-65" type="line"/>
      <point x="109" y="-65" type="line"/>
    </contour>
  </outline>
</glyph>
<glyph name="AE" format="1">
  <advance width="969"/>
  <unicode hex="00C6"/>
  <note>
    GF Latin Plus glyph
  </note>
  <outline>
    <contour>
      <point x="291" y="278" type="line"/>
      <point x="477" y="599" type="line"/>
      <point x="477" y="278" type="line"/>
    </contour>
    <contour>
      <point x="29" y="0" type="line"/>
      <point x="128" y="0" type="line"/>
      <point x="246" y="192" type="line"/>
      <point x="477" y="192" type="line"/>
      <point x="477" y="117" type="line" smooth="yes"/>
      <point x="483" y="24"/>
      <point x="540" y="-5"/>
      <point x="640" y="-4" type="curve" smooth="yes"/>
      <point x="694" y="-4"/>
      <point x="878" y="3"/>
      <point x="915" y="8" type="curve"/>
      <point x="915" y="90" type="line"/>
      <point x="658" y="90" type="line" smooth="yes"/>
      <point x="603" y="90"/>
      <point x="568" y="107"/>
      <point x="568" y="170" type="curve" smooth="yes"/>
      <point x="568" y="321" type="line"/>
      <point x="871" y="328" type="line"/>
      <point x="871" y="406" type="line"/>
      <point x="568" y="412" type="line"/>
      <point x="568" y="581" type="line" smooth="yes"/>
      <point x="568" y="624"/>
      <point x="586" y="644"/>
      <point x="637" y="644" type="curve" smooth="yes"/>
      <point x="915" y="644" type="line"/>
      <point x="915" y="726" type="line"/>
      <point x="886" y="730"/>
      <point x="678" y="737"/>
      <point x="622" y="737" type="curve" smooth="yes"/>
      <point x="497" y="738"/>
      <point x="427" y="694"/>
      <point x="368" y="585" type="curve" smooth="yes"/>
    </contour>
    <contour>
      <point x="531" y="810" type="move" name="top"/>
    </contour>
  </outline>
</glyph>
<glyph name="Thorn" format="1">
  <advance width="568"/>
  <unicode hex="00DE"/>
  <note>
    GF Latin Plus glyph
  </note>
  <outline>
    <contour>
      <point x="73" y="0" type="line"/>
      <point x="174" y="0" type="line"/>
      <point x="174" y="162" type="line"/>
      <point x="204" y="158"/>
      <point x="296" y="149"/>
      <point x="330" y="149" type="curve" smooth="yes"/>
      <point x="416" y="149"/>
      <point x="529" y="182"/>
      <point x="529" y="381" type="curve" smooth="yes"/>
      <point x="529" y="577"/>
      <point x="420" y="607"/>
      <point x="331" y="607" type="curve" smooth="yes"/>
      <point x="174" y="607" type="line"/>
      <point x="174" y="737" type="line"/>
      <point x="73" y="737" type="line"/>
    </contour>
    <contour>
      <point x="174" y="240" type="line"/>
      <point x="174" y="516" type="line"/>
      <point x="322" y="516" type="line" smooth="yes"/>
      <point x="380" y="516"/>
      <point x="428" y="486"/>
      <point x="428" y="381" type="curve" smooth="yes"/>
      <point x="428" y="273"/>
      <point x="380" y="240"/>
      <point x="316" y="240" type="curve" smooth="yes"/>
    </contour>
  </outline>
</glyph>
<glyph name="germandbls" format="1">
  <advance width="590"/>
  <unicode hex="00DF"/>
  <note>
    GF Latin Plus glyph
  </note>
  <outline>
    <contour>
      <point x="60" y="0" type="line"/>
      <point x="160" y="0" type="line"/>
      <point x="160" y="535" type="line" smooth="yes"/>
      <point x="160" y="634"/>
      <point x="206" y="684"/>
      <point x="297" y="684" type="curve" smooth="yes"/>
      <point x="379" y="684"/>
      <point x="425" y="654"/>
      <point x="425" y="586" type="curve" smooth="yes"/>
      <point x="425" y="491"/>
      <point x="288" y="449"/>
      <point x="288" y="341" type="curve" smooth="yes"/>
      <point x="288" y="216"/>
      <point x="473" y="245"/>
      <point x="473" y="163" type="curve" smooth="yes"/>
      <point x="473" y="143" type="line" smooth="yes"/>
      <point x="473" y="115"/>
      <point x="454" y="71"/>
      <point x="372" y="71" type="curve" smooth="yes"/>
      <point x="321" y="71"/>
      <point x="271" y="73"/>
      <point x="237" y="75" type="curve"/>
      <point x="237" y="8" type="line"/>
      <point x="270" y="0"/>
      <point x="333" y="-7"/>
      <point x="396" y="-7" type="curve" smooth="yes"/>
      <point x="479" y="-7"/>
      <point x="569" y="33"/>
      <point x="569" y="141" type="curve" smooth="yes"/>
      <point x="569" y="170" type="line" smooth="yes"/>
      <point x="569" y="304"/>
      <point x="384" y="278"/>
      <point x="384" y="358" type="curve" smooth="yes"/>
      <point x="384" y="431"/>
      <point x="520" y="470"/>
      <point x="520" y="592" type="curve" smooth="yes"/>
      <point x="520" y="690"/>
      <point x="459" y="767"/>
      <point x="297" y="767" type="curve" smooth="yes"/>
      <point x="133" y="767"/>
      <point x="60" y="669"/>
      <point x="60" y="544" type="curve" smooth="yes"/>
    </contour>
  </outline>
</glyph>
<glyph name="eth" format="1">
  <advance width="576"/>
  <unicode hex="00F0"/>
  <note>
    GF Latin Plus glyph
  </note>
  <outline>
    <contour>
      <point x="52" y="264" type="curve" smooth="yes"/>
      <point x="52" y="51"/>
      <point x="125" y="-6"/>
      <point x="288" y="-6" type="curve" smooth="yes"/>
      <point x="452" y="-6"/>
      <point x="524" y="49"/>
      <point x="524" y="268" type="curve" smooth="yes"/>
      <point x="524" y="348"/>
      <point x="482" y="389"/>
      <point x="452" y="436" type="curve"/>
      <point x="425" y="507"/>
      <point x="364" y="532"/>
      <point x="275" y="532" type="curve" smooth="yes"/>
      <point x="135" y="532"/>
      <point x="52" y="484"/>
    </contour>
    <contour>
      <point x="152" y="264" type="curve" smooth="yes"/>
      <point x="152" y="431"/>
      <point x="197" y="452"/>
      <point x="288" y="452" type="curve" smooth="yes"/>
      <point x="378" y="452"/>
      <point x="424" y="431"/>
      <point x="424" y="264" type="curve" smooth="yes"/>
      <point x="424" y="96"/>
      <point x="378" y="76"/>
      <point x="288" y="76" type="curve" smooth="yes"/>
      <point x="197" y="76"/>
      <point x="152" y="96"/>
    </contour>
    <contour>
      <point x="142" y="704" type="line"/>
      <point x="333" y="691"/>
      <point x="434" y="602"/>
      <point x="434" y="300" type="curve"/>
      <point x="524" y="268" type="line"/>
      <point x="524" y="637"/>
      <point x="398" y="753"/>
      <point x="142" y="766" type="curve"/>
    </contour>
    <contour>
      <point x="175" y="574" type="line"/>
      <point x="521" y="708" type="line"/>
      <point x="507" y="744" type="line"/>
      <point x="162" y="609" type="line"/>
    </contour>
  </outline>
</glyph>
<glyph name="divide" format="1">
  <advance width="609"/>
  <unicode hex="00F7"/>
  <note>
    GF Latin Plus glyph
  </note>
  <outline>
    <contour>
      <point x="252" y="527" type="line" smooth="yes"/>
      <point x="252" y="513"/>
      <point x="262" y="504"/>
      <point x="276" y="504" type="curve" smooth="yes"/>
      <point x="332" y="504" type="line" smooth="yes"/>
      <point x="346" y="504"/>
      <point x="358" y="509"/>
      <point x="358" y="527" type="curve" smooth="yes"/>
      <point x="358" y="586" type="line" smooth="yes"/>
      <point x="358" y="602"/>
      <point x="350" y="610"/>
      <point x="332" y="610" type="curve" smooth="yes"/>
      <point x="276" y="610" type="line" smooth="yes"/>
      <point x="260" y="610"/>
      <point x="252" y="600"/>
      <point x="252" y="586" type="curve" smooth="yes"/>
    </contour>
    <contour>
      <point x="252" y="124" type="line" smooth="yes"/>
      <point x="252" y="110"/>
      <point x="262" y="102"/>
      <point x="276" y="102" type="curve" smooth="yes"/>
      <point x="332" y="102" type="line" smooth="yes"/>
      <point x="346" y="102"/>
      <point x="358" y="106"/>
      <point x="358" y="124" type="curve" smooth="yes"/>
      <point x="358" y="183" type="line" smooth="yes"/>
      <point x="358" y="199"/>
      <point x="350" y="208"/>
      <point x="332" y="208" type="curve" smooth="yes"/>
      <point x="276" y="208" type="line" smooth="yes"/>
      <point x="260" y="208"/>
      <point x="252" y="198"/>
      <point x="252" y="183" type="curve" smooth="yes"/>
    </contour>
    <component base="minus"/>
  </outline>
</glyph>
<glyph name="lslash" format="1">
  <advance width="300"/>
  <unicode hex="0142"/>
  <note>
    GF Latin Plus glyph
  </note>
  <outline>
    <contour>
      <point x="1" y="351" type="line"/>
      <point x="70" y="377" type="line"/>
      <point x="170" y="409" type="line"/>
      <point x="268" y="445" type="line"/>
      <point x="268" y="502" type="line"/>
      <point x="170" y="466" type="line"/>
      <point x="70" y="434" type="line"/>
      <point x="1" y="408" type="line"/>
    </contour>
    <component base="l"/>
  </outline>
</glyph>
<glyph name="Eng" format="1">
  <advance width="685"/>
  <unicode hex="014A"/>
  <note>
    GF Latin Plus glyph
  </note>
  <outline>
    <contour>
      <point x="326" y="-221" type="line"/>
      <point x="355" y="-233"/>
      <point x="402" y="-243"/>
      <point x="442" y="-243" type="curve" smooth="yes"/>
      <point x="568" y="-243"/>
      <point x="627" y="-193"/>
      <point x="627" y="-70" type="curve" smooth="yes"/>
      <point x="627" y="48" type="line"/>
      <point x="527" y="48" type="line"/>
      <point x="527" y="-56" type="line" smooth="yes"/>
      <point x="527" y="-132"/>
      <point x="487" y="-153"/>
      <point x="425" y="-153" type="curve" smooth="yes"/>
      <point x="408" y="-153"/>
      <point x="342" y="-147"/>
      <point x="326" y="-142" type="curve"/>
    </contour>
    <component base="N"/>
  </outline>
</glyph>
<glyph name="oe" format="1">
  <advance width="907"/>
  <unicode hex="0153"/>
  <note>
    GF Latin Plus glyph
  </note>
  <outline>
    <contour>
      <point x="518" y="292" type="line"/>
      <point x="518" y="416"/>
      <point x="546" y="468"/>
      <point x="641" y="468" type="curve" smooth="yes"/>
      <point x="726" y="468"/>
      <point x="765" y="449"/>
      <point x="765" y="363" type="curve" smooth="yes"/>
      <point x="765" y="307"/>
      <point x="735" y="292"/>
      <point x="688" y="292" type="curve" smooth="yes"/>
    </contour>
    <contour>
      <point x="435" y="268" type="curve" smooth="yes"/>
      <point x="435" y="71"/>
      <point x="500" y="-6"/>
      <point x="641" y="-6" type="curve" smooth="yes"/>
      <point x="720" y="-6"/>
      <point x="782" y="2"/>
      <point x="840" y="11" type="curve"/>
      <point x="840" y="71" type="line"/>
      <point x="669" y="71" type="line" smooth="yes"/>
      <point x="563" y="71"/>
      <point x="520" y="116"/>
      <point x="519" y="229" type="curve"/>
      <point x="707" y="229" type="line" smooth="yes"/>
      <point x="792" y="229"/>
      <point x="855" y="266"/>
      <point x="855" y="354" type="curve" smooth="yes"/>
      <point x="855" y="508"/>
      <point x="785" y="542"/>
      <point x="641" y="542" type="curve" smooth="yes"/>
      <point x="488" y="542"/>
      <point x="435" y="460"/>
    </contour>
    <contour>
      <point x="152" y="269" type="curve" smooth="yes"/>
      <point x="152" y="444"/>
      <point x="197" y="465"/>
      <point x="288" y="465" type="curve" smooth="yes"/>
      <point x="378" y="465"/>
      <point x="424" y="444"/>
      <point x="424" y="269" type="curve" smooth="yes"/>
      <point x="424" y="93"/>
      <point x="378" y="71"/>
      <point x="288" y="71" type="curve" smooth="yes"/>
      <point x="197" y="71"/>
      <point x="152" y="93"/>
    </contour>
    <contour>
      <point x="52" y="268" type="curve" smooth="yes"/>
      <point x="52" y="52"/>
      <point x="125" y="-6"/>
      <point x="286" y="-6" type="curve" smooth="yes"/>
      <point x="439" y="-6"/>
      <point x="508" y="49"/>
      <point x="508" y="268" type="curve" smooth="yes"/>
      <point x="508" y="489"/>
      <point x="438" y="542"/>
      <point x="288" y="542" type="curve" smooth="yes"/>
      <point x="127" y="542"/>
      <point x="52" y="492"/>
    </contour>
  </outline>
</glyph>
<glyph name="florin" format="1">
  <advance width="609"/>
  <unicode hex="0192"/>
  <note>
    GF Latin Plus glyph
  </note>
  <outline>
    <contour>
      <point x="19" y="-189" type="line"/>
      <point x="38" y="-197"/>
      <point x="76" y="-204"/>
      <point x="116" y="-204" type="curve" smooth="yes"/>
      <point x="234" y="-204"/>
      <point x="283" y="-114"/>
      <point x="316" y="88" type="curve" smooth="yes"/>
      <point x="367" y="393" type="line"/>
      <point x="486" y="393" type="line"/>
      <point x="498" y="466" type="line"/>
      <point x="376" y="466" type="line"/>
      <point x="394" y="568" type="line" smooth="yes"/>
      <point x="412" y="677"/>
      <point x="435" y="722"/>
      <point x="508" y="722" type="curve" smooth="yes"/>
      <point x="568" y="722" type="line"/>
      <point x="578" y="784" type="line"/>
      <point x="564" y="789"/>
      <point x="534" y="799"/>
      <point x="476" y="799" type="curve" smooth="yes"/>
      <point x="364" y="799"/>
      <point x="321" y="728"/>
      <point x="298" y="590" type="curve" smooth="yes"/>
      <point x="275" y="466" type="line"/>
      <point x="186" y="466" type="line"/>
      <point x="175" y="393" type="line"/>
      <point x="266" y="393" type="line"/>
      <point x="212" y="65" type="line" smooth="yes"/>
      <point x="189" y="-81"/>
      <point x="157" y="-127"/>
      <point x="89" y="-127" type="curve" smooth="yes"/>
      <point x="30" y="-127" type="line"/>
    </contour>
  </outline>
</glyph>
<glyph name="Uhorn" format="1">
  <advance width="679"/>
  <unicode hex="01AF"/>
  <note>
    GF Latin Plus glyph
  </note>
  <outline>
    <contour>
      <point x="526" y="681" type="line"/>
      <point x="579" y="681" type="line" smooth="yes"/>
      <point x="652" y="681"/>
      <point x="710" y="730"/>
      <point x="710" y="849" type="curve"/>
      <point x="639" y="849" type="line"/>
      <point x="639" y="765"/>
      <point x="608" y="737"/>
      <point x="562" y="737" type="curve" smooth="yes"/>
      <point x="526" y="737" type="line"/>
    </contour>
    <component base="U"/>
  </outline>
</glyph>
<glyph name="uhorn" format="1">
  <advance width="590"/>
  <unicode hex="01B0"/>
  <note>
    GF Latin Plus glyph
  </note>
  <outline>
    <contour>
      <point x="440" y="479" type="line"/>
      <point x="484" y="479" type="line" smooth="yes"/>
      <point x="557" y="479"/>
      <point x="615" y="527"/>
      <point x="615" y="647" type="curve"/>
      <point x="544" y="647" type="line"/>
      <point x="544" y="563"/>
      <point x="514" y="535"/>
      <point x="467" y="535" type="curve" smooth="yes"/>
      <point x="440" y="535" type="line"/>
    </contour>
    <component base="u"/>
  </outline>
</glyph>
<glyph name="caron" format="1">
  <advance width="394"/>
  <unicode hex="02C7"/>
  <note>
    GF Latin Plus glyph
  </note>
  <outline>
    <contour>
      <point x="227" y="631" type="line"/>
      <point x="345" y="768" type="line"/>
      <point x="284" y="768" type="line"/>
      <point x="194" y="678" type="line"/>
      <point x="110" y="768" type="line"/>
      <point x="50" y="768" type="line"/>
      <point x="157" y="631" type="line"/>
    </contour>
  </outline>
</glyph>
<glyph name="pi" format="1">
  <advance width="624"/>
  <unicode hex="03C0"/>
  <outline>
    <contour>
      <point x="20" y="443" type="line"/>
      <point x="113" y="443" type="line"/>
      <point x="113" y="0" type="line"/>
      <point x="214" y="0" type="line"/>
      <point x="214" y="443" type="line"/>
      <point x="358" y="443" type="line"/>
      <point x="358" y="138" type="line" smooth="yes"/>
      <point x="358" y="38"/>
      <point x="400" y="-6"/>
      <point x="481" y="-6" type="curve" smooth="yes"/>
      <point x="521" y="-6"/>
      <point x="549" y="4"/>
      <point x="568" y="15" type="curve"/>
      <point x="568" y="74" type="line"/>
      <point x="517" y="74" type="line" smooth="yes"/>
      <point x="476" y="74"/>
      <point x="458" y="91"/>
      <point x="458" y="143" type="curve" smooth="yes"/>
      <point x="458" y="443" type="line"/>
      <point x="560" y="443" type="line"/>
      <point x="560" y="535" type="line"/>
      <point x="20" y="535" type="line"/>
    </contour>
  </outline>
</glyph>
<glyph name="quotesinglbase" format="1">
  <advance width="198"/>
  <unicode hex="201A"/>
  <note>
    GF Latin Plus glyph
  </note>
  <outline>
    <contour>
      <point x="49" y="14" type="line" smooth="yes"/>
      <point x="49" y="1"/>
      <point x="57" y="-6"/>
      <point x="68" y="-6" type="curve" smooth="yes"/>
      <point x="76" y="-6" type="line"/>
      <point x="76" y="-50" type="line" smooth="yes"/>
      <point x="76" y="-62"/>
      <point x="73" y="-74"/>
      <point x="52" y="-74" type="curve"/>
      <point x="52" y="-110" type="line"/>
      <point x="54" y="-111"/>
      <point x="64" y="-113"/>
      <point x="76" y="-113" type="curve" smooth="yes"/>
      <point x="103" y="-113"/>
      <point x="144" y="-103"/>
      <point x="144" y="-46" type="curve" smooth="yes"/>
      <point x="144" y="100" type="line" smooth="yes"/>
      <point x="144" y="112"/>
      <point x="141" y="121"/>
      <point x="129" y="121" type="curve" smooth="yes"/>
      <point x="68" y="121" type="line" smooth="yes"/>
      <point x="55" y="121"/>
      <point x="49" y="114"/>
      <point x="49" y="100" type="curve" smooth="yes"/>
    </contour>
  </outline>
</glyph>
<glyph name="dagger" format="1">
  <advance width="438"/>
  <unicode hex="2020"/>
  <note>
    GF Latin Plus glyph
  </note>
  <outline>
    <contour>
      <point x="20" y="472" type="line"/>
      <point x="168" y="463" type="line"/>
      <point x="175" y="-72" type="line"/>
      <point x="261" y="-72" type="line"/>
      <point x="270" y="463" type="line"/>
      <point x="418" y="472" type="line"/>
      <point x="418" y="547" type="line"/>
      <point x="270" y="556" type="line"/>
      <point x="262" y="770" type="line"/>
      <point x="176" y="770" type="line"/>
      <point x="168" y="556" type="line"/>
      <point x="20" y="547" type="line"/>
    </contour>
  </outline>
</glyph>
<glyph name="zerosuperior" format="1">
  <advance width="454"/>
  <unicode hex="2070"/>
  <outline>
    <contour>
      <point x="127" y="424" type="curve" smooth="yes"/>
      <point x="127" y="678" type="line" smooth="yes"/>
      <point x="127" y="724"/>
      <point x="156" y="747"/>
      <point x="197" y="747" type="curve" smooth="yes"/>
      <point x="260" y="747" type="line" smooth="yes"/>
      <point x="303" y="747"/>
      <point x="328" y="725"/>
      <point x="328" y="678" type="curve" smooth="yes"/>
      <point x="328" y="424" type="line" smooth="yes"/>
      <point x="328" y="379"/>
      <point x="306" y="355"/>
      <point x="260" y="355" type="curve" smooth="yes"/>
      <point x="197" y="355" type="line" smooth="yes"/>
      <point x="156" y="355"/>
      <point x="127" y="376"/>
    </contour>
    <contour>
      <point x="38" y="412" type="line" smooth="yes"/>
      <point x="38" y="322"/>
      <point x="93" y="278"/>
      <point x="180" y="278" type="curve" smooth="yes"/>
      <point x="280" y="278" type="line" smooth="yes"/>
      <point x="365" y="278"/>
      <point x="417" y="322"/>
      <point x="417" y="412" type="curve" smooth="yes"/>
      <point x="417" y="686" type="line" smooth="yes"/>
      <point x="417" y="771"/>
      <point x="373" y="824"/>
      <point x="280" y="824" type="curve" smooth="yes"/>
      <point x="180" y="824" type="line" smooth="yes"/>
      <point x="94" y="824"/>
      <point x="38" y="776"/>
      <point x="38" y="686" type="curve" smooth="yes"/>
    </contour>
  </outline>
</glyph>
<glyph name="i.superior" format="1">
  <advance width="185"/>
  <unicode hex="2071"/>
  <outline>
    <contour>
      <point x="46" y="748" type="line" smooth="yes"/>
      <point x="46" y="740"/>
      <point x="52" y="735"/>
      <point x="60" y="735" type="curve" smooth="yes"/>
      <point x="127" y="735" type="line" smooth="yes"/>
      <point x="135" y="735"/>
      <point x="139" y="740"/>
      <point x="139" y="748" type="curve" smooth="yes"/>
      <point x="139" y="813" type="line" smooth="yes"/>
      <point x="139" y="821"/>
      <point x="136" y="827"/>
      <point x="127" y="827" type="curve" smooth="yes"/>
      <point x="60" y="827" type="line" smooth="yes"/>
      <point x="51" y="827"/>
      <point x="46" y="822"/>
      <point x="46" y="813" type="curve" smooth="yes"/>
    </contour>
    <contour>
      <point x="48" y="280" type="line"/>
      <point x="137" y="280" type="line"/>
      <point x="137" y="672" type="line"/>
      <point x="48" y="672" type="line"/>
    </contour>
    <contour>
      <point x="130" y="280" type="move" name="ogonek"/>
    </contour>
    <contour>
      <point x="92" y="170" type="move" name="bottom"/>
    </contour>
  </outline>
</glyph>
<glyph name="foursuperior" format="1">
  <advance width="454"/>
  <unicode hex="2074"/>
  <note>
    GF Latin Plus glyph
  </note>
  <outline>
    <contour>
      <point x="29" y="462" type="line"/>
      <point x="42" y="405" type="line"/>
      <point x="288" y="405" type="line"/>
      <point x="288" y="281" type="line"/>
      <point x="372" y="281" type="line"/>
      <point x="372" y="405" type="line"/>
      <point x="437" y="419" type="line"/>
      <point x="437" y="478" type="line"/>
      <point x="372" y="478" type="line"/>
      <point x="372" y="658" type="line"/>
      <point x="309" y="658" type="line"/>
      <point x="288" y="586" type="line"/>
      <point x="288" y="478" type="line"/>
      <point x="127" y="478" type="line"/>
      <point x="301" y="820" type="line"/>
      <point x="213" y="820" type="line"/>
    </contour>
  </outline>
</glyph>
<glyph name="fivesuperior" format="1">
  <advance width="454"/>
  <unicode hex="2075"/>
  <outline>
    <contour>
      <point x="59" y="287" type="line"/>
      <point x="115" y="281"/>
      <point x="185" y="276"/>
      <point x="250" y="276" type="curve" smooth="yes"/>
      <point x="362" y="276"/>
      <point x="429" y="318"/>
      <point x="429" y="410" type="curve" smooth="yes"/>
      <point x="429" y="489" type="line" smooth="yes"/>
      <point x="429" y="560"/>
      <point x="384" y="611"/>
      <point x="298" y="611" type="curve" smooth="yes"/>
      <point x="236" y="611" type="line" smooth="yes"/>
      <point x="196" y="611"/>
      <point x="168" y="598"/>
      <point x="154" y="581" type="curve"/>
      <point x="162" y="743" type="line"/>
      <point x="409" y="743" type="line"/>
      <point x="409" y="820" type="line"/>
      <point x="86" y="820" type="line"/>
      <point x="70" y="491" type="line"/>
      <point x="154" y="491" type="line"/>
      <point x="160" y="526"/>
      <point x="181" y="540"/>
      <point x="219" y="540" type="curve" smooth="yes"/>
      <point x="268" y="540" type="line" smooth="yes"/>
      <point x="315" y="540"/>
      <point x="340" y="515"/>
      <point x="340" y="476" type="curve" smooth="yes"/>
      <point x="340" y="423" type="line" smooth="yes"/>
      <point x="340" y="378"/>
      <point x="302" y="353"/>
      <point x="252" y="353" type="curve" smooth="yes"/>
      <point x="59" y="353" type="line"/>
    </contour>
  </outline>
</glyph>
<glyph name="sevensuperior" format="1">
  <advance width="454"/>
  <unicode hex="2077"/>
  <outline>
    <contour>
      <point x="42" y="734" type="line"/>
      <point x="295" y="734" type="line"/>
      <point x="119" y="280" type="line"/>
      <point x="218" y="280" type="line"/>
      <point x="409" y="781" type="line"/>
      <point x="383" y="820" type="line"/>
      <point x="42" y="820" type="line"/>
    </contour>
  </outline>
</glyph>
<glyph name="eightsuperior" format="1">
  <advance width="454"/>
  <unicode hex="2078"/>
  <outline>
    <contour>
      <point x="139" y="650" type="curve" smooth="yes"/>
      <point x="139" y="691" type="line" smooth="yes"/>
      <point x="139" y="736"/>
      <point x="157" y="751"/>
      <point x="197" y="751" type="curve" smooth="yes"/>
      <point x="263" y="751" type="line" smooth="yes"/>
      <point x="296" y="751"/>
      <point x="316" y="738"/>
      <point x="316" y="691" type="curve" smooth="yes"/>
      <point x="316" y="650" type="line" smooth="yes"/>
      <point x="316" y="620"/>
      <point x="304" y="592"/>
      <point x="261" y="592" type="curve" smooth="yes"/>
      <point x="197" y="592" type="line" smooth="yes"/>
      <point x="156" y="592"/>
      <point x="139" y="612"/>
    </contour>
    <contour>
      <point x="130" y="405" type="curve" smooth="yes"/>
      <point x="130" y="462" type="line" smooth="yes"/>
      <point x="130" y="502"/>
      <point x="167" y="519"/>
      <point x="197" y="519" type="curve" smooth="yes"/>
      <point x="261" y="519" type="line" smooth="yes"/>
      <point x="306" y="519"/>
      <point x="325" y="501"/>
      <point x="325" y="462" type="curve" smooth="yes"/>
      <point x="325" y="405" type="line" smooth="yes"/>
      <point x="325" y="370"/>
      <point x="309" y="351"/>
      <point x="263" y="351" type="curve" smooth="yes"/>
      <point x="197" y="351" type="line" smooth="yes"/>
      <point x="156" y="351"/>
      <point x="130" y="365"/>
    </contour>
    <contour>
      <point x="42" y="391" type="line" smooth="yes"/>
      <point x="42" y="312"/>
      <point x="96" y="278"/>
      <point x="182" y="278" type="curve" smooth="yes"/>
      <point x="283" y="278" type="line" smooth="yes"/>
      <point x="367" y="278"/>
      <point x="414" y="312"/>
      <point x="414" y="391" type="curve" smooth="yes"/>
      <point x="414" y="469" type="line" smooth="yes"/>
      <point x="414" y="505"/>
      <point x="393" y="551"/>
      <point x="351" y="563" type="curve"/>
      <point x="384" y="575"/>
      <point x="403" y="611"/>
      <point x="403" y="649" type="curve" smooth="yes"/>
      <point x="403" y="711" type="line" smooth="yes"/>
      <point x="403" y="793"/>
      <point x="351" y="824"/>
      <point x="282" y="824" type="curve" smooth="yes"/>
      <point x="178" y="824" type="line" smooth="yes"/>
      <point x="109" y="824"/>
      <point x="52" y="793"/>
      <point x="52" y="711" type="curve" smooth="yes"/>
      <point x="52" y="649" type="line" smooth="yes"/>
      <point x="52" y="611"/>
      <point x="68" y="574"/>
      <point x="107" y="554" type="curve"/>
      <point x="75" y="545"/>
      <point x="42" y="512"/>
      <point x="42" y="466" type="curve" smooth="yes"/>
    </contour>
  </outline>
</glyph>
<glyph name="ninesuperior" format="1">
  <advance width="454"/>
  <unicode hex="2079"/>
  <outline>
    <contour>
      <point x="328" y="578" type="curve"/>
      <point x="218" y="578" type="line" smooth="yes"/>
      <point x="162" y="578"/>
      <point x="131" y="588"/>
      <point x="131" y="639" type="curve" smooth="yes"/>
      <point x="131" y="685" type="line" smooth="yes"/>
      <point x="131" y="734"/>
      <point x="160" y="746"/>
      <point x="195" y="746" type="curve" smooth="yes"/>
      <point x="246" y="746" type="line" smooth="yes"/>
      <point x="301" y="746"/>
      <point x="328" y="712"/>
    </contour>
    <contour>
      <point x="416" y="555" type="curve" smooth="yes"/>
      <point x="416" y="769"/>
      <point x="358" y="823"/>
      <point x="257" y="823" type="curve" smooth="yes"/>
      <point x="175" y="823" type="line" smooth="yes"/>
      <point x="99" y="823"/>
      <point x="42" y="790"/>
      <point x="42" y="701" type="curve" smooth="yes"/>
      <point x="42" y="624" type="line" smooth="yes"/>
      <point x="42" y="544"/>
      <point x="86" y="504"/>
      <point x="192" y="504" type="curve" smooth="yes"/>
      <point x="238" y="504"/>
      <point x="289" y="507"/>
      <point x="328" y="515" type="curve"/>
      <point x="328" y="407"/>
      <point x="287" y="353"/>
      <point x="207" y="353" type="curve" smooth="yes"/>
      <point x="75" y="353" type="line"/>
      <point x="75" y="287" type="line"/>
      <point x="114" y="280"/>
      <point x="168" y="276"/>
      <point x="214" y="276" type="curve" smooth="yes"/>
      <point x="341" y="276"/>
      <point x="416" y="351"/>
    </contour>
  </outline>
</glyph>
<glyph name="franc" format="1">
  <advance width="609"/>
  <unicode hex="20A3"/>
  <note>
    GF Latin Plus glyph
  </note>
  <outline>
    <contour>
      <point x="143" y="0" type="line"/>
      <point x="244" y="0" type="line"/>
      <point x="244" y="345" type="line"/>
      <point x="493" y="351" type="line"/>
      <point x="493" y="429" type="line"/>
      <point x="244" y="435" type="line"/>
      <point x="244" y="566" type="line" smooth="yes"/>
      <point x="244" y="616"/>
      <point x="272" y="644"/>
      <point x="321" y="644" type="curve" smooth="yes"/>
      <point x="538" y="644" type="line"/>
      <point x="538" y="726" type="line"/>
      <point x="498" y="732"/>
      <point x="316" y="737"/>
      <point x="296" y="737" type="curve" smooth="yes"/>
      <point x="223" y="738"/>
      <point x="143" y="703"/>
      <point x="143" y="587" type="curve" smooth="yes"/>
    </contour>
    <contour>
      <point x="61" y="136" type="line"/>
      <point x="143" y="130" type="line"/>
      <point x="244" y="130" type="line"/>
      <point x="484" y="136" type="line"/>
      <point x="484" y="206" type="line"/>
      <point x="244" y="212" type="line"/>
      <point x="143" y="212" type="line"/>
      <point x="61" y="206" type="line"/>
    </contour>
  </outline>
</glyph>
<glyph name="lira" format="1">
  <advance width="609"/>
  <unicode hex="20A4"/>
  <note>
    GF Latin Plus glyph
  </note>
  <outline>
    <contour>
      <point x="62" y="0" type="line"/>
      <point x="549" y="0" type="line"/>
      <point x="549" y="90" type="line"/>
      <point x="266" y="90" type="line"/>
      <point x="266" y="240" type="line"/>
      <point x="470" y="243" type="line"/>
      <point x="470" y="291" type="line"/>
      <point x="266" y="295" type="line"/>
      <point x="266" y="376" type="line"/>
      <point x="471" y="379" type="line"/>
      <point x="471" y="426" type="line"/>
      <point x="266" y="431" type="line"/>
      <point x="266" y="521" type="line" smooth="yes"/>
      <point x="266" y="627"/>
      <point x="307" y="650"/>
      <point x="391" y="650" type="curve" smooth="yes"/>
      <point x="539" y="650" type="line"/>
      <point x="539" y="729" type="line"/>
      <point x="503" y="733"/>
      <point x="446" y="740"/>
      <point x="387" y="740" type="curve" smooth="yes"/>
      <point x="244" y="740"/>
      <point x="166" y="689"/>
      <point x="166" y="520" type="curve" smooth="yes"/>
      <point x="166" y="431" type="line"/>
      <point x="62" y="426" type="line"/>
      <point x="62" y="379" type="line"/>
      <point x="166" y="376" type="line"/>
      <point x="166" y="299" type="line"/>
      <point x="63" y="295" type="line"/>
      <point x="63" y="248" type="line"/>
      <point x="166" y="244" type="line"/>
      <point x="166" y="90" type="line"/>
      <point x="62" y="76" type="line"/>
    </contour>
  </outline>
</glyph>
<glyph name="naira" format="1">
  <advance width="609"/>
  <unicode hex="20A6"/>
  <note>
    GF Latin Plus glyph
  </note>
  <outline>
    <contour>
      <point x="92" y="0" type="line"/>
      <point x="174" y="0" type="line"/>
      <point x="174" y="550" type="line"/>
      <point x="449" y="0" type="line"/>
      <point x="518" y="0" type="line"/>
      <point x="518" y="743" type="line"/>
      <point x="435" y="743" type="line"/>
      <point x="435" y="193" type="line"/>
      <point x="161" y="743" type="line"/>
      <point x="92" y="743" type="line"/>
    </contour>
    <contour>
      <point x="30" y="466" type="line"/>
      <point x="129" y="466" type="line"/>
      <point x="129" y="522" type="line"/>
      <point x="30" y="522" type="line"/>
    </contour>
    <contour>
      <point x="258" y="466" type="line"/>
      <point x="579" y="466" type="line"/>
      <point x="579" y="522" type="line"/>
      <point x="230" y="522" type="line"/>
    </contour>
    <contour>
      <point x="30" y="221" type="line"/>
      <point x="394" y="221" type="line"/>
      <point x="361" y="277" type="line"/>
      <point x="30" y="277" type="line"/>
    </contour>
    <contour>
      <point x="491" y="221" type="line"/>
      <point x="579" y="221" type="line"/>
      <point x="579" y="277" type="line"/>
      <point x="491" y="277" type="line"/>
    </contour>
  </outline>
</glyph>
<glyph name="peso" format="1">
  <advance width="609"/>
  <unicode hex="20B1"/>
  <note>
    GF Latin Plus glyph
  </note>
  <outline>
    <contour>
      <point x="479" y="532" type="line"/>
      <point x="599" y="532" type="line"/>
      <point x="599" y="586" type="line"/>
      <point x="479" y="586" type="line"/>
    </contour>
    <contour>
      <point x="10" y="532" type="line"/>
      <point x="153" y="532" type="line"/>
      <point x="153" y="586" type="line"/>
      <point x="10" y="586" type="line"/>
    </contour>
    <contour>
      <point x="456" y="360" type="line"/>
      <point x="599" y="360" type="line"/>
      <point x="599" y="414" type="line"/>
      <point x="475" y="414" type="line"/>
    </contour>
    <contour>
      <point x="10" y="360" type="line"/>
      <point x="157" y="360" type="line"/>
      <point x="157" y="414" type="line"/>
      <point x="10" y="414" type="line"/>
    </contour>
    <contour>
      <point x="201" y="339" type="line"/>
      <point x="201" y="647" type="line"/>
      <point x="324" y="647" type="line" smooth="yes"/>
      <point x="382" y="647"/>
      <point x="430" y="613"/>
      <point x="430" y="495" type="curve" smooth="yes"/>
      <point x="430" y="376"/>
      <point x="382" y="339"/>
      <point x="318" y="339" type="curve" smooth="yes"/>
    </contour>
    <contour>
      <point x="110" y="0" type="line"/>
      <point x="201" y="0" type="line"/>
      <point x="201" y="261" type="line"/>
      <point x="235" y="258"/>
      <point x="296" y="249"/>
      <point x="332" y="249" type="curve" smooth="yes"/>
      <point x="414" y="249"/>
      <point x="522" y="284"/>
      <point x="522" y="496" type="curve" smooth="yes"/>
      <point x="522" y="706"/>
      <point x="418" y="737"/>
      <point x="333" y="737" type="curve" smooth="yes"/>
      <point x="110" y="737" type="line"/>
    </contour>
  </outline>
</glyph>
<glyph name="guarani" format="1">
  <advance width="609"/>
  <unicode hex="20B2"/>
  <note>
    GF Latin Plus glyph
  </note>
  <outline>
    <contour>
      <point x="358" y="-97" type="line"/>
      <point x="358" y="793" type="line"/>
      <point x="307" y="793" type="line"/>
      <point x="307" y="-97" type="line"/>
    </contour>
    <contour>
      <point x="46" y="365" type="curve" smooth="yes"/>
      <point x="46" y="120"/>
      <point x="93" y="-6"/>
      <point x="280" y="-5" type="curve" smooth="yes"/>
      <point x="365" y="-4"/>
      <point x="444" y="27"/>
      <point x="490" y="51" type="curve"/>
      <point x="505" y="0" type="line"/>
      <point x="570" y="0" type="line"/>
      <point x="570" y="398" type="line"/>
      <point x="479" y="398" type="line"/>
      <point x="479" y="120" type="line"/>
      <point x="437" y="105"/>
      <point x="371" y="87"/>
      <point x="309" y="87" type="curve" smooth="yes"/>
      <point x="176" y="87"/>
      <point x="137" y="146"/>
      <point x="137" y="363" type="curve" smooth="yes"/>
      <point x="137" y="567"/>
      <point x="174" y="642"/>
      <point x="330" y="642" type="curve" smooth="yes"/>
      <point x="420" y="642"/>
      <point x="513" y="633"/>
      <point x="554" y="628" type="curve"/>
      <point x="554" y="705" type="line"/>
      <point x="483" y="721"/>
      <point x="398" y="732"/>
      <point x="313" y="732" type="curve" smooth="yes"/>
      <point x="100" y="732"/>
      <point x="46" y="606"/>
    </contour>
  </outline>
</glyph>
<glyph name="manat" format="1">
  <advance width="609"/>
  <unicode hex="20BC"/>
  <note>
    GF Latin Plus glyph
  </note>
  <outline>
    <contour>
      <point x="330" y="80" type="line"/>
      <point x="330" y="788" type="line"/>
      <point x="280" y="788" type="line"/>
      <point x="280" y="80" type="line"/>
    </contour>
    <contour>
      <point x="304" y="692" type="curve" smooth="yes"/>
      <point x="85" y="692"/>
      <point x="47" y="397"/>
      <point x="37" y="0" type="curve"/>
      <point x="129" y="0" type="line"/>
      <point x="139" y="249" type="line" smooth="yes"/>
      <point x="146" y="408"/>
      <point x="172" y="601"/>
      <point x="304" y="601" type="curve" smooth="yes"/>
      <point x="436" y="601"/>
      <point x="463" y="408"/>
      <point x="471" y="249" type="curve" smooth="yes"/>
      <point x="481" y="0" type="line"/>
      <point x="572" y="0" type="line"/>
      <point x="562" y="397"/>
      <point x="523" y="692"/>
    </contour>
  </outline>
</glyph>
<glyph name="numero" format="1">
  <advance width="1120"/>
  <unicode hex="2116"/>
  <note>
    GF Latin Plus glyph
  </note>
  <outline>
    <contour>
      <point x="84" y="0" type="line"/>
      <point x="84" y="614" type="line" smooth="yes"/>
      <point x="84" y="698"/>
      <point x="136" y="742"/>
      <point x="206" y="742" type="curve" smooth="yes"/>
      <point x="279" y="742"/>
      <point x="318" y="710"/>
      <point x="341" y="641" type="curve" smooth="yes"/>
      <point x="518" y="121" type="line" smooth="yes"/>
      <point x="525" y="103"/>
      <point x="539" y="93"/>
      <point x="553" y="93" type="curve" smooth="yes"/>
      <point x="576" y="93"/>
      <point x="589" y="110"/>
      <point x="589" y="137" type="curve" smooth="yes"/>
      <point x="589" y="539" type="line" smooth="yes"/>
      <point x="589" y="704"/>
      <point x="681" y="750"/>
      <point x="793" y="750" type="curve" smooth="yes"/>
      <point x="949" y="750" type="line" smooth="yes"/>
      <point x="1047" y="750"/>
      <point x="1109" y="690"/>
      <point x="1109" y="550" type="curve" smooth="yes"/>
      <point x="1109" y="435"/>
      <point x="1060" y="374"/>
      <point x="958" y="374" type="curve" smooth="yes"/>
      <point x="927" y="374" type="line" smooth="yes"/>
      <point x="827" y="374"/>
      <point x="778" y="424"/>
      <point x="778" y="595" type="curve"/>
      <point x="854" y="595" type="line"/>
      <point x="854" y="480"/>
      <point x="881" y="445"/>
      <point x="931" y="445" type="curve" smooth="yes"/>
      <point x="954" y="445" type="line" smooth="yes"/>
      <point x="1009" y="445"/>
      <point x="1033" y="479"/>
      <point x="1033" y="550" type="curve" smooth="yes"/>
      <point x="1033" y="642"/>
      <point x="995" y="668"/>
      <point x="946" y="668" type="curve" smooth="yes"/>
      <point x="806" y="668" type="line" smooth="yes"/>
      <point x="740" y="668"/>
      <point x="690" y="644"/>
      <point x="690" y="534" type="curve" smooth="yes"/>
      <point x="690" y="113" type="line" smooth="yes"/>
      <point x="690" y="36"/>
      <point x="635" y="-6"/>
      <point x="568" y="-6" type="curve" smooth="yes"/>
      <point x="500" y="-6"/>
      <point x="456" y="26"/>
      <point x="433" y="96" type="curve" smooth="yes"/>
      <point x="256" y="611" type="line" smooth="yes"/>
      <point x="248" y="634"/>
      <point x="235" y="643"/>
      <point x="218" y="643" type="curve" smooth="yes"/>
      <point x="199" y="643"/>
      <point x="185" y="631"/>
      <point x="185" y="599" type="curve" smooth="yes"/>
      <point x="185" y="0" type="line"/>
    </contour>
  </outline>
</glyph>
<glyph name="trademark" format="1">
  <advance width="709"/>
  <unicode hex="2122"/>
  <note>
    GF Latin Plus glyph
  </note>
  <outline>
    <contour>
      <point x="318" y="383" type="line"/>
      <point x="376" y="383" type="line"/>
      <point x="398" y="634" type="line"/>
      <point x="487" y="383" type="line"/>
      <point x="531" y="383" type="line"/>
      <point x="614" y="634" type="line"/>
      <point x="637" y="383" type="line"/>
      <point x="695" y="383" type="line"/>
      <point x="655" y="732" type="line"/>
      <point x="593" y="732" type="line"/>
      <point x="510" y="472" type="line"/>
      <point x="415" y="732" type="line"/>
      <point x="354" y="732" type="line"/>
    </contour>
    <contour>
      <point x="20" y="682" type="line"/>
      <point x="129" y="682" type="line"/>
      <point x="129" y="383" type="line"/>
      <point x="188" y="383" type="line"/>
      <point x="188" y="682" type="line"/>
      <point x="297" y="682" type="line"/>
      <point x="297" y="732" type="line"/>
      <point x="20" y="732" type="line"/>
    </contour>
  </outline>
</glyph>
<glyph name="summation" format="1">
  <advance width="563"/>
  <unicode hex="2211"/>
  <outline>
    <contour>
      <point x="40" y="-105" type="line"/>
      <point x="40" y="-200" type="line"/>
      <point x="544" y="-200" type="line"/>
      <point x="544" y="-107" type="line"/>
      <point x="162" y="-107" type="line"/>
      <point x="375" y="273" type="line"/>
      <point x="162" y="645" type="line"/>
      <point x="544" y="645" type="line"/>
      <point x="544" y="737" type="line"/>
      <point x="40" y="737" type="line"/>
      <point x="40" y="645" type="line"/>
      <point x="254" y="273" type="line"/>
    </contour>
  </outline>
</glyph>
<glyph name="infinity" format="1">
  <advance width="785"/>
  <unicode hex="221E"/>
  <outline>
    <contour>
      <point x="438" y="342" type="curve"/>
      <point x="468" y="388"/>
      <point x="525" y="445"/>
      <point x="579" y="445" type="curve" smooth="yes"/>
      <point x="651" y="445"/>
      <point x="663" y="403"/>
      <point x="663" y="341" type="curve" smooth="yes"/>
      <point x="663" y="282"/>
      <point x="648" y="238"/>
      <point x="574" y="238" type="curve" smooth="yes"/>
      <point x="519" y="238"/>
      <point x="469" y="289"/>
    </contour>
    <contour>
      <point x="123" y="341" type="curve" smooth="yes"/>
      <point x="123" y="414"/>
      <point x="138" y="445"/>
      <point x="208" y="445" type="curve" smooth="yes"/>
      <point x="256" y="445"/>
      <point x="311" y="392"/>
      <point x="345" y="342" type="curve"/>
      <point x="322" y="305"/>
      <point x="274" y="238"/>
      <point x="207" y="238" type="curve" smooth="yes"/>
      <point x="144" y="238"/>
      <point x="123" y="272"/>
    </contour>
    <contour>
      <point x="50" y="341" type="curve" smooth="yes"/>
      <point x="50" y="249"/>
      <point x="78" y="169"/>
      <point x="202" y="169" type="curve" smooth="yes"/>
      <point x="288" y="169"/>
      <point x="348" y="219"/>
      <point x="390" y="292" type="curve"/>
      <point x="435" y="224"/>
      <point x="503" y="169"/>
      <point x="581" y="169" type="curve" smooth="yes"/>
      <point x="708" y="169"/>
      <point x="736" y="249"/>
      <point x="736" y="341" type="curve" smooth="yes"/>
      <point x="736" y="423"/>
      <point x="719" y="514"/>
      <point x="589" y="514" type="curve" smooth="yes"/>
      <point x="505" y="514"/>
      <point x="426" y="452"/>
      <point x="391" y="392" type="curve"/>
      <point x="349" y="451"/>
      <point x="281" y="514"/>
      <point x="202" y="514" type="curve" smooth="yes"/>
      <point x="67" y="514"/>
      <point x="50" y="428"/>
    </contour>
  </outline>
</glyph>
<glyph name="integral" format="1">
  <advance width="450"/>
  <unicode hex="222B"/>
  <outline>
    <contour>
      <point x="20" y="-126" type="line"/>
      <point x="20" y="-188" type="line"/>
      <point x="39" y="-196"/>
      <point x="80" y="-203"/>
      <point x="116" y="-203" type="curve" smooth="yes"/>
      <point x="229" y="-203"/>
      <point x="275" y="-118"/>
      <point x="275" y="6" type="curve" smooth="yes"/>
      <point x="275" y="603" type="line" smooth="yes"/>
      <point x="275" y="672"/>
      <point x="294" y="722"/>
      <point x="364" y="722" type="curve" smooth="yes"/>
      <point x="430" y="722" type="line"/>
      <point x="430" y="784" type="line"/>
      <point x="413" y="788"/>
      <point x="390" y="799"/>
      <point x="327" y="799" type="curve" smooth="yes"/>
      <point x="218" y="799"/>
      <point x="174" y="720"/>
      <point x="174" y="607" type="curve" smooth="yes"/>
      <point x="174" y="-1" type="line" smooth="yes"/>
      <point x="174" y="-93"/>
      <point x="136" y="-126"/>
      <point x="85" y="-126" type="curve" smooth="yes"/>
    </contour>
  </outline>
</glyph>
<glyph name="approxequal" format="1">
  <advance width="609"/>
  <unicode hex="2248"/>
  <note>
    GF Latin Plus glyph
  </note>
  <outline>
    <contour>
      <point x="80" y="405" type="line"/>
      <point x="110" y="431"/>
      <point x="150" y="445"/>
      <point x="190" y="445" type="curve" smooth="yes"/>
      <point x="263" y="445"/>
      <point x="337" y="405"/>
      <point x="423" y="405" type="curve" smooth="yes"/>
      <point x="480" y="405"/>
      <point x="509" y="427"/>
      <point x="528" y="445" type="curve"/>
      <point x="528" y="527" type="line"/>
      <point x="507" y="507"/>
      <point x="473" y="487"/>
      <point x="418" y="487" type="curve" smooth="yes"/>
      <point x="333" y="487"/>
      <point x="268" y="527"/>
      <point x="186" y="527" type="curve" smooth="yes"/>
      <point x="146" y="527"/>
      <point x="108" y="512"/>
      <point x="80" y="487" type="curve"/>
    </contour>
    <contour>
      <point x="80" y="165" type="line"/>
      <point x="110" y="191"/>
      <point x="150" y="205"/>
      <point x="190" y="205" type="curve" smooth="yes"/>
      <point x="263" y="205"/>
      <point x="337" y="165"/>
      <point x="423" y="165" type="curve" smooth="yes"/>
      <point x="480" y="165"/>
      <point x="509" y="187"/>
      <point x="528" y="205" type="curve"/>
      <point x="528" y="287" type="line"/>
      <point x="507" y="267"/>
      <point x="473" y="247"/>
      <point x="418" y="247" type="curve" smooth="yes"/>
      <point x="333" y="247"/>
      <point x="268" y="287"/>
      <point x="186" y="287" type="curve" smooth="yes"/>
      <point x="146" y="287"/>
      <point x="108" y="272"/>
      <point x="80" y="247" type="curve"/>
    </contour>
  </outline>
</glyph>
<glyph name="ffl" format="1">
  <advance width="1062"/>
  <unicode hex="FB04"/>
  <outline>
    <contour>
      <point x="22" y="453" type="line"/>
      <point x="102" y="453" type="line"/>
      <point x="102" y="0" type="line"/>
      <point x="202" y="0" type="line"/>
      <point x="202" y="453" type="line"/>
      <point x="525" y="453" type="line"/>
      <point x="525" y="535" type="line"/>
      <point x="202" y="535" type="line"/>
      <point x="202" y="593" type="line" smooth="yes"/>
      <point x="202" y="655"/>
      <point x="217" y="686"/>
      <point x="281" y="686" type="curve" smooth="yes"/>
      <point x="368" y="686" type="line"/>
      <point x="368" y="758" type="line"/>
      <point x="343" y="763"/>
      <point x="309" y="769"/>
      <point x="263" y="769" type="curve" smooth="yes"/>
      <point x="142" y="769"/>
      <point x="102" y="708"/>
      <point x="102" y="588" type="curve" smooth="yes"/>
      <point x="102" y="535" type="line"/>
      <point x="22" y="518" type="line"/>
    </contour>
    <component base="fl" xOffset="375"/>
  </outline>
</glyph>
<glyph name="A.smcp" format="1">
  <advance width="572"/>
  <outline>
    <contour>
      <point x="194" y="208" type="line"/>
      <point x="285" y="489" type="line"/>
      <point x="375" y="208" type="line"/>
    </contour>
    <contour>
      <point x="32" y="0" type="line"/>
      <point x="130" y="0" type="line"/>
      <point x="176" y="135" type="line"/>
      <point x="394" y="135" type="line"/>
      <point x="440" y="0" type="line"/>
      <point x="540" y="0" type="line"/>
      <point x="355" y="560" type="line"/>
      <point x="216" y="560" type="line"/>
    </contour>
    <contour>
      <point x="285" y="650" type="move" name="top"/>
    </contour>
    <contour>
      <point x="530" y="0" type="move" name="ogonek"/>
    </contour>
    <contour>
      <point x="285" y="-146" type="move" name="bottom"/>
    </contour>
  </outline>
</glyph>
<glyph name="AE.smcp" format="1">
  <advance width="807"/>
  <outline>
    <contour>
      <point x="259" y="211" type="line"/>
      <point x="393" y="432" type="line"/>
      <point x="393" y="211" type="line"/>
    </contour>
    <contour>
      <point x="32" y="0" type="line"/>
      <point x="125" y="0" type="line"/>
      <point x="212" y="135" type="line"/>
      <point x="393" y="135" type="line"/>
      <point x="394" y="88" type="line" smooth="yes"/>
      <point x="399" y="17"/>
      <point x="446" y="-4"/>
      <point x="530" y="-3" type="curve" smooth="yes"/>
      <point x="584" y="-3"/>
      <point x="717" y="2"/>
      <point x="755" y="7" type="curve"/>
      <point x="755" y="81" type="line"/>
      <point x="548" y="81" type="line" smooth="yes"/>
      <point x="508" y="81"/>
      <point x="480" y="92"/>
      <point x="480" y="138" type="curve" smooth="yes"/>
      <point x="480" y="238" type="line"/>
      <point x="718" y="243" type="line"/>
      <point x="718" y="314" type="line"/>
      <point x="480" y="320" type="line"/>
      <point x="480" y="431" type="line" smooth="yes"/>
      <point x="480" y="461"/>
      <point x="493" y="476"/>
      <point x="532" y="476" type="curve" smooth="yes"/>
      <point x="755" y="476" type="line"/>
      <point x="755" y="551" type="line"/>
      <point x="725" y="554"/>
      <point x="573" y="560"/>
      <point x="517" y="560" type="curve" smooth="yes"/>
      <point x="406" y="561"/>
      <point x="350" y="536"/>
      <point x="300" y="449" type="curve" smooth="yes"/>
    </contour>
    <contour>
      <point x="439" y="656" type="move" name="top"/>
    </contour>
  </outline>
</glyph>
<glyph name="B.smcp" format="1">
  <advance width="520"/>
  <outline>
    <contour>
      <point x="164" y="320" type="line"/>
      <point x="164" y="478" type="line"/>
      <point x="293" y="478" type="line" smooth="yes"/>
      <point x="336" y="478"/>
      <point x="368" y="459"/>
      <point x="366" y="399" type="curve" smooth="yes"/>
      <point x="366" y="352"/>
      <point x="338" y="320"/>
      <point x="296" y="320" type="curve" smooth="yes"/>
    </contour>
    <contour>
      <point x="164" y="82" type="line"/>
      <point x="164" y="252" type="line"/>
      <point x="300" y="252" type="line" smooth="yes"/>
      <point x="349" y="252"/>
      <point x="385" y="222"/>
      <point x="385" y="170" type="curve" smooth="yes"/>
      <point x="385" y="103"/>
      <point x="351" y="82"/>
      <point x="300" y="82" type="curve" smooth="yes"/>
    </contour>
    <contour>
      <point x="68" y="0" type="line"/>
      <point x="303" y="0" type="line" smooth="yes"/>
      <point x="413" y="0"/>
      <point x="476" y="38"/>
      <point x="476" y="155" type="curve" smooth="yes"/>
      <point x="476" y="241"/>
      <point x="420" y="280"/>
      <point x="373" y="291" type="curve"/>
      <point x="422" y="303"/>
      <point x="456" y="347"/>
      <point x="456" y="415" type="curve" smooth="yes"/>
      <point x="456" y="510"/>
      <point x="405" y="560"/>
      <point x="293" y="560" type="curve" smooth="yes"/>
      <point x="68" y="560" type="line"/>
    </contour>
    <contour>
      <point x="248" y="650" type="move" name="top"/>
    </contour>
  </outline>
</glyph>
<glyph name="E.smcp" format="1">
  <advance width="501"/>
  <outline>
    <contour>
      <point x="68" y="109" type="line" smooth="yes"/>
      <point x="68" y="6"/>
      <point x="152" y="-4"/>
      <point x="204" y="-3" type="curve" smooth="yes"/>
      <point x="250" y="-3"/>
      <point x="409" y="1"/>
      <point x="449" y="6" type="curve"/>
      <point x="449" y="81" type="line"/>
      <point x="222" y="81" type="line" smooth="yes"/>
      <point x="193" y="81"/>
      <point x="164" y="91"/>
      <point x="164" y="138" type="curve" smooth="yes"/>
      <point x="164" y="238" type="line"/>
      <point x="412" y="243" type="line"/>
      <point x="412" y="314" type="line"/>
      <point x="164" y="320" type="line"/>
      <point x="164" y="422" type="line" smooth="yes"/>
      <point x="164" y="459"/>
      <point x="186" y="476"/>
      <point x="223" y="476" type="curve" smooth="yes"/>
      <point x="449" y="476" type="line"/>
      <point x="449" y="551" type="line"/>
      <point x="417" y="555"/>
      <point x="272" y="560"/>
      <point x="196" y="560" type="curve" smooth="yes"/>
      <point x="135" y="561"/>
      <point x="68" y="533"/>
      <point x="68" y="442" type="curve" smooth="yes"/>
    </contour>
    <contour>
      <point x="263" y="650" type="move" name="top"/>
    </contour>
    <contour>
      <point x="439" y="6" type="move" name="ogonek"/>
    </contour>
    <contour>
      <point x="275" y="-150" type="move" name="bottom"/>
    </contour>
  </outline>
</glyph>
<glyph name="Eth.smcp" format="1">
  <advance width="568"/>
  <outline>
    <contour>
      <point x="23" y="253" type="line"/>
      <point x="276" y="253" type="line"/>
      <point x="276" y="312" type="line"/>
      <point x="23" y="312" type="line"/>
    </contour>
    <component base="D.smcp"/>
  </outline>
</glyph>
<glyph name="F.smcp" format="1">
  <advance width="488"/>
  <outline>
    <contour>
      <point x="68" y="0" type="line"/>
      <point x="164" y="0" type="line"/>
      <point x="164" y="225" type="line"/>
      <point x="412" y="230" type="line"/>
      <point x="412" y="298" type="line"/>
      <point x="164" y="303" type="line"/>
      <point x="164" y="427" type="line" smooth="yes"/>
      <point x="164" y="461"/>
      <point x="184" y="481"/>
      <point x="221" y="481" type="curve" smooth="yes"/>
      <point x="449" y="481" type="line"/>
      <point x="449" y="551" type="line"/>
      <point x="396" y="558"/>
      <point x="224" y="560"/>
      <point x="196" y="560" type="curve" smooth="yes"/>
      <point x="135" y="561"/>
      <point x="68" y="533"/>
      <point x="68" y="442" type="curve" smooth="yes"/>
    </contour>
    <contour>
      <point x="263" y="650" type="move" name="top"/>
    </contour>
  </outline>
</glyph>
<glyph name="G.smcp" format="1">
  <advance width="555"/>
  <outline>
    <contour>
      <point x="53" y="281" type="curve" smooth="yes"/>
      <point x="53" y="99"/>
      <point x="89" y="-4"/>
      <point x="239" y="-4" type="curve" smooth="yes"/>
      <point x="307" y="-3"/>
      <point x="368" y="23"/>
      <point x="402" y="41" type="curve"/>
      <point x="415" y="0" type="line"/>
      <point x="487" y="0" type="line"/>
      <point x="487" y="309" type="line"/>
      <point x="466" y="310"/>
      <point x="440" y="311"/>
      <point x="408" y="311" type="curve" smooth="yes"/>
      <point x="360" y="311"/>
      <point x="305" y="308"/>
      <point x="273" y="304" type="curve"/>
      <point x="273" y="234" type="line"/>
      <point x="404" y="234" type="line"/>
      <point x="404" y="101" type="line"/>
      <point x="373" y="91"/>
      <point x="321" y="80"/>
      <point x="269" y="80" type="curve" smooth="yes"/>
      <point x="176" y="80"/>
      <point x="149" y="121"/>
      <point x="149" y="280" type="curve" smooth="yes"/>
      <point x="149" y="431"/>
      <point x="173" y="484"/>
      <point x="281" y="484" type="curve" smooth="yes"/>
      <point x="354" y="484"/>
      <point x="427" y="477"/>
      <point x="461" y="473" type="curve"/>
      <point x="461" y="543" type="line"/>
      <point x="402" y="556"/>
      <point x="338" y="565"/>
      <point x="265" y="565" type="curve" smooth="yes"/>
      <point x="94" y="565"/>
      <point x="53" y="464"/>
    </contour>
    <contour>
      <point x="275" y="650" type="move" name="top"/>
    </contour>
    <contour>
      <point x="291" y="-150" type="move" name="bottom"/>
    </contour>
  </outline>
</glyph>
<glyph name="Germandbls.smcp" format="1">
  <advance width="587"/>
  <outline>
    <contour>
      <point x="339" y="287" type="line"/>
      <point x="500" y="483" type="line"/>
      <point x="500" y="553" type="line"/>
      <point x="403" y="481" type="line"/>
      <point x="260" y="307" type="line"/>
    </contour>
    <contour>
      <point x="260" y="234" type="line"/>
      <point x="357" y="234" type="line" smooth="yes"/>
      <point x="417" y="234"/>
      <point x="438" y="213"/>
      <point x="438" y="171" type="curve" smooth="yes"/>
      <point x="438" y="142" type="line" smooth="yes"/>
      <point x="438" y="87"/>
      <point x="396" y="77"/>
      <point x="336" y="77" type="curve" smooth="yes"/>
      <point x="313" y="77"/>
      <point x="236" y="78"/>
      <point x="226" y="79" type="curve"/>
      <point x="226" y="8" type="line"/>
      <point x="257" y="1"/>
      <point x="313" y="-5"/>
      <point x="353" y="-5" type="curve" smooth="yes"/>
      <point x="456" y="-5"/>
      <point x="534" y="22"/>
      <point x="534" y="140" type="curve" smooth="yes"/>
      <point x="534" y="177" type="line" smooth="yes"/>
      <point x="534" y="263"/>
      <point x="479" y="307"/>
      <point x="383" y="307" type="curve" smooth="yes"/>
      <point x="260" y="307" type="line"/>
    </contour>
    <contour>
      <point x="68" y="0" type="line"/>
      <point x="164" y="0" type="line"/>
      <point x="164" y="416" type="line" smooth="yes"/>
      <point x="164" y="457"/>
      <point x="188" y="478"/>
      <point x="233" y="478" type="curve" smooth="yes"/>
      <point x="457" y="478" type="line"/>
      <point x="500" y="553" type="line"/>
      <point x="450" y="557"/>
      <point x="304" y="560"/>
      <point x="229" y="560" type="curve" smooth="yes"/>
      <point x="143" y="561"/>
      <point x="68" y="522"/>
      <point x="68" y="415" type="curve" smooth="yes"/>
    </contour>
  </outline>
</glyph>
<glyph name="L.smcp" format="1">
  <advance width="453"/>
  <outline>
    <contour>
      <point x="68" y="120" type="line" smooth="yes"/>
      <point x="68" y="31"/>
      <point x="115" y="0"/>
      <point x="195" y="0" type="curve" smooth="yes"/>
      <point x="422" y="0" type="line"/>
      <point x="422" y="82" type="line"/>
      <point x="224" y="82" type="line" smooth="yes"/>
      <point x="190" y="82"/>
      <point x="164" y="94"/>
      <point x="164" y="138" type="curve" smooth="yes"/>
      <point x="164" y="560" type="line"/>
      <point x="68" y="560" type="line"/>
    </contour>
    <contour>
      <point x="116" y="650" type="move" name="top"/>
    </contour>
    <contour>
      <point x="184" y="490" type="move" name="altcaron"/>
    </contour>
    <contour>
      <point x="285" y="350" type="move" name="dot"/>
    </contour>
    <contour>
      <point x="239" y="-150" type="move" name="bottom"/>
    </contour>
  </outline>
</glyph>
<glyph name="M.salt" format="1">
  <advance width="853"/>
  <outline>
    <contour>
      <point x="53" y="0" type="line"/>
      <point x="150" y="0" type="line"/>
      <point x="190" y="608" type="line" smooth="yes"/>
      <point x="192" y="635"/>
      <point x="206" y="649"/>
      <point x="222" y="649" type="curve" smooth="yes"/>
      <point x="235" y="649"/>
      <point x="247" y="639"/>
      <point x="253" y="616" type="curve" smooth="yes"/>
      <point x="338" y="259" type="line" smooth="yes"/>
      <point x="350" y="198"/>
      <point x="389" y="175"/>
      <point x="432" y="175" type="curve" smooth="yes"/>
      <point x="476" y="175"/>
      <point x="516" y="198"/>
      <point x="527" y="259" type="curve" smooth="yes"/>
      <point x="606" y="616" type="line" smooth="yes"/>
      <point x="612" y="639"/>
      <point x="622" y="650"/>
      <point x="632" y="650" type="curve" smooth="yes"/>
      <point x="645" y="650"/>
      <point x="655" y="636"/>
      <point x="658" y="610" type="curve" smooth="yes"/>
      <point x="700" y="0" type="line"/>
      <point x="797" y="0" type="line"/>
      <point x="752" y="627" type="line" smooth="yes"/>
      <point x="746" y="716"/>
      <point x="699" y="748"/>
      <point x="642" y="748" type="curve" smooth="yes"/>
      <point x="589" y="748"/>
      <point x="546" y="724"/>
      <point x="533" y="642" type="curve" smooth="yes"/>
      <point x="459" y="308" type="line" smooth="yes"/>
      <point x="456" y="289"/>
      <point x="446" y="281"/>
      <point x="433" y="281" type="curve" smooth="yes"/>
      <point x="421" y="281"/>
      <point x="412" y="288"/>
      <point x="407" y="308" type="curve" smooth="yes"/>
      <point x="325" y="641" type="line" smooth="yes"/>
      <point x="311" y="722"/>
      <point x="270" y="748"/>
      <point x="213" y="748" type="curve" smooth="yes"/>
      <point x="154" y="748"/>
      <point x="100" y="715"/>
      <point x="95" y="625" type="curve" smooth="yes"/>
    </contour>
    <contour>
      <point x="420" y="810" type="move" name="top"/>
    </contour>
    <contour>
      <point x="420" y="-150" type="move" name="bottom"/>
    </contour>
  </outline>
</glyph>
<glyph name="M.smcp" format="1">
  <advance width="718"/>
  <outline>
    <contour>
      <point x="52" y="0" type="line"/>
      <point x="120" y="560" type="line"/>
      <point x="214" y="560" type="line"/>
      <point x="359" y="108" type="line"/>
      <point x="503" y="560" type="line"/>
      <point x="597" y="560" type="line"/>
      <point x="666" y="0" type="line"/>
      <point x="574" y="0" type="line"/>
      <point x="519" y="446" type="line"/>
      <point x="534" y="444" type="line"/>
      <point x="403" y="0" type="line"/>
      <point x="314" y="0" type="line"/>
      <point x="181" y="443" type="line"/>
      <point x="198" y="444" type="line"/>
      <point x="144" y="0" type="line"/>
    </contour>
    <contour>
      <point x="354" y="650" type="move" name="top"/>
    </contour>
    <contour>
      <point x="354" y="-150" type="move" name="bottom"/>
    </contour>
  </outline>
</glyph>
<glyph name="N.salt" format="1">
  <advance width="752"/>
  <outline>
    <contour>
      <point x="84" y="0" type="line"/>
      <point x="185" y="0" type="line"/>
      <point x="185" y="600" type="line" smooth="yes"/>
      <point x="185" y="635"/>
      <point x="200" y="644"/>
      <point x="221" y="644" type="curve" smooth="yes"/>
      <point x="237" y="644"/>
      <point x="248" y="633"/>
      <point x="255" y="615" type="curve" smooth="yes"/>
      <point x="432" y="97" type="line" smooth="yes"/>
      <point x="455" y="28"/>
      <point x="489" y="-6"/>
      <point x="561" y="-6" type="curve" smooth="yes"/>
      <point x="635" y="-6"/>
      <point x="690" y="25"/>
      <point x="690" y="122" type="curve" smooth="yes"/>
      <point x="690" y="737" type="line"/>
      <point x="589" y="737" type="line"/>
      <point x="589" y="133" type="line" smooth="yes"/>
      <point x="589" y="101"/>
      <point x="573" y="93"/>
      <point x="555" y="93" type="curve" smooth="yes"/>
      <point x="535" y="93"/>
      <point x="525" y="102"/>
      <point x="518" y="122" type="curve" smooth="yes"/>
      <point x="342" y="636" type="line" smooth="yes"/>
      <point x="322" y="701"/>
      <point x="289" y="744"/>
      <point x="212" y="744" type="curve" smooth="yes"/>
      <point x="139" y="744"/>
      <point x="84" y="711"/>
      <point x="84" y="610" type="curve" smooth="yes"/>
    </contour>
    <contour>
      <point x="399" y="810" type="move" name="top"/>
    </contour>
    <contour>
      <point x="390" y="-150" type="move" name="bottom"/>
    </contour>
  </outline>
</glyph>
<glyph name="N.salt.smcp" format="1">
  <advance width="641"/>
  <outline>
    <contour>
      <point x="75" y="0" type="line"/>
      <point x="171" y="0" type="line"/>
      <point x="171" y="446" type="line" smooth="yes"/>
      <point x="171" y="469"/>
      <point x="182" y="476"/>
      <point x="198" y="476" type="curve" smooth="yes"/>
      <point x="210" y="476"/>
      <point x="219" y="469"/>
      <point x="224" y="457" type="curve" smooth="yes"/>
      <point x="358" y="83" type="line" smooth="yes"/>
      <point x="377" y="24"/>
      <point x="412" y="-5"/>
      <point x="476" y="-5" type="curve" smooth="yes"/>
      <point x="541" y="-5"/>
      <point x="589" y="20"/>
      <point x="589" y="101" type="curve" smooth="yes"/>
      <point x="589" y="560" type="line"/>
      <point x="493" y="560" type="line"/>
      <point x="493" y="112" type="line" smooth="yes"/>
      <point x="493" y="91"/>
      <point x="481" y="85"/>
      <point x="468" y="85" type="curve" smooth="yes"/>
      <point x="453" y="85"/>
      <point x="444" y="91"/>
      <point x="439" y="104" type="curve" smooth="yes"/>
      <point x="308" y="475" type="line" smooth="yes"/>
      <point x="290" y="528"/>
      <point x="257" y="565"/>
      <point x="188" y="565" type="curve" smooth="yes"/>
      <point x="122" y="565"/>
      <point x="75" y="538"/>
      <point x="75" y="455" type="curve" smooth="yes"/>
    </contour>
    <contour>
      <point x="331" y="650" type="move" name="top"/>
    </contour>
    <contour>
      <point x="331" y="-150" type="move" name="bottom"/>
    </contour>
  </outline>
</glyph>
<glyph name="Omega" format="1">
  <advance width="774"/>
  <outline>
    <contour>
      <point x="63" y="397" type="curve" smooth="yes"/>
      <point x="63" y="284"/>
      <point x="105" y="174"/>
      <point x="218" y="89" type="curve"/>
      <point x="53" y="80" type="line"/>
      <point x="53" y="0" type="line"/>
      <point x="318" y="0" type="line"/>
      <point x="318" y="88" type="line"/>
      <point x="208" y="181"/>
      <point x="163" y="263"/>
      <point x="163" y="387" type="curve" smooth="yes"/>
      <point x="163" y="533"/>
      <point x="220" y="649"/>
      <point x="387" y="649" type="curve" smooth="yes"/>
      <point x="553" y="649"/>
      <point x="608" y="530"/>
      <point x="608" y="385" type="curve" smooth="yes"/>
      <point x="608" y="277"/>
      <point x="564" y="169"/>
      <point x="459" y="88" type="curve"/>
      <point x="459" y="0" type="line"/>
      <point x="724" y="0" type="line"/>
      <point x="724" y="79" type="line"/>
      <point x="559" y="88" type="line"/>
      <point x="655" y="167"/>
      <point x="709" y="275"/>
      <point x="709" y="393" type="curve" smooth="yes"/>
      <point x="709" y="591"/>
      <point x="622" y="739"/>
      <point x="387" y="739" type="curve" smooth="yes"/>
      <point x="141" y="739"/>
      <point x="63" y="568"/>
    </contour>
  </outline>
</glyph>
<glyph name="P.smcp" format="1">
  <advance width="518"/>
  <outline>
    <contour>
      <point x="164" y="264" type="line"/>
      <point x="164" y="478" type="line"/>
      <point x="299" y="478" type="line" smooth="yes"/>
      <point x="344" y="478"/>
      <point x="380" y="453"/>
      <point x="380" y="373" type="curve" smooth="yes"/>
      <point x="380" y="291"/>
      <point x="344" y="264"/>
      <point x="295" y="264" type="curve" smooth="yes"/>
    </contour>
    <contour>
      <point x="68" y="0" type="line"/>
      <point x="164" y="0" type="line"/>
      <point x="164" y="192" type="line"/>
      <point x="193" y="189"/>
      <point x="278" y="182"/>
      <point x="314" y="182" type="curve" smooth="yes"/>
      <point x="384" y="182"/>
      <point x="476" y="208"/>
      <point x="476" y="374" type="curve" smooth="yes"/>
      <point x="476" y="537"/>
      <point x="386" y="560"/>
      <point x="312" y="560" type="curve" smooth="yes"/>
      <point x="68" y="560" type="line"/>
    </contour>
    <contour>
      <point x="252" y="650" type="move" name="top"/>
    </contour>
  </outline>
</glyph>
<glyph name="Q.smcp" format="1">
  <advance width="582"/>
  <outline>
    <contour>
      <point x="277" y="-27" type="line"/>
      <point x="283" y="-105"/>
      <point x="353" y="-141"/>
      <point x="423" y="-141" type="curve" smooth="yes"/>
      <point x="437" y="-141"/>
      <point x="451" y="-138"/>
      <point x="466" y="-135" type="curve"/>
      <point x="466" y="-67" type="line"/>
      <point x="451" y="-71"/>
      <point x="435" y="-75"/>
      <point x="419" y="-75" type="curve" smooth="yes"/>
      <point x="387" y="-75"/>
      <point x="352" y="-61"/>
      <point x="343" y="-27" type="curve"/>
    </contour>
    <component base="O.smcp"/>
  </outline>
</glyph>
<glyph name="R.smcp" format="1">
  <advance width="529"/>
  <outline>
    <contour>
      <point x="68" y="0" type="line"/>
      <point x="164" y="0" type="line"/>
      <point x="164" y="205" type="line"/>
      <point x="199" y="203"/>
      <point x="254" y="202"/>
      <point x="283" y="202" type="curve"/>
      <point x="398" y="0" type="line"/>
      <point x="493" y="0" type="line"/>
      <point x="372" y="217" type="line"/>
      <point x="423" y="231"/>
      <point x="478" y="270"/>
      <point x="478" y="383" type="curve" smooth="yes"/>
      <point x="478" y="514"/>
      <point x="402" y="560"/>
      <point x="305" y="560" type="curve" smooth="yes"/>
      <point x="68" y="560" type="line"/>
    </contour>
    <contour>
      <point x="164" y="275" type="line"/>
      <point x="164" y="480" type="line"/>
      <point x="301" y="480" type="line" smooth="yes"/>
      <point x="354" y="480"/>
      <point x="385" y="445"/>
      <point x="385" y="374" type="curve" smooth="yes"/>
      <point x="385" y="301"/>
      <point x="350" y="275"/>
      <point x="295" y="275" type="curve" smooth="yes"/>
    </contour>
    <contour>
      <point x="252" y="650" type="move" name="top"/>
    </contour>
    <contour>
      <point x="252" y="-150" type="move" name="bottom"/>
    </contour>
  </outline>
</glyph>
<glyph name="S.smcp" format="1">
  <advance width="494"/>
  <outline>
    <contour>
      <point x="53" y="383" type="line" smooth="yes"/>
      <point x="53" y="275"/>
      <point x="114" y="236"/>
      <point x="221" y="236" type="curve" smooth="yes"/>
      <point x="278" y="236" type="line" smooth="yes"/>
      <point x="330" y="236"/>
      <point x="349" y="213"/>
      <point x="349" y="173" type="curve" smooth="yes"/>
      <point x="349" y="143" type="line" smooth="yes"/>
      <point x="349" y="87"/>
      <point x="304" y="77"/>
      <point x="238" y="77" type="curve" smooth="yes"/>
      <point x="176" y="77"/>
      <point x="103" y="78"/>
      <point x="59" y="83" type="curve"/>
      <point x="59" y="12" type="line"/>
      <point x="105" y="2"/>
      <point x="187" y="-5"/>
      <point x="243" y="-5" type="curve" smooth="yes"/>
      <point x="357" y="-5"/>
      <point x="441" y="24"/>
      <point x="441" y="147" type="curve" smooth="yes"/>
      <point x="441" y="184" type="line" smooth="yes"/>
      <point x="441" y="264"/>
      <point x="392" y="322"/>
      <point x="290" y="322" type="curve" smooth="yes"/>
      <point x="226" y="322" type="line" smooth="yes"/>
      <point x="174" y="322"/>
      <point x="145" y="338"/>
      <point x="145" y="387" type="curve" smooth="yes"/>
      <point x="145" y="408" type="line" smooth="yes"/>
      <point x="145" y="468"/>
      <point x="185" y="483"/>
      <point x="248" y="483" type="curve" smooth="yes"/>
      <point x="300" y="483"/>
      <point x="365" y="480"/>
      <point x="413" y="476" type="curve"/>
      <point x="413" y="547" type="line"/>
      <point x="371" y="555"/>
      <point x="296" y="565"/>
      <point x="237" y="565" type="curve" smooth="yes"/>
      <point x="119" y="565"/>
      <point x="53" y="520"/>
      <point x="53" y="412" type="curve" smooth="yes"/>
    </contour>
    <contour>
      <point x="243" y="650" type="move" name="top"/>
    </contour>
    <contour>
      <point x="243" y="-150" type="move" name="bottom"/>
    </contour>
  </outline>
</glyph>
<glyph name="Schwa.smcp" format="1">
  <advance width="522"/>
  <outline>
    <contour>
      <point x="256" y="-5" type="curve" smooth="yes"/>
      <point x="381" y="-5"/>
      <point x="469" y="49"/>
      <point x="469" y="281" type="curve" smooth="yes"/>
      <point x="469" y="520"/>
      <point x="383" y="565"/>
      <point x="231" y="565" type="curve" smooth="yes"/>
      <point x="159" y="565"/>
      <point x="111" y="554"/>
      <point x="76" y="545" type="curve"/>
      <point x="76" y="475" type="line"/>
      <point x="100" y="478"/>
      <point x="140" y="484"/>
      <point x="206" y="484" type="curve" smooth="yes"/>
      <point x="325" y="484"/>
      <point x="370" y="451"/>
      <point x="372" y="310" type="curve"/>
      <point x="51" y="310" type="line"/>
      <point x="51" y="250" type="line" smooth="yes"/>
      <point x="51" y="64"/>
      <point x="124" y="-5"/>
    </contour>
    <contour>
      <point x="255" y="77" type="curve" smooth="yes"/>
      <point x="173" y="77"/>
      <point x="148" y="126"/>
      <point x="148" y="237" type="curve"/>
      <point x="371" y="237" type="line"/>
      <point x="368" y="108"/>
      <point x="326" y="77"/>
    </contour>
  </outline>
</glyph>
<glyph name="T.smcp" format="1">
  <advance width="489"/>
  <outline>
    <contour>
      <point x="25" y="478" type="line"/>
      <point x="197" y="478" type="line"/>
      <point x="197" y="0" type="line"/>
      <point x="293" y="0" type="line"/>
      <point x="293" y="478" type="line"/>
      <point x="464" y="478" type="line"/>
      <point x="464" y="560" type="line"/>
      <point x="25" y="560" type="line"/>
    </contour>
    <contour>
      <point x="245" y="650" type="move" name="top"/>
    </contour>
    <contour>
      <point x="245" y="-150" type="move" name="bottom"/>
    </contour>
  </outline>
</glyph>
<glyph name="Thorn.smcp" format="1">
  <advance width="486"/>
  <outline>
    <contour>
      <point x="68" y="0" type="line"/>
      <point x="164" y="0" type="line"/>
      <point x="164" y="118" type="line"/>
      <point x="187" y="116"/>
      <point x="254" y="107"/>
      <point x="283" y="107" type="curve" smooth="yes"/>
      <point x="353" y="107"/>
      <point x="445" y="133"/>
      <point x="445" y="289" type="curve" smooth="yes"/>
      <point x="445" y="443"/>
      <point x="355" y="464"/>
      <point x="281" y="464" type="curve" smooth="yes"/>
      <point x="164" y="464" type="line"/>
      <point x="164" y="560" type="line"/>
      <point x="68" y="560" type="line"/>
    </contour>
    <contour>
      <point x="164" y="189" type="line"/>
      <point x="164" y="383" type="line"/>
      <point x="272" y="383" type="line" smooth="yes"/>
      <point x="316" y="383"/>
      <point x="349" y="360"/>
      <point x="349" y="288" type="curve" smooth="yes"/>
      <point x="349" y="214"/>
      <point x="316" y="189"/>
      <point x="268" y="189" type="curve" smooth="yes"/>
    </contour>
  </outline>
</glyph>
<glyph name="Uhorn.smcp" format="1">
  <advance width="572"/>
  <outline>
    <contour>
      <point x="430" y="504" type="line"/>
      <point x="482" y="504" type="line" smooth="yes"/>
      <point x="555" y="504"/>
      <point x="613" y="553"/>
      <point x="613" y="672" type="curve"/>
      <point x="542" y="672" type="line"/>
      <point x="542" y="588"/>
      <point x="512" y="560"/>
      <point x="465" y="560" type="curve" smooth="yes"/>
      <point x="430" y="560" type="line"/>
    </contour>
    <component base="U.smcp"/>
  </outline>
</glyph>
<glyph name="W.salt.smcp" format="1">
  <advance width="848"/>
  <outline>
    <contour>
      <point x="32" y="560" type="line"/>
      <point x="208" y="0" type="line"/>
      <point x="334" y="0" type="line"/>
      <point x="425" y="251" type="line"/>
      <point x="519" y="0" type="line"/>
      <point x="644" y="0" type="line"/>
      <point x="817" y="560" type="line"/>
      <point x="719" y="560" type="line"/>
      <point x="576" y="102" type="line"/>
      <point x="471" y="387" type="line"/>
      <point x="522" y="560" type="line"/>
      <point x="422" y="560" type="line"/>
      <point x="279" y="102" type="line"/>
      <point x="131" y="560" type="line"/>
    </contour>
    <contour>
      <point x="449" y="650" type="move" name="top"/>
    </contour>
    <contour>
      <point x="429" y="-150" type="move" name="bottom"/>
    </contour>
  </outline>
</glyph>
<glyph name="W.smcp" format="1">
  <advance width="821"/>
  <outline>
    <contour>
      <point x="32" y="560" type="line"/>
      <point x="178" y="0" type="line"/>
      <point x="277" y="0" type="line"/>
      <point x="411" y="424" type="line"/>
      <point x="544" y="0" type="line"/>
      <point x="643" y="0" type="line"/>
      <point x="790" y="560" type="line"/>
      <point x="686" y="560" type="line"/>
      <point x="582" y="122" type="line"/>
      <point x="456" y="560" type="line"/>
      <point x="366" y="560" type="line"/>
      <point x="239" y="122" type="line"/>
      <point x="135" y="560" type="line"/>
    </contour>
    <contour>
      <point x="410" y="650" type="move" name="top"/>
    </contour>
  </outline>
</glyph>
<glyph name="X.salt" format="1">
  <advance width="651"/>
  <outline>
    <contour>
      <point x="31" y="0" type="line"/>
      <point x="140" y="0" type="line"/>
      <point x="278" y="250" type="line" smooth="yes"/>
      <point x="298" y="287"/>
      <point x="309" y="328"/>
      <point x="309" y="370" type="curve" smooth="yes"/>
      <point x="309" y="415"/>
      <point x="292" y="459"/>
      <point x="271" y="496" type="curve" smooth="yes"/>
      <point x="134" y="737" type="line"/>
      <point x="30" y="737" type="line"/>
      <point x="175" y="470" type="line" smooth="yes"/>
      <point x="194" y="436"/>
      <point x="208" y="403"/>
      <point x="208" y="369" type="curve" smooth="yes"/>
      <point x="208" y="337"/>
      <point x="198" y="307"/>
      <point x="180" y="275" type="curve" smooth="yes"/>
    </contour>
    <contour>
      <point x="513" y="0" type="line"/>
      <point x="622" y="0" type="line"/>
      <point x="472" y="275" type="line" smooth="yes"/>
      <point x="454" y="307"/>
      <point x="446" y="337"/>
      <point x="446" y="369" type="curve" smooth="yes"/>
      <point x="446" y="403"/>
      <point x="460" y="436"/>
      <point x="479" y="470" type="curve" smooth="yes"/>
      <point x="622" y="737" type="line"/>
      <point x="517" y="737" type="line"/>
      <point x="383" y="496" type="line" smooth="yes"/>
      <point x="362" y="459"/>
      <point x="345" y="415"/>
      <point x="345" y="370" type="curve" smooth="yes"/>
      <point x="345" y="328"/>
      <point x="354" y="287"/>
      <point x="375" y="250" type="curve" smooth="yes"/>
    </contour>
    <contour>
      <point x="325" y="810" type="move" name="top"/>
    </contour>
    <contour>
      <point x="325" y="-150" type="move" name="bottom"/>
    </contour>
  </outline>
</glyph>
<glyph name="X.salt.smcp" format="1">
  <advance width="560"/>
  <outline>
    <contour>
      <point x="33" y="0" type="line"/>
      <point x="137" y="0" type="line"/>
      <point x="243" y="190" type="line" smooth="yes"/>
      <point x="258" y="217"/>
      <point x="268" y="249"/>
      <point x="268" y="281" type="curve" smooth="yes"/>
      <point x="268" y="315"/>
      <point x="256" y="349"/>
      <point x="239" y="377" type="curve" smooth="yes"/>
      <point x="131" y="560" type="line"/>
      <point x="32" y="560" type="line"/>
      <point x="146" y="354" type="line" smooth="yes"/>
      <point x="161" y="329"/>
      <point x="170" y="305"/>
      <point x="170" y="280" type="curve" smooth="yes"/>
      <point x="170" y="257"/>
      <point x="163" y="234"/>
      <point x="149" y="211" type="curve" smooth="yes"/>
    </contour>
    <contour>
      <point x="424" y="0" type="line"/>
      <point x="527" y="0" type="line"/>
      <point x="410" y="211" type="line" smooth="yes"/>
      <point x="397" y="234"/>
      <point x="391" y="257"/>
      <point x="391" y="280" type="curve" smooth="yes"/>
      <point x="391" y="305"/>
      <point x="402" y="329"/>
      <point x="415" y="354" type="curve" smooth="yes"/>
      <point x="527" y="560" type="line"/>
      <point x="429" y="560" type="line"/>
      <point x="323" y="377" type="line" smooth="yes"/>
      <point x="306" y="348"/>
      <point x="294" y="315"/>
      <point x="294" y="281" type="curve" smooth="yes"/>
      <point x="294" y="249"/>
      <point x="302" y="217"/>
      <point x="318" y="189" type="curve" smooth="yes"/>
    </contour>
    <contour>
      <point x="279" y="650" type="move" name="top"/>
    </contour>
    <contour>
      <point x="279" y="-150" type="move" name="bottom"/>
    </contour>
  </outline>
</glyph>
<glyph name="Y.smcp" format="1">
  <advance width="525"/>
  <outline>
    <contour>
      <point x="32" y="560" type="line"/>
      <point x="215" y="176" type="line"/>
      <point x="215" y="0" type="line"/>
      <point x="311" y="0" type="line"/>
      <point x="311" y="176" type="line"/>
      <point x="494" y="560" type="line"/>
      <point x="397" y="560" type="line"/>
      <point x="265" y="269" type="line"/>
      <point x="132" y="560" type="line"/>
    </contour>
    <contour>
      <point x="265" y="650" type="move" name="top"/>
    </contour>
    <contour>
      <point x="265" y="-150" type="move" name="bottom"/>
    </contour>
  </outline>
</glyph>
<glyph name="Z.smcp" format="1">
  <advance width="481"/>
  <outline>
    <contour>
      <point x="45" y="0" type="line"/>
      <point x="439" y="0" type="line"/>
      <point x="439" y="82" type="line"/>
      <point x="161" y="82" type="line"/>
      <point x="439" y="487" type="line"/>
      <point x="439" y="560" type="line"/>
      <point x="45" y="560" type="line"/>
      <point x="45" y="478" type="line"/>
      <point x="322" y="478" type="line"/>
      <point x="45" y="73" type="line"/>
    </contour>
    <contour>
      <point x="238" y="650" type="move" name="top"/>
    </contour>
    <contour>
      <point x="238" y="-150" type="move" name="bottom"/>
    </contour>
  </outline>
</glyph>
<glyph name="a.salt" format="1">
  <advance width="532"/>
  <outline>
    <contour>
      <point x="142" y="145" type="curve" smooth="yes"/>
      <point x="142" y="169" type="line" smooth="yes"/>
      <point x="142" y="218"/>
      <point x="170" y="251"/>
      <point x="239" y="255" type="curve" smooth="yes"/>
      <point x="379" y="261" type="line"/>
      <point x="379" y="107" type="line"/>
      <point x="334" y="80"/>
      <point x="275" y="66"/>
      <point x="223" y="67" type="curve" smooth="yes"/>
      <point x="183" y="67"/>
      <point x="142" y="86"/>
    </contour>
    <contour>
      <point x="41" y="128" type="line" smooth="yes"/>
      <point x="41" y="44"/>
      <point x="100" y="-6"/>
      <point x="200" y="-6" type="curve" smooth="yes"/>
      <point x="225" y="-6" type="line" smooth="yes"/>
      <point x="315" y="-6"/>
      <point x="419" y="30"/>
      <point x="480" y="69" type="curve"/>
      <point x="480" y="374" type="line" smooth="yes"/>
      <point x="480" y="497"/>
      <point x="413" y="543"/>
      <point x="281" y="543" type="curve" smooth="yes"/>
      <point x="194" y="542"/>
      <point x="132" y="533"/>
      <point x="83" y="522" type="curve"/>
      <point x="83" y="463" type="line"/>
      <point x="247" y="463" type="line" smooth="yes"/>
      <point x="356" y="463"/>
      <point x="379" y="429"/>
      <point x="379" y="367" type="curve" smooth="yes"/>
      <point x="379" y="311" type="line"/>
      <point x="212" y="311" type="line" smooth="yes"/>
      <point x="97" y="311"/>
      <point x="41" y="253"/>
      <point x="41" y="170" type="curve" smooth="yes"/>
    </contour>
    <contour>
      <point x="276" y="650" type="move" name="top"/>
    </contour>
    <contour>
      <point x="282" y="0" type="move" name="ogonek"/>
    </contour>
    <contour>
      <point x="270" y="-150" type="move" name="bottom"/>
    </contour>
  </outline>
</glyph>
<glyph name="a.superior" format="1">
  <advance width="409"/>
  <outline>
    <contour>
      <point x="110" y="388" type="curve" smooth="yes"/>
      <point x="110" y="404" type="line" smooth="yes"/>
      <point x="110" y="436"/>
      <point x="128" y="460"/>
      <point x="175" y="462" type="curve" smooth="yes"/>
      <point x="274" y="467" type="line"/>
      <point x="274" y="361" type="line"/>
      <point x="273" y="360"/>
      <point x="203" y="334"/>
      <point x="167" y="335" type="curve" smooth="yes"/>
      <point x="138" y="335"/>
      <point x="110" y="348"/>
    </contour>
    <contour>
      <point x="29" y="371" type="line" smooth="yes"/>
      <point x="29" y="311"/>
      <point x="71" y="276"/>
      <point x="130" y="276" type="curve" smooth="yes"/>
      <point x="195" y="276"/>
      <point x="267" y="313"/>
      <point x="278" y="323" type="curve"/>
      <point x="293" y="280" type="line"/>
      <point x="363" y="280" type="line"/>
      <point x="363" y="552" type="line" smooth="yes"/>
      <point x="363" y="645"/>
      <point x="309" y="678"/>
      <point x="211" y="678" type="curve" smooth="yes"/>
      <point x="143" y="677"/>
      <point x="96" y="669"/>
      <point x="59" y="660" type="curve"/>
      <point x="59" y="610" type="line"/>
      <point x="180" y="610" type="line" smooth="yes"/>
      <point x="258" y="610"/>
      <point x="274" y="587"/>
      <point x="274" y="546" type="curve" smooth="yes"/>
      <point x="274" y="502" type="line"/>
      <point x="152" y="502" type="line" smooth="yes"/>
      <point x="70" y="502"/>
      <point x="29" y="467"/>
      <point x="29" y="407" type="curve" smooth="yes"/>
    </contour>
    <contour>
      <point x="202" y="755" type="move" name="top"/>
    </contour>
    <contour>
      <point x="355" y="280" type="move" name="ogonek"/>
    </contour>
    <contour>
      <point x="202" y="170" type="move" name="bottom"/>
    </contour>
  </outline>
</glyph>
<glyph name="ampersand.salt" format="1">
  <advance width="969"/>
  <outline>
    <contour>
      <point x="337" y="244" type="line"/>
      <point x="337" y="333"/>
      <point x="370" y="361"/>
      <point x="422" y="361" type="curve" smooth="yes"/>
      <point x="486" y="361" type="line" smooth="yes"/>
      <point x="532" y="361"/>
      <point x="557" y="353"/>
      <point x="557" y="303" type="curve" smooth="yes"/>
      <point x="557" y="255"/>
      <point x="538" y="244"/>
      <point x="486" y="244" type="curve" smooth="yes"/>
    </contour>
    <contour>
      <point x="134" y="329" type="curve" smooth="yes"/>
      <point x="134" y="400" type="line" smooth="yes"/>
      <point x="134" y="490"/>
      <point x="182" y="509"/>
      <point x="277" y="509" type="curve" smooth="yes"/>
      <point x="729" y="509" type="line"/>
      <point x="729" y="214" type="line" smooth="yes"/>
      <point x="729" y="110"/>
      <point x="664" y="79"/>
      <point x="570" y="79" type="curve" smooth="yes"/>
      <point x="449" y="79" type="line" smooth="yes"/>
      <point x="370" y="79"/>
      <point x="337" y="99"/>
      <point x="337" y="177" type="curve"/>
      <point x="510" y="177" type="line" smooth="yes"/>
      <point x="588" y="177"/>
      <point x="647" y="203"/>
      <point x="647" y="296" type="curve" smooth="yes"/>
      <point x="647" y="398"/>
      <point x="582" y="428"/>
      <point x="484" y="428" type="curve" smooth="yes"/>
      <point x="411" y="428" type="line" smooth="yes"/>
      <point x="293" y="428"/>
      <point x="245" y="367"/>
      <point x="236" y="244" type="curve"/>
      <point x="178" y="245"/>
      <point x="134" y="259"/>
    </contour>
    <contour>
      <point x="44" y="324" type="line" smooth="yes"/>
      <point x="44" y="204"/>
      <point x="134" y="173"/>
      <point x="236" y="173" type="curve"/>
      <point x="241" y="35"/>
      <point x="332" y="-3"/>
      <point x="442" y="-3" type="curve" smooth="yes"/>
      <point x="579" y="-3" type="line" smooth="yes"/>
      <point x="706" y="-3"/>
      <point x="830" y="51"/>
      <point x="830" y="213" type="curve" smooth="yes"/>
      <point x="830" y="510" type="line"/>
      <point x="949" y="522" type="line"/>
      <point x="949" y="589" type="line"/>
      <point x="830" y="589" type="line"/>
      <point x="830" y="719" type="line"/>
      <point x="742" y="719" type="line"/>
      <point x="729" y="590" type="line"/>
      <point x="270" y="590" type="line" smooth="yes"/>
      <point x="126" y="590"/>
      <point x="44" y="548"/>
      <point x="44" y="400" type="curve" smooth="yes"/>
    </contour>
  </outline>
</glyph>
<glyph name="ampersand.smcp" format="1">
  <advance width="577"/>
  <outline>
    <contour>
      <point x="212" y="74" type="curve" smooth="yes"/>
      <point x="160" y="74"/>
      <point x="126" y="104"/>
      <point x="126" y="155" type="curve" smooth="yes"/>
      <point x="126" y="184"/>
      <point x="137" y="214"/>
      <point x="173" y="242" type="curve" smooth="yes"/>
      <point x="203" y="267" type="line"/>
      <point x="314" y="128" type="line"/>
      <point x="291" y="107" type="line" smooth="yes"/>
      <point x="261" y="80"/>
      <point x="240" y="74"/>
    </contour>
    <contour>
      <point x="190" y="-5" type="curve" smooth="yes"/>
      <point x="244" y="-5"/>
      <point x="282" y="7"/>
      <point x="328" y="46" type="curve" smooth="yes"/>
      <point x="359" y="73" type="line"/>
      <point x="420" y="0" type="line"/>
      <point x="530" y="0" type="line"/>
      <point x="428" y="127" type="line"/>
      <point x="471" y="170" type="line"/>
      <point x="526" y="244" type="line"/>
      <point x="491" y="284" type="line"/>
      <point x="379" y="188" type="line"/>
      <point x="241" y="367" type="line" smooth="yes"/>
      <point x="219" y="397"/>
      <point x="208" y="414"/>
      <point x="208" y="435" type="curve" smooth="yes"/>
      <point x="208" y="462"/>
      <point x="239" y="477"/>
      <point x="279" y="477" type="curve" smooth="yes"/>
      <point x="401" y="477" type="line"/>
      <point x="401" y="544" type="line"/>
      <point x="366" y="551"/>
      <point x="315" y="558"/>
      <point x="254" y="558" type="curve" smooth="yes"/>
      <point x="166" y="558"/>
      <point x="96" y="529"/>
      <point x="96" y="457" type="curve" smooth="yes"/>
      <point x="96" y="425"/>
      <point x="109" y="396"/>
      <point x="142" y="349" type="curve" smooth="yes"/>
      <point x="161" y="325" type="line"/>
      <point x="110" y="284" type="line" smooth="yes"/>
      <point x="61" y="245"/>
      <point x="37" y="196"/>
      <point x="37" y="142" type="curve" smooth="yes"/>
      <point x="37" y="54"/>
      <point x="102" y="-5"/>
    </contour>
  </outline>
</glyph>
<glyph name="at.alt" format="1">
  <advance width="876"/>
  <outline>
    <contour>
      <point x="316" y="248" type="curve"/>
      <point x="316" y="205"/>
      <point x="344" y="180"/>
      <point x="393" y="180" type="curve"/>
      <point x="439" y="179"/>
      <point x="512" y="203"/>
      <point x="545" y="230" type="curve"/>
      <point x="545" y="360" type="line"/>
      <point x="390" y="352" type="line" smooth="yes"/>
      <point x="359" y="350"/>
      <point x="316" y="343"/>
      <point x="316" y="278" type="curve" smooth="yes"/>
      <point x="316" y="277"/>
      <point x="315" y="249"/>
    </contour>
    <contour>
      <point x="65" y="432" type="line" smooth="yes"/>
      <point x="65" y="508"/>
      <point x="94" y="623"/>
      <point x="265" y="623" type="curve" smooth="yes"/>
      <point x="452" y="623" type="line" smooth="yes"/>
      <point x="535" y="623"/>
      <point x="623" y="601"/>
      <point x="623" y="469" type="curve" smooth="yes"/>
      <point x="623" y="111" type="line"/>
      <point x="562" y="111" type="line"/>
      <point x="547" y="170" type="line"/>
      <point x="545" y="170"/>
      <point x="453" y="102"/>
      <point x="362" y="102" type="curve"/>
      <point x="279" y="101"/>
      <point x="233" y="164"/>
      <point x="234" y="232" type="curve"/>
      <point x="234" y="276" type="line" smooth="yes"/>
      <point x="234" y="364"/>
      <point x="286" y="414"/>
      <point x="376" y="414" type="curve" smooth="yes"/>
      <point x="441" y="414"/>
      <point x="545" y="413"/>
      <point x="545" y="414" type="curve" smooth="yes"/>
      <point x="545" y="414"/>
      <point x="546" y="462"/>
      <point x="545" y="463" type="curve"/>
      <point x="545" y="523"/>
      <point x="511" y="545"/>
      <point x="453" y="545" type="curve" smooth="yes"/>
      <point x="265" y="545" type="line" smooth="yes"/>
      <point x="196" y="545"/>
      <point x="143" y="520"/>
      <point x="143" y="427" type="curve" smooth="yes"/>
      <point x="143" y="129" type="line" smooth="yes"/>
      <point x="143" y="23"/>
      <point x="209" y="-6"/>
      <point x="265" y="-6" type="curve" smooth="yes"/>
      <point x="584" y="-6" type="line" smooth="yes"/>
      <point x="677" y="-6"/>
      <point x="714" y="42"/>
      <point x="714" y="129" type="curve" smooth="yes"/>
      <point x="714" y="596" type="line" smooth="yes"/>
      <point x="714" y="682"/>
      <point x="668" y="740"/>
      <point x="584" y="740" type="curve" smooth="yes"/>
      <point x="188" y="740" type="line"/>
      <point x="188" y="800" type="line"/>
      <point x="236" y="810"/>
      <point x="363" y="819"/>
      <point x="489" y="818" type="curve"/>
      <point x="584" y="818" type="line"/>
      <point x="694" y="816"/>
      <point x="792" y="756"/>
      <point x="792" y="596" type="curve" smooth="yes"/>
      <point x="792" y="129" type="line" smooth="yes"/>
      <point x="792" y="-10"/>
      <point x="730" y="-85"/>
      <point x="588" y="-85" type="curve" smooth="yes"/>
      <point x="265" y="-85" type="line" smooth="yes"/>
      <point x="154" y="-85"/>
      <point x="65" y="-25"/>
      <point x="65" y="120" type="curve" smooth="yes"/>
    </contour>
  </outline>
</glyph>
<glyph name="at.smcp" format="1">
  <advance width="731"/>
  <outline>
    <contour>
      <point x="278" y="191" type="curve" smooth="yes"/>
      <point x="278" y="212" type="line" smooth="yes"/>
      <point x="278" y="249"/>
      <point x="311" y="254"/>
      <point x="334" y="255" type="curve" smooth="yes"/>
      <point x="443" y="260" type="line"/>
      <point x="443" y="182" type="line"/>
      <point x="419" y="165"/>
      <point x="367" y="146"/>
      <point x="333" y="146" type="curve" smooth="yes"/>
      <point x="300" y="146"/>
      <point x="278" y="163"/>
    </contour>
    <contour>
      <point x="60" y="92" type="line" smooth="yes"/>
      <point x="60" y="-24"/>
      <point x="136" y="-68"/>
      <point x="226" y="-68" type="curve" smooth="yes"/>
      <point x="488" y="-68" type="line" smooth="yes"/>
      <point x="603" y="-68"/>
      <point x="657" y="-12"/>
      <point x="657" y="101" type="curve" smooth="yes"/>
      <point x="657" y="446" type="line" smooth="yes"/>
      <point x="657" y="575"/>
      <point x="568" y="626"/>
      <point x="479" y="626" type="curve" smooth="yes"/>
      <point x="404" y="626" type="line" smooth="yes"/>
      <point x="303" y="626"/>
      <point x="198" y="618"/>
      <point x="159" y="611" type="curve"/>
      <point x="159" y="556" type="line"/>
      <point x="479" y="556" type="line" smooth="yes"/>
      <point x="543" y="556"/>
      <point x="583" y="510"/>
      <point x="583" y="446" type="curve" smooth="yes"/>
      <point x="583" y="101" type="line" smooth="yes"/>
      <point x="583" y="38"/>
      <point x="556" y="1"/>
      <point x="483" y="1" type="curve" smooth="yes"/>
      <point x="226" y="1" type="line" smooth="yes"/>
      <point x="184" y="1"/>
      <point x="133" y="23"/>
      <point x="133" y="101" type="curve" smooth="yes"/>
      <point x="133" y="317" type="line" smooth="yes"/>
      <point x="133" y="386"/>
      <point x="174" y="403"/>
      <point x="226" y="403" type="curve" smooth="yes"/>
      <point x="376" y="403" type="line" smooth="yes"/>
      <point x="419" y="403"/>
      <point x="443" y="388"/>
      <point x="443" y="347" type="curve" smooth="yes"/>
      <point x="443" y="304" type="line"/>
      <point x="317" y="304" type="line" smooth="yes"/>
      <point x="244" y="304"/>
      <point x="200" y="274"/>
      <point x="200" y="210" type="curve" smooth="yes"/>
      <point x="200" y="178" type="line" smooth="yes"/>
      <point x="200" y="127"/>
      <point x="235" y="76"/>
      <point x="303" y="76" type="curve" smooth="yes"/>
      <point x="376" y="76"/>
      <point x="442" y="128"/>
      <point x="444" y="128" type="curve"/>
      <point x="457" y="84" type="line"/>
      <point x="516" y="84" type="line"/>
      <point x="516" y="353" type="line" smooth="yes"/>
      <point x="516" y="457"/>
      <point x="444" y="472"/>
      <point x="375" y="472" type="curve" smooth="yes"/>
      <point x="226" y="472" type="line" smooth="yes"/>
      <point x="88" y="472"/>
      <point x="60" y="387"/>
      <point x="60" y="322" type="curve" smooth="yes"/>
    </contour>
  </outline>
</glyph>
<glyph name="b.salt" format="1">
  <advance width="571"/>
  <outline>
    <contour>
      <point x="165" y="77" type="curve"/>
      <point x="165" y="432" type="line"/>
      <point x="215" y="447"/>
      <point x="254" y="458"/>
      <point x="306" y="458" type="curve" smooth="yes"/>
      <point x="385" y="458"/>
      <point x="420" y="404"/>
      <point x="420" y="264" type="curve" smooth="yes"/>
      <point x="420" y="140"/>
      <point x="383" y="75"/>
      <point x="302" y="75" type="curve" smooth="yes"/>
      <point x="292" y="75"/>
      <point x="170" y="75"/>
    </contour>
    <contour>
      <point x="64" y="18" type="line"/>
      <point x="125" y="1"/>
      <point x="210" y="-9"/>
      <point x="303" y="-9" type="curve" smooth="yes"/>
      <point x="451" y="-9"/>
      <point x="520" y="81"/>
      <point x="520" y="260" type="curve" smooth="yes"/>
      <point x="520" y="436"/>
      <point x="483" y="541"/>
      <point x="337" y="541" type="curve" smooth="yes"/>
      <point x="290" y="541"/>
      <point x="216" y="525"/>
      <point x="165" y="502" type="curve"/>
      <point x="165" y="763" type="line"/>
      <point x="64" y="763" type="line"/>
    </contour>
  </outline>
</glyph>
<glyph name="b.superior" format="1">
  <advance width="439"/>
  <outline>
    <contour>
      <point x="137" y="371" type="curve"/>
      <point x="137" y="581" type="line"/>
      <point x="163" y="596"/>
      <point x="193" y="608"/>
      <point x="229" y="608" type="curve" smooth="yes"/>
      <point x="275" y="608"/>
      <point x="315" y="589"/>
      <point x="315" y="476" type="curve" smooth="yes"/>
      <point x="315" y="382"/>
      <point x="281" y="346"/>
      <point x="229" y="346" type="curve" smooth="yes"/>
      <point x="190" y="346"/>
      <point x="160" y="359"/>
    </contour>
    <contour>
      <point x="48" y="280" type="line"/>
      <point x="122" y="280" type="line"/>
      <point x="137" y="318" type="line"/>
      <point x="168" y="296"/>
      <point x="208" y="276"/>
      <point x="265" y="276" type="curve" smooth="yes"/>
      <point x="361" y="276"/>
      <point x="403" y="345"/>
      <point x="403" y="473" type="curve" smooth="yes"/>
      <point x="403" y="621"/>
      <point x="361" y="677"/>
      <point x="261" y="677" type="curve" smooth="yes"/>
      <point x="221" y="677"/>
      <point x="172" y="661"/>
      <point x="137" y="641" type="curve"/>
      <point x="137" y="853" type="line"/>
      <point x="48" y="853" type="line"/>
    </contour>
  </outline>
</glyph>
<glyph name="braceleft.smcp" format="1">
  <advance width="277"/>
  <outline>
    <contour>
      <point x="26" y="240" type="line"/>
      <point x="59" y="242"/>
      <point x="85" y="223"/>
      <point x="85" y="193" type="curve" smooth="yes"/>
      <point x="85" y="0" type="line" smooth="yes"/>
      <point x="85" y="-79"/>
      <point x="118" y="-131"/>
      <point x="250" y="-131" type="curve"/>
      <point x="250" y="-61" type="line"/>
      <point x="197" y="-61"/>
      <point x="181" y="-35"/>
      <point x="181" y="30" type="curve" smooth="yes"/>
      <point x="181" y="211" type="line" smooth="yes"/>
      <point x="181" y="249"/>
      <point x="150" y="275"/>
      <point x="106" y="282" type="curve"/>
      <point x="150" y="287"/>
      <point x="182" y="309"/>
      <point x="182" y="356" type="curve" smooth="yes"/>
      <point x="182" y="493" type="line" smooth="yes"/>
      <point x="182" y="572"/>
      <point x="200" y="594"/>
      <point x="250" y="594" type="curve"/>
      <point x="250" y="668" type="line"/>
      <point x="129" y="668"/>
      <point x="86" y="610"/>
      <point x="86" y="527" type="curve" smooth="yes"/>
      <point x="86" y="371" type="line" smooth="yes"/>
      <point x="86" y="336"/>
      <point x="53" y="327"/>
      <point x="26" y="324" type="curve"/>
    </contour>
  </outline>
</glyph>
<glyph name="braceright.smcp" format="1">
  <advance width="277"/>
  <outline>
    <contour>
      <point x="26" y="-61" type="curve"/>
      <point x="26" y="-131" type="line"/>
      <point x="159" y="-131"/>
      <point x="192" y="-79"/>
      <point x="192" y="0" type="curve" smooth="yes"/>
      <point x="192" y="193" type="line" smooth="yes"/>
      <point x="192" y="223"/>
      <point x="218" y="242"/>
      <point x="250" y="240" type="curve"/>
      <point x="250" y="324" type="line"/>
      <point x="224" y="327"/>
      <point x="191" y="336"/>
      <point x="191" y="371" type="curve" smooth="yes"/>
      <point x="191" y="527" type="line" smooth="yes"/>
      <point x="191" y="610"/>
      <point x="147" y="668"/>
      <point x="26" y="668" type="curve"/>
      <point x="26" y="594" type="line"/>
      <point x="77" y="594"/>
      <point x="95" y="572"/>
      <point x="95" y="493" type="curve" smooth="yes"/>
      <point x="95" y="356" type="line" smooth="yes"/>
      <point x="95" y="308"/>
      <point x="126" y="287"/>
      <point x="171" y="282" type="curve"/>
      <point x="126" y="275"/>
      <point x="96" y="249"/>
      <point x="96" y="211" type="curve" smooth="yes"/>
      <point x="96" y="30" type="line" smooth="yes"/>
      <point x="96" y="-35"/>
      <point x="79" y="-61"/>
    </contour>
  </outline>
</glyph>
<glyph name="bracketleft.smcp" format="1">
  <advance width="294"/>
  <outline>
    <contour>
      <point x="74" y="21" type="line" smooth="yes"/>
      <point x="74" y="-41"/>
      <point x="92" y="-131"/>
      <point x="211" y="-131" type="curve" smooth="yes"/>
      <point x="269" y="-131" type="line"/>
      <point x="269" y="-57" type="line"/>
      <point x="238" y="-57" type="line" smooth="yes"/>
      <point x="192" y="-57"/>
      <point x="170" y="-26"/>
      <point x="170" y="25" type="curve" smooth="yes"/>
      <point x="170" y="512" type="line" smooth="yes"/>
      <point x="170" y="572"/>
      <point x="197" y="594"/>
      <point x="238" y="594" type="curve" smooth="yes"/>
      <point x="269" y="594" type="line"/>
      <point x="269" y="668" type="line"/>
      <point x="211" y="668" type="line" smooth="yes"/>
      <point x="105" y="668"/>
      <point x="74" y="601"/>
      <point x="74" y="525" type="curve" smooth="yes"/>
    </contour>
  </outline>
</glyph>
<glyph name="bracketright.smcp" format="1">
  <advance width="294"/>
  <outline>
    <contour>
      <point x="26" y="-57" type="line"/>
      <point x="26" y="-131" type="line"/>
      <point x="85" y="-131" type="line" smooth="yes"/>
      <point x="204" y="-131"/>
      <point x="221" y="-41"/>
      <point x="221" y="21" type="curve" smooth="yes"/>
      <point x="221" y="525" type="line" smooth="yes"/>
      <point x="221" y="601"/>
      <point x="190" y="668"/>
      <point x="85" y="668" type="curve" smooth="yes"/>
      <point x="26" y="668" type="line"/>
      <point x="26" y="594" type="line"/>
      <point x="57" y="594" type="line" smooth="yes"/>
      <point x="98" y="594"/>
      <point x="125" y="572"/>
      <point x="125" y="512" type="curve" smooth="yes"/>
      <point x="125" y="25" type="line" smooth="yes"/>
      <point x="125" y="-26"/>
      <point x="104" y="-57"/>
      <point x="57" y="-57" type="curve" smooth="yes"/>
    </contour>
  </outline>
</glyph>
<glyph name="brevecomb_gravecomb" format="1">
  <outline>
    <contour>
      <point x="-409" y="733" type="line"/>
      <point x="-409" y="650"/>
      <point x="-352" y="618"/>
      <point x="-276" y="618" type="curve" smooth="yes"/>
      <point x="-199" y="618"/>
      <point x="-141" y="648"/>
      <point x="-141" y="733" type="curve"/>
      <point x="-190" y="733" type="line"/>
      <point x="-190" y="679"/>
      <point x="-225" y="661"/>
      <point x="-276" y="661" type="curve" smooth="yes"/>
      <point x="-321" y="660"/>
      <point x="-361" y="679"/>
      <point x="-361" y="733" type="curve"/>
    </contour>
    <component base="gravecomb" xOffset="-14" yOffset="114"/>
    <contour>
      <point x="-269" y="650" type="move" name="_top"/>
    </contour>
  </outline>
</glyph>
<glyph name="brevecomb_tildecomb" format="1">
  <outline>
    <contour>
      <point x="-409" y="733" type="line"/>
      <point x="-409" y="650"/>
      <point x="-352" y="618"/>
      <point x="-276" y="618" type="curve" smooth="yes"/>
      <point x="-199" y="618"/>
      <point x="-141" y="648"/>
      <point x="-141" y="733" type="curve"/>
      <point x="-190" y="733" type="line"/>
      <point x="-190" y="679"/>
      <point x="-225" y="661"/>
      <point x="-276" y="661" type="curve" smooth="yes"/>
      <point x="-321" y="660"/>
      <point x="-361" y="679"/>
      <point x="-361" y="733" type="curve"/>
    </contour>
    <contour>
      <point x="-432" y="768" type="curve"/>
      <point x="-381" y="768" type="line"/>
      <point x="-380" y="793"/>
      <point x="-360" y="807"/>
      <point x="-333" y="807" type="curve" smooth="yes"/>
      <point x="-291" y="807"/>
      <point x="-248" y="769"/>
      <point x="-197" y="769" type="curve" smooth="yes"/>
      <point x="-145" y="769"/>
      <point x="-117" y="795"/>
      <point x="-113" y="860" type="curve"/>
      <point x="-164" y="860" type="line"/>
      <point x="-164" y="833"/>
      <point x="-184" y="819"/>
      <point x="-213" y="819" type="curve" smooth="yes"/>
      <point x="-255" y="819"/>
      <point x="-294" y="857"/>
      <point x="-348" y="857" type="curve" smooth="yes"/>
      <point x="-389" y="857"/>
      <point x="-428" y="840"/>
    </contour>
    <contour>
      <point x="-269" y="650" type="move" name="_top"/>
    </contour>
  </outline>
</glyph>
<glyph name="c_k" format="1">
  <advance width="995"/>
  <outline>
    <contour>
      <point x="543" y="0" type="line"/>
      <point x="644" y="0" type="line"/>
      <point x="644" y="191" type="line"/>
      <point x="709" y="259" type="line"/>
      <point x="879" y="0" type="line"/>
      <point x="982" y="0" type="line"/>
      <point x="778" y="312" type="line"/>
      <point x="969" y="535" type="line"/>
      <point x="865" y="535" type="line"/>
      <point x="644" y="290" type="line"/>
      <point x="644" y="763" type="line"/>
      <point x="543" y="763" type="line"/>
      <point x="543" y="211" type="line"/>
      <point x="453" y="133"/>
      <point x="359" y="71"/>
      <point x="277" y="71" type="curve" smooth="yes"/>
      <point x="198" y="71"/>
      <point x="152" y="105"/>
      <point x="152" y="265" type="curve" smooth="yes"/>
      <point x="152" y="429"/>
      <point x="201" y="465"/>
      <point x="300" y="465" type="curve" smooth="yes"/>
      <point x="451" y="465" type="line"/>
      <point x="451" y="524" type="line"/>
      <point x="391" y="537"/>
      <point x="328" y="541"/>
      <point x="272" y="541" type="curve" smooth="yes"/>
      <point x="136" y="541"/>
      <point x="52" y="486"/>
      <point x="52" y="266" type="curve" smooth="yes"/>
      <point x="52" y="49"/>
      <point x="134" y="-6"/>
      <point x="253" y="-6" type="curve" smooth="yes"/>
      <point x="359" y="-6"/>
      <point x="451" y="51"/>
      <point x="543" y="126" type="curve"/>
    </contour>
  </outline>
</glyph>
<glyph name="c_t" format="1">
  <advance width="839"/>
  <outline>
    <contour>
      <point x="459" y="14" type="curve"/>
      <point x="459" y="71" type="line"/>
      <point x="301" y="71" type="line" smooth="yes"/>
      <point x="204" y="71"/>
      <point x="153" y="105"/>
      <point x="153" y="265" type="curve" smooth="yes"/>
      <point x="153" y="429"/>
      <point x="210" y="465"/>
      <point x="326" y="465" type="curve" smooth="yes"/>
      <point x="568" y="465" type="line"/>
      <point x="563" y="178" type="line" smooth="yes"/>
      <point x="561" y="48"/>
      <point x="612" y="0"/>
      <point x="721" y="0" type="curve" smooth="yes"/>
      <point x="802" y="0" type="line"/>
      <point x="802" y="74" type="line"/>
      <point x="735" y="80" type="line" smooth="yes"/>
      <point x="703" y="84"/>
      <point x="663" y="98"/>
      <point x="663" y="179" type="curve" smooth="yes"/>
      <point x="663" y="453" type="line"/>
      <point x="808" y="453" type="line"/>
      <point x="808" y="535" type="line"/>
      <point x="663" y="535" type="line"/>
      <point x="663" y="685" type="line"/>
      <point x="585" y="685" type="line"/>
      <point x="570" y="530" type="line"/>
      <point x="502" y="535"/>
      <point x="372" y="541"/>
      <point x="311" y="541" type="curve" smooth="yes"/>
      <point x="150" y="541"/>
      <point x="52" y="486"/>
      <point x="52" y="266" type="curve" smooth="yes"/>
      <point x="52" y="49"/>
      <point x="144" y="-6"/>
      <point x="269" y="-6" type="curve" smooth="yes"/>
      <point x="339" y="-6"/>
      <point x="411" y="3"/>
    </contour>
  </outline>
</glyph>
<glyph name="caroncomb.alt" format="1">
  <note>
    GF Latin Plus glyph
  </note>
  <outline>
    <contour>
      <point x="-59" y="573" type="line"/>
      <point x="17" y="573" type="line"/>
      <point x="25" y="720" type="line"/>
      <point x="25" y="787" type="line"/>
      <point x="-67" y="787" type="line"/>
      <point x="-67" y="720" type="line"/>
    </contour>
    <contour>
      <point x="-95" y="650" type="move" name="_altcaron"/>
    </contour>
  </outline>
</glyph>
<glyph name="circumflexcomb_gravecomb" format="1">
  <outline>
    <contour>
      <point x="-419" y="631" type="line"/>
      <point x="-359" y="631" type="line"/>
      <point x="-268" y="686" type="line"/>
      <point x="-184" y="631" type="line"/>
      <point x="-124" y="631" type="line"/>
      <point x="-231" y="733" type="line"/>
      <point x="-301" y="733" type="line"/>
    </contour>
    <contour>
      <point x="-414" y="710" type="line"/>
      <point x="-355" y="710" type="line"/>
      <point x="-430" y="839" type="line"/>
      <point x="-514" y="839" type="line"/>
    </contour>
    <contour>
      <point x="-269" y="650" type="move" name="_top"/>
    </contour>
  </outline>
</glyph>
<glyph name="circumflexcomb_tildecomb" format="1">
  <outline>
    <contour>
      <point x="-437" y="777" type="curve"/>
      <point x="-386" y="777" type="line"/>
      <point x="-385" y="802"/>
      <point x="-365" y="816"/>
      <point x="-338" y="816" type="curve" smooth="yes"/>
      <point x="-296" y="816"/>
      <point x="-252" y="778"/>
      <point x="-202" y="778" type="curve" smooth="yes"/>
      <point x="-144" y="778"/>
      <point x="-113" y="804"/>
      <point x="-108" y="869" type="curve"/>
      <point x="-159" y="869" type="line"/>
      <point x="-159" y="842"/>
      <point x="-179" y="828"/>
      <point x="-208" y="828" type="curve" smooth="yes"/>
      <point x="-250" y="828"/>
      <point x="-290" y="866"/>
      <point x="-344" y="866" type="curve" smooth="yes"/>
      <point x="-389" y="866"/>
      <point x="-433" y="849"/>
    </contour>
    <contour>
      <point x="-301" y="733" type="line"/>
      <point x="-419" y="631" type="line"/>
      <point x="-359" y="631" type="line"/>
      <point x="-268" y="686" type="line"/>
      <point x="-184" y="631" type="line"/>
      <point x="-124" y="631" type="line"/>
      <point x="-231" y="733" type="line"/>
    </contour>
    <contour>
      <point x="-269" y="650" type="move" name="_top"/>
    </contour>
  </outline>
</glyph>
<glyph name="commaturnedabovecomb" format="1">
  <note>
    GF Latin Plus glyph
  </note>
  <outline>
    <contour>
      <point x="-230" y="716" type="line"/>
      <point x="-230" y="757" type="line"/>
      <point x="-272" y="757" type="line" smooth="yes"/>
      <point x="-361" y="757"/>
      <point x="-384" y="717"/>
      <point x="-384" y="616" type="curve"/>
      <point x="-322" y="616" type="line"/>
      <point x="-323" y="693"/>
      <point x="-302" y="702"/>
      <point x="-259" y="710" type="curve" smooth="yes"/>
    </contour>
    <contour>
      <point x="-326" y="650" type="move" name="_top"/>
    </contour>
  </outline>
</glyph>
<glyph name="d.salt" format="1">
  <advance width="570"/>
  <outline>
    <contour>
      <point x="151" y="264" type="curve" smooth="yes"/>
      <point x="151" y="404"/>
      <point x="180" y="463"/>
      <point x="272" y="463" type="curve" smooth="yes"/>
      <point x="320" y="463"/>
      <point x="356" y="454"/>
      <point x="406" y="438" type="curve"/>
      <point x="406" y="83" type="line"/>
      <point x="401" y="79"/>
      <point x="280" y="74"/>
      <point x="268" y="74" type="curve" smooth="yes"/>
      <point x="182" y="74"/>
      <point x="151" y="139"/>
    </contour>
    <contour>
      <point x="51" y="260" type="curve" smooth="yes"/>
      <point x="51" y="77"/>
      <point x="115" y="-9"/>
      <point x="263" y="-9" type="curve" smooth="yes"/>
      <point x="367" y="-9"/>
      <point x="456" y="10"/>
      <point x="506" y="31" type="curve"/>
      <point x="506" y="763" type="line"/>
      <point x="406" y="763" type="line"/>
      <point x="406" y="510" type="line"/>
      <point x="357" y="529"/>
      <point x="285" y="541"/>
      <point x="243" y="541" type="curve" smooth="yes"/>
      <point x="88" y="541"/>
      <point x="51" y="436"/>
    </contour>
    <contour>
      <point x="526" y="650" type="move" name="altcaron"/>
    </contour>
    <contour>
      <point x="281" y="-150" type="move" name="bottom"/>
    </contour>
  </outline>
</glyph>
<glyph name="dblgravecomb.case" format="1">
  <note>
    GF Latin Plus glyph
  </note>
  <outline>
    <contour>
      <point x="-505" y="929" type="line"/>
      <point x="-383" y="791" type="line"/>
      <point x="-324" y="791" type="line"/>
      <point x="-422" y="929" type="line"/>
    </contour>
    <contour>
      <point x="-349" y="929" type="line"/>
      <point x="-227" y="791" type="line"/>
      <point x="-168" y="791" type="line"/>
      <point x="-266" y="929" type="line"/>
    </contour>
    <contour>
      <point x="-292" y="810" type="move" name="_top"/>
    </contour>
  </outline>
</glyph>
<glyph name="degree.smcp" format="1">
  <advance width="284"/>
  <outline>
    <contour>
      <point x="75" y="475" type="curve" smooth="yes"/>
      <point x="75" y="513"/>
      <point x="103" y="539"/>
      <point x="142" y="539" type="curve" smooth="yes"/>
      <point x="182" y="539"/>
      <point x="208" y="513"/>
      <point x="208" y="475" type="curve" smooth="yes"/>
      <point x="208" y="437"/>
      <point x="181" y="412"/>
      <point x="142" y="412" type="curve" smooth="yes"/>
      <point x="104" y="412"/>
      <point x="75" y="437"/>
    </contour>
    <contour>
      <point x="31" y="475" type="curve" smooth="yes"/>
      <point x="31" y="413"/>
      <point x="78" y="370"/>
      <point x="142" y="370" type="curve" smooth="yes"/>
      <point x="208" y="370"/>
      <point x="253" y="413"/>
      <point x="253" y="475" type="curve" smooth="yes"/>
      <point x="253" y="538"/>
      <point x="208" y="582"/>
      <point x="142" y="582" type="curve" smooth="yes"/>
      <point x="78" y="582"/>
      <point x="31" y="538"/>
    </contour>
  </outline>
</glyph>
<glyph name="dieresiscomb" format="1">
  <note>
    GF Latin Plus glyph
  </note>
  <outline>
    <contour>
      <point x="-426" y="665" type="line" smooth="yes"/>
      <point x="-426" y="655"/>
      <point x="-419" y="648"/>
      <point x="-409" y="648" type="curve" smooth="yes"/>
      <point x="-362" y="648" type="line" smooth="yes"/>
      <point x="-352" y="648"/>
      <point x="-345" y="654"/>
      <point x="-345" y="665" type="curve" smooth="yes"/>
      <point x="-345" y="749" type="line" smooth="yes"/>
      <point x="-345" y="760"/>
      <point x="-351" y="767"/>
      <point x="-362" y="767" type="curve" smooth="yes"/>
      <point x="-409" y="767" type="line" smooth="yes"/>
      <point x="-420" y="767"/>
      <point x="-426" y="761"/>
      <point x="-426" y="749" type="curve" smooth="yes"/>
    </contour>
    <contour>
      <point x="-198" y="665" type="line" smooth="yes"/>
      <point x="-198" y="655"/>
      <point x="-190" y="648"/>
      <point x="-180" y="648" type="curve" smooth="yes"/>
      <point x="-134" y="648" type="line" smooth="yes"/>
      <point x="-124" y="648"/>
      <point x="-117" y="654"/>
      <point x="-117" y="665" type="curve" smooth="yes"/>
      <point x="-117" y="749" type="line" smooth="yes"/>
      <point x="-117" y="760"/>
      <point x="-123" y="767"/>
      <point x="-134" y="767" type="curve" smooth="yes"/>
      <point x="-180" y="767" type="line" smooth="yes"/>
      <point x="-192" y="767"/>
      <point x="-198" y="761"/>
      <point x="-198" y="749" type="curve" smooth="yes"/>
    </contour>
    <contour>
      <point x="-269" y="650" type="move" name="_top"/>
    </contour>
  </outline>
</glyph>
<glyph name="dollar.smcp" format="1">
  <advance width="514"/>
  <outline>
    <contour>
      <point x="217" y="550" type="line"/>
      <point x="272" y="549" type="line"/>
      <point x="272" y="625" type="line"/>
      <point x="217" y="625" type="line"/>
    </contour>
    <contour>
      <point x="217" y="6" type="line"/>
      <point x="217" y="-67" type="line"/>
      <point x="272" y="-67" type="line"/>
      <point x="272" y="6" type="line"/>
    </contour>
    <component base="S.smcp"/>
  </outline>
</glyph>
<glyph name="dong.smcp" format="1">
  <advance width="514"/>
  <outline>
    <contour>
      <point x="67" y="-18" type="line"/>
      <point x="457" y="-18" type="line"/>
      <point x="457" y="55" type="line"/>
      <point x="67" y="55" type="line"/>
    </contour>
    <contour>
      <point x="250" y="528" type="line"/>
      <point x="503" y="528" type="line"/>
      <point x="503" y="564" type="line"/>
      <point x="250" y="564" type="line"/>
    </contour>
    <contour>
      <point x="148" y="292" type="curve" smooth="yes"/>
      <point x="148" y="377"/>
      <point x="176" y="402"/>
      <point x="248" y="402" type="curve" smooth="yes"/>
      <point x="288" y="402"/>
      <point x="317" y="390"/>
      <point x="353" y="380" type="curve"/>
      <point x="353" y="226" type="line"/>
      <point x="323" y="210"/>
      <point x="287" y="187"/>
      <point x="240" y="187" type="curve" smooth="yes"/>
      <point x="174" y="187"/>
      <point x="148" y="217"/>
    </contour>
    <contour>
      <point x="57" y="289" type="curve" smooth="yes"/>
      <point x="57" y="171"/>
      <point x="107" y="114"/>
      <point x="211" y="114" type="curve" smooth="yes"/>
      <point x="265" y="114"/>
      <point x="329" y="144"/>
      <point x="357" y="169" type="curve"/>
      <point x="373" y="120" type="line"/>
      <point x="446" y="120" type="line"/>
      <point x="446" y="635" type="line"/>
      <point x="353" y="635" type="line"/>
      <point x="353" y="444" type="line"/>
      <point x="318" y="457"/>
      <point x="270" y="472"/>
      <point x="224" y="472" type="curve" smooth="yes"/>
      <point x="101" y="472"/>
      <point x="57" y="419"/>
    </contour>
  </outline>
</glyph>
<glyph name="dotbelowcomb.case" format="1">
  <note>
    GF Latin Plus glyph
  </note>
  <outline>
    <component base="dotaccentcomb" xOffset="2" yOffset="-870"/>
    <contour>
      <point x="-267" y="-150" type="move" name="_bottom"/>
    </contour>
  </outline>
</glyph>
<glyph name="dotbelowcomb" format="1">
  <note>
    GF Latin Plus glyph
  </note>
  <outline>
    <contour>
      <point x="-311" y="-198" type="line" smooth="yes"/>
      <point x="-311" y="-208"/>
      <point x="-304" y="-215"/>
      <point x="-294" y="-215" type="curve" smooth="yes"/>
      <point x="-247" y="-215" type="line" smooth="yes"/>
      <point x="-237" y="-215"/>
      <point x="-230" y="-209"/>
      <point x="-230" y="-198" type="curve" smooth="yes"/>
      <point x="-230" y="-114" type="line" smooth="yes"/>
      <point x="-230" y="-103"/>
      <point x="-236" y="-96"/>
      <point x="-247" y="-96" type="curve" smooth="yes"/>
      <point x="-294" y="-96" type="line" smooth="yes"/>
      <point x="-306" y="-96"/>
      <point x="-311" y="-102"/>
      <point x="-311" y="-114" type="curve" smooth="yes"/>
    </contour>
    <contour>
      <point x="-267" y="-150" type="move" name="_bottom"/>
    </contour>
  </outline>
</glyph>
<glyph name="eight.oldstyle" format="1">
  <advance width="609"/>
  <outline>
    <contour>
      <point x="179" y="503" type="curve" smooth="yes"/>
      <point x="179" y="566" type="line" smooth="yes"/>
      <point x="179" y="632"/>
      <point x="206" y="657"/>
      <point x="267" y="657" type="curve" smooth="yes"/>
      <point x="354" y="657" type="line" smooth="yes"/>
      <point x="405" y="657"/>
      <point x="435" y="636"/>
      <point x="435" y="566" type="curve" smooth="yes"/>
      <point x="435" y="503" type="line" smooth="yes"/>
      <point x="435" y="462"/>
      <point x="414" y="419"/>
      <point x="350" y="419" type="curve" smooth="yes"/>
      <point x="266" y="419" type="line" smooth="yes"/>
      <point x="206" y="419"/>
      <point x="179" y="451"/>
    </contour>
    <contour>
      <point x="167" y="164" type="curve" smooth="yes"/>
      <point x="167" y="248" type="line" smooth="yes"/>
      <point x="167" y="310"/>
      <point x="227" y="333"/>
      <point x="266" y="333" type="curve" smooth="yes"/>
      <point x="351" y="333" type="line" smooth="yes"/>
      <point x="419" y="333"/>
      <point x="447" y="307"/>
      <point x="447" y="248" type="curve" smooth="yes"/>
      <point x="447" y="164" type="line" smooth="yes"/>
      <point x="447" y="111"/>
      <point x="420" y="83"/>
      <point x="354" y="83" type="curve" smooth="yes"/>
      <point x="267" y="83" type="line" smooth="yes"/>
      <point x="208" y="83"/>
      <point x="167" y="105"/>
    </contour>
    <contour>
      <point x="66" y="148" type="line" smooth="yes"/>
      <point x="66" y="34"/>
      <point x="146" y="-3"/>
      <point x="250" y="-3" type="curve" smooth="yes"/>
      <point x="376" y="-3" type="line" smooth="yes"/>
      <point x="476" y="-3"/>
      <point x="547" y="34"/>
      <point x="547" y="148" type="curve" smooth="yes"/>
      <point x="547" y="257" type="line" smooth="yes"/>
      <point x="547" y="309"/>
      <point x="525" y="372"/>
      <point x="461" y="385" type="curve"/>
      <point x="512" y="398"/>
      <point x="533" y="462"/>
      <point x="533" y="504" type="curve" smooth="yes"/>
      <point x="533" y="589" type="line" smooth="yes"/>
      <point x="533" y="700"/>
      <point x="468" y="742"/>
      <point x="376" y="742" type="curve" smooth="yes"/>
      <point x="246" y="742" type="line" smooth="yes"/>
      <point x="154" y="742"/>
      <point x="81" y="700"/>
      <point x="81" y="589" type="curve" smooth="yes"/>
      <point x="81" y="504" type="line" smooth="yes"/>
      <point x="81" y="451"/>
      <point x="95" y="403"/>
      <point x="157" y="374" type="curve"/>
      <point x="112" y="364"/>
      <point x="66" y="319"/>
      <point x="66" y="252" type="curve" smooth="yes"/>
    </contour>
  </outline>
</glyph>
<glyph name="eight.smcp" format="1">
  <advance width="534"/>
  <outline>
    <contour>
      <point x="172" y="381" type="curve" smooth="yes"/>
      <point x="172" y="422" type="line" smooth="yes"/>
      <point x="172" y="467"/>
      <point x="191" y="487"/>
      <point x="237" y="487" type="curve" smooth="yes"/>
      <point x="304" y="487" type="line" smooth="yes"/>
      <point x="341" y="487"/>
      <point x="362" y="470"/>
      <point x="362" y="422" type="curve" smooth="yes"/>
      <point x="362" y="381" type="line" smooth="yes"/>
      <point x="362" y="353"/>
      <point x="342" y="325"/>
      <point x="300" y="325" type="curve" smooth="yes"/>
      <point x="236" y="325" type="line" smooth="yes"/>
      <point x="192" y="325"/>
      <point x="172" y="349"/>
    </contour>
    <contour>
      <point x="162" y="130" type="curve" smooth="yes"/>
      <point x="162" y="188" type="line" smooth="yes"/>
      <point x="162" y="233"/>
      <point x="207" y="247"/>
      <point x="233" y="247" type="curve" smooth="yes"/>
      <point x="303" y="247" type="line" smooth="yes"/>
      <point x="353" y="247"/>
      <point x="371" y="231"/>
      <point x="371" y="188" type="curve" smooth="yes"/>
      <point x="371" y="130" type="line" smooth="yes"/>
      <point x="371" y="93"/>
      <point x="349" y="74"/>
      <point x="306" y="74" type="curve" smooth="yes"/>
      <point x="234" y="74" type="line" smooth="yes"/>
      <point x="193" y="74"/>
      <point x="162" y="91"/>
    </contour>
    <contour>
      <point x="66" y="115" type="line" smooth="yes"/>
      <point x="66" y="24"/>
      <point x="135" y="-2"/>
      <point x="218" y="-2" type="curve" smooth="yes"/>
      <point x="327" y="-2" type="line" smooth="yes"/>
      <point x="408" y="-2"/>
      <point x="467" y="24"/>
      <point x="467" y="115" type="curve" smooth="yes"/>
      <point x="467" y="196" type="line" smooth="yes"/>
      <point x="467" y="233"/>
      <point x="453" y="283"/>
      <point x="400" y="294" type="curve"/>
      <point x="442" y="302"/>
      <point x="456" y="354"/>
      <point x="456" y="383" type="curve" smooth="yes"/>
      <point x="456" y="447" type="line" smooth="yes"/>
      <point x="456" y="532"/>
      <point x="401" y="564"/>
      <point x="326" y="564" type="curve" smooth="yes"/>
      <point x="214" y="564" type="line" smooth="yes"/>
      <point x="139" y="564"/>
      <point x="78" y="532"/>
      <point x="78" y="447" type="curve" smooth="yes"/>
      <point x="78" y="383" type="line" smooth="yes"/>
      <point x="78" y="343"/>
      <point x="87" y="307"/>
      <point x="137" y="284" type="curve"/>
      <point x="99" y="276"/>
      <point x="66" y="241"/>
      <point x="66" y="193" type="curve" smooth="yes"/>
    </contour>
  </outline>
</glyph>
<glyph name="eight.tnum" format="1">
  <advance width="609"/>
  <outline>
    <contour>
      <point x="173" y="503" type="curve" smooth="yes"/>
      <point x="173" y="566" type="line" smooth="yes"/>
      <point x="173" y="632"/>
      <point x="198" y="657"/>
      <point x="260" y="657" type="curve" smooth="yes"/>
      <point x="358" y="657" type="line" smooth="yes"/>
      <point x="409" y="657"/>
      <point x="437" y="636"/>
      <point x="437" y="566" type="curve" smooth="yes"/>
      <point x="437" y="503" type="line" smooth="yes"/>
      <point x="437" y="462"/>
      <point x="417" y="419"/>
      <point x="354" y="419" type="curve" smooth="yes"/>
      <point x="259" y="419" type="line" smooth="yes"/>
      <point x="199" y="419"/>
      <point x="173" y="451"/>
    </contour>
    <contour>
      <point x="161" y="164" type="curve" smooth="yes"/>
      <point x="161" y="248" type="line" smooth="yes"/>
      <point x="161" y="310"/>
      <point x="220" y="333"/>
      <point x="259" y="333" type="curve" smooth="yes"/>
      <point x="354" y="333" type="line" smooth="yes"/>
      <point x="423" y="333"/>
      <point x="450" y="307"/>
      <point x="450" y="248" type="curve" smooth="yes"/>
      <point x="450" y="164" type="line" smooth="yes"/>
      <point x="450" y="111"/>
      <point x="423" y="83"/>
      <point x="357" y="83" type="curve" smooth="yes"/>
      <point x="260" y="83" type="line" smooth="yes"/>
      <point x="201" y="83"/>
      <point x="161" y="105"/>
    </contour>
    <contour>
      <point x="60" y="148" type="line" smooth="yes"/>
      <point x="60" y="34"/>
      <point x="140" y="-3"/>
      <point x="244" y="-3" type="curve" smooth="yes"/>
      <point x="379" y="-3" type="line" smooth="yes"/>
      <point x="479" y="-3"/>
      <point x="550" y="34"/>
      <point x="550" y="148" type="curve" smooth="yes"/>
      <point x="550" y="257" type="line" smooth="yes"/>
      <point x="550" y="309"/>
      <point x="528" y="372"/>
      <point x="463" y="385" type="curve"/>
      <point x="515" y="398"/>
      <point x="536" y="462"/>
      <point x="536" y="504" type="curve" smooth="yes"/>
      <point x="536" y="589" type="line" smooth="yes"/>
      <point x="536" y="700"/>
      <point x="471" y="742"/>
      <point x="378" y="742" type="curve" smooth="yes"/>
      <point x="240" y="742" type="line" smooth="yes"/>
      <point x="148" y="742"/>
      <point x="74" y="700"/>
      <point x="74" y="589" type="curve" smooth="yes"/>
      <point x="74" y="504" type="line" smooth="yes"/>
      <point x="74" y="451"/>
      <point x="88" y="403"/>
      <point x="151" y="374" type="curve"/>
      <point x="106" y="364"/>
      <point x="60" y="319"/>
      <point x="60" y="252" type="curve" smooth="yes"/>
    </contour>
  </outline>
</glyph>
<glyph name="five.smcp" format="1">
  <advance width="521"/>
  <outline>
    <contour>
      <point x="68" y="7" type="line"/>
      <point x="128" y="1"/>
      <point x="204" y="-4"/>
      <point x="273" y="-4" type="curve" smooth="yes"/>
      <point x="393" y="-4"/>
      <point x="466" y="39"/>
      <point x="466" y="134" type="curve" smooth="yes"/>
      <point x="466" y="217" type="line" smooth="yes"/>
      <point x="466" y="291"/>
      <point x="419" y="347"/>
      <point x="326" y="347" type="curve" smooth="yes"/>
      <point x="258" y="347" type="line" smooth="yes"/>
      <point x="216" y="347"/>
      <point x="185" y="333"/>
      <point x="171" y="316" type="curve"/>
      <point x="179" y="478" type="line"/>
      <point x="444" y="478" type="line"/>
      <point x="444" y="560" type="line"/>
      <point x="96" y="560" type="line"/>
      <point x="79" y="219" type="line"/>
      <point x="170" y="219" type="line"/>
      <point x="177" y="254"/>
      <point x="198" y="270"/>
      <point x="239" y="270" type="curve" smooth="yes"/>
      <point x="292" y="270" type="line" smooth="yes"/>
      <point x="346" y="270"/>
      <point x="370" y="244"/>
      <point x="370" y="201" type="curve" smooth="yes"/>
      <point x="370" y="153" type="line" smooth="yes"/>
      <point x="370" y="111"/>
      <point x="340" y="78"/>
      <point x="276" y="78" type="curve" smooth="yes"/>
      <point x="68" y="78" type="line"/>
    </contour>
  </outline>
</glyph>
<glyph name="five.tnum" format="1">
  <advance width="609"/>
  <outline>
    <contour>
      <point x="84" y="7" type="line"/>
      <point x="157" y="0"/>
      <point x="251" y="-5"/>
      <point x="339" y="-5" type="curve" smooth="yes"/>
      <point x="483" y="-5"/>
      <point x="574" y="52"/>
      <point x="574" y="175" type="curve" smooth="yes"/>
      <point x="574" y="284" type="line" smooth="yes"/>
      <point x="574" y="380"/>
      <point x="513" y="452"/>
      <point x="397" y="452" type="curve" smooth="yes"/>
      <point x="312" y="452" type="line" smooth="yes"/>
      <point x="255" y="452"/>
      <point x="215" y="431"/>
      <point x="198" y="405" type="curve"/>
      <point x="209" y="647" type="line"/>
      <point x="548" y="647" type="line"/>
      <point x="548" y="737" type="line"/>
      <point x="123" y="737" type="line"/>
      <point x="102" y="292" type="line"/>
      <point x="196" y="292" type="line"/>
      <point x="205" y="343"/>
      <point x="237" y="366"/>
      <point x="292" y="366" type="curve" smooth="yes"/>
      <point x="364" y="366" type="line" smooth="yes"/>
      <point x="438" y="366"/>
      <point x="473" y="328"/>
      <point x="473" y="267" type="curve" smooth="yes"/>
      <point x="473" y="195" type="line" smooth="yes"/>
      <point x="473" y="131"/>
      <point x="426" y="86"/>
      <point x="342" y="86" type="curve" smooth="yes"/>
      <point x="84" y="86" type="line"/>
    </contour>
  </outline>
</glyph>
<glyph name="florin.smcp" format="1">
  <advance width="514"/>
  <outline>
    <contour>
      <point x="26" y="-142" type="line"/>
      <point x="41" y="-148"/>
      <point x="73" y="-155"/>
      <point x="109" y="-155" type="curve" smooth="yes"/>
      <point x="206" y="-155"/>
      <point x="247" y="-84"/>
      <point x="274" y="67" type="curve" smooth="yes"/>
      <point x="314" y="293" type="line"/>
      <point x="405" y="293" type="line"/>
      <point x="416" y="357" type="line"/>
      <point x="322" y="357" type="line"/>
      <point x="336" y="432" type="line" smooth="yes"/>
      <point x="350" y="505"/>
      <point x="367" y="537"/>
      <point x="424" y="537" type="curve" smooth="yes"/>
      <point x="469" y="537" type="line"/>
      <point x="477" y="593" type="line"/>
      <point x="466" y="598"/>
      <point x="441" y="606"/>
      <point x="392" y="606" type="curve" smooth="yes"/>
      <point x="299" y="606"/>
      <point x="262" y="550"/>
      <point x="245" y="454" type="curve" smooth="yes"/>
      <point x="226" y="357" type="line"/>
      <point x="157" y="357" type="line"/>
      <point x="146" y="293" type="line"/>
      <point x="218" y="293" type="line"/>
      <point x="174" y="45" type="line" smooth="yes"/>
      <point x="157" y="-54"/>
      <point x="133" y="-86"/>
      <point x="81" y="-86" type="curve" smooth="yes"/>
      <point x="36" y="-86" type="line"/>
    </contour>
  </outline>
</glyph>
